<?xml version="1.0" encoding="UTF-8"?>
<svg version="1.1" viewBox="0 0 500 600" xmlns="http://www.w3.org/2000/svg" xmlnsCc="http://creativecommons.org/ns#" xmlnsDc="http://purl.org/dc/elements/1.1/" xmlnsRdf="http://www.w3.org/1999/02/22-rdf-syntax-ns#">
<g transform="translate(-1.5254e-6 37.042)">
<g transform="matrix(1.0483 0 0 1.0483 2.1396 -33.039)">
<path d="m206 545.78c-33.154-3.1943-62.345-15.741-72.154-31.012-3.1894-4.9657-3.3624-5.7218-3.6884-16.123-0.47716-15.223 0.62243-18.615 8.53-26.313 4.7164-4.5916 8.9584-7.4535 16.575-11.182 11.791-5.7722 19.509-7.9792 43.487-12.434l17.25-3.2051-0.0349-82.004c-0.038-89.357-0.24458-93.186-5.5123-102.17-7.0622-12.051-27.131-29.434-58.453-50.63-21.783-14.741-56.666-39.623-91.983-65.611-12.916-9.5039-26.339-18.575-29.83-20.158-13.547-6.1424-21.187-14.325-21.187-22.691 0-13.074 22.957-24.94 67-34.631 46.612-10.256 83.706-13.57 152.17-13.594 48.178-0.01707 76.25 1.4325 109.06 5.6317l4.7314 0.60553 2.082-4.8764c4.2079-9.8556 6.4834-13.619 11.758-19.448 6.7972-7.5112 11.36-10.173 24.882-14.515 13.715-4.4041 22.264-5.1916 32.769-3.0186 24.492 5.0662 39.051 20.561 47.282 50.322 2.3944 8.6574 2.7092 11.568 2.7352 25.283 0.0332 17.545-1.4867 24.414-8.2978 37.5-6.7258 12.922-25.034 29.058-37.486 33.039-2.8528 0.91203-7.9636 2.7388-11.357 4.0594-10.795 4.2006-21.079 3.3687-36.329-2.9388-0.97115-0.40166-11.548 6.6406-30 19.974-15.675 11.327-33.675 24.08-40 28.34-23.552 15.863-48.706 37.374-50.57 43.246-0.39112 1.2323-1.5709 3.4035-2.6218 4.8248-4.3804 5.9249-4.7363 13.432-4.7733 100.7l-0.03489 82.25h2.3403c4.9639 0 28.701 5.3849 39.908 9.0533 23.42 7.6663 35.596 15.797 41.389 27.637 2.337 4.7766 2.5083 6.0192 2.0965 15.204-0.37033 8.2603-0.91843 10.963-3.1472 15.518-5.7 11.65-22.527 22.098-45.853 28.469-7.6168 2.0804-24.05 4.8799-31.477 5.3623-9.5209 2.179-29.933 1.4257-41.257-0.4666zm36.792-37.35c15.829-3.2304 29.815-12.726 35.242-23.927 3.1738-6.5506 3.9006-17.764 1.5502-23.918l-1.6403-4.295-10.222-2.5851c-5.6222-1.4218-12.247-2.8605-14.722-3.1972s-5.85-0.83457-7.5-1.1065l-3-0.4945 2.1715 1.8947c3.3948 2.9621 6.3207 8.4044 6.3248 11.764 5e-3 4.4654-4.2151 8.0222-11.836 9.9746-8.7254 2.2354-9.1602 1.9265-9.1602-6.5061 0-6.3647-0.18963-7.0314-2-7.0314-1.8095 0-2 0.66667-2 7v7h-3.134c-5.2429 0-10.852-2.1946-13.425-5.2528-3.8072-4.5246-3.1394-9.9254 1.9342-15.641l2.125-2.394-3 0.54203c-1.65 0.29812-8.7347 1.5781-15.744 2.8444l-12.744 2.3023-1.7554 4.5497c-2.9084 7.5382-2.3673 16.352 1.4842 24.176 9.4577 19.211 35.397 29.536 61.051 24.301zm-13.37-56.973c0.35145-1.4003 0.37367-2.9753 0.0494-3.5-0.32429-0.5247 0.10176-0.95401 0.94676-0.95401 1.366 0 1.5814-9.066 1.9425-81.75 0.22335-44.962 0.72384-83.824 1.1122-86.36l0.70609-4.6099-4.8384-0.54536c-2.6611-0.29994-5.1764-0.33645-5.5896-0.0811-0.41313 0.25533-0.66605 7.3002-0.56206 15.655 0.104 8.355 0.35371 12.491 0.55491 9.191s0.73998-6.3764 1.1973-6.8364c2.0569-2.069 3.1491 83.679 1.6008 125.67-0.74237 20.135-2.0536 26.072-2.7966 12.663-0.23922-4.3178-0.42481-2.7126-0.5528 4.7814-0.15763 9.2291 0.0802 11.386 1.3073 11.857 0.92551 0.35516 1.5 1.8751 1.5 3.9686 0 4.0768 2.4588 4.6854 3.4222 0.84702zm-172.42-316.45c0-0.55-0.47656-1-1.059-1s-0.7809 0.45-0.44098 1 0.81648 1 1.059 1 0.44098-0.45 0.44098-1z" fill="#eaf4fa"/>
<path d="m209.35 546.24c-7.755-0.45442-26.858-4.1207-35.37-6.7882-21.317-6.6807-37.17-17.497-41.959-28.628-1.953-4.5399-2.1824-6.5326-1.8704-16.251 0.31822-9.913 0.64271-11.566 3.089-15.732 1.5727-2.6784 5.3931-6.6707 8.9968-9.4018 6.6562-5.0444 22.264-12.978 27.263-13.858 1.65-0.29044 5.25-1.2305 8-2.089 4.2216-1.3179 35.303-7.4963 37.712-7.4963 0.43347 0 0.78031-37.688 0.77076-83.75-0.0194-93.695 0.0185-93.102-6.6038-103.2-7.9149-12.065-29.521-30.197-60.879-51.092-17.222-11.476-39.576-27.4-80-56.987-18.925-13.852-34.571-24.521-40.168-27.391-14.304-7.3339-20.984-15.861-18.908-24.135 0.9324-3.715 8.0191-10.99 13.953-14.324 11.193-6.2887 27.81-11.651 54.382-17.548 44.498-9.8754 85.411-13.576 150.09-13.576 45.014 0 83.699 2.1008 108.98 5.9183 4.4839 0.67698 5.4189 0.5484 5.8645-0.80647 0.29155-0.88652 2.2709-5.2118 4.3985-9.6118 6.6017-13.652 15.914-22.34 27.903-26.029 3.025-0.93086 7.8738-2.5406 10.775-3.5773 12.206-4.361 28.735-3.0553 42.225 3.3357 9.6552 4.5742 20.388 15.734 25.745 26.77 11.394 23.474 13.35 51.637 5.1137 73.649-6.2963 16.828-26.073 36.17-42.208 41.28-3.3825 1.0712-8.7262 2.8754-11.875 4.0093-8.3961 3.0235-19.417 2.8052-27.275-0.54029-3.3-1.4049-6.6921-2.7718-7.5379-3.0374-0.91613-0.28773-12.034 7.0899-27.5 18.248-14.279 10.302-32.647 23.334-40.818 28.961-41.779 28.77-55.286 42.667-58.625 60.317-0.64106 3.3886-1.019 36.457-1.019 89.156 0 79.399 0.0916 83.746 1.7561 83.311 2.8285-0.73966 29.44 5.2847 42.222 9.5581 22.682 7.5836 33.289 14.791 39.081 26.555 2.9282 5.9479 3.0203 6.54 2.4853 15.974-0.36225 6.388-1.2144 11.287-2.4488 14.077-6.4939 14.681-33.01 28.22-64.398 32.883-5.9163 0.87895-12.431 1.7079-14.477 1.8421-8.981 2.562-25.114 0.0354-36.87-8.1e-4zm61.028-26.161c22.735-4.9934 33.468-12.561 38.16-26.905 2.2513-6.8828 1.6104-15.036-1.7582-22.368-2.1994-4.7875-3.3822-6.08-7.4468-8.1368-7.5486-3.82-47.435-13.672-55.352-13.672-0.625 0 0.46705 1.8732 2.4268 4.1627 7.8669 9.1908 5.0732 16.204-7.6573 19.223l-2.75 0.65214v-7.019-7.019l-4.75-0.0136c-2.6125-8e-3 -5.7625-0.285-7-0.61664-2.1892-0.58667-2.25-0.39706-2.25 7.0137 0 4.1892-0.14332 7.6166-0.3185 7.6166-0.17517 0-2.6712-0.69867-5.5467-1.5526-3.934-1.1683-5.7108-2.3441-7.1778-4.75-3.3661-5.5206-2.0416-10.183 4.5343-15.963 1.9882-1.7473 1.9831-1.7602-0.49139-1.2691-1.375 0.27289-9.7053 1.823-18.512 3.4447-17.144 3.157-33.616 8.4173-38.326 12.239-7.9165 6.4241-9.9401 14.288-5.9303 23.047 7.7054 16.831 26.759 26.804 63.768 33.379 11.837 2.1029 43.866 1.2544 56.377-1.4936zm-35.558-68.921 3.1801-2.8392-6e-3 -82.411c-4e-3 -52.483-0.37292-83.733-1.0171-86.053-1.3145-4.7325-2.7382-5.806-8.6214-6.501-9.1875-1.0853-8.4755-8.476-8.3845 87.034 0.0438 45.988 0.34941 84.963 0.67914 86.611 0.32972 1.6486 0.94077 2.9975 1.3579 2.9975s0.99372 0.9 1.2814 2c0.84432 3.2287 7.5178 2.743 11.53-0.8392zm-176.97-316.6c-0.19479-0.1723-1.4792-0.62238-2.8542-1.0002l-2.5-0.68691 2.5 2.0133c1.375 1.1073 2.6594 1.5574 2.8542 1.0002 0.19479-0.55721 0.19479-1.1541 0-1.3264zm15.646-16.462c6.4141-2.963 15.987-6.0523 26.506-8.5536 3.5716-0.84929 33.044-4.0525 65.494-7.1181l59-5.574 30.5 0.48544c28.875 0.45958 51.05 2.19 72.336 5.6447 3.3904 0.55028 6.6623 1.0039 7.2708 1.0081 0.72033 5e-3 1.3122-4.4407 1.6965-12.742 0.32462-7.0125 1.2557-15.14 2.069-18.06 1.1023-3.9582 1.1796-5.4019 0.30349-5.671-0.64643-0.19854-25.523-2.477-55.282-5.0632l-54.106-4.7022-70.894 6.117c-73.28 6.3229-83.427 7.6591-101.39 13.351-13.621 4.3153-21.169 7.9708-26.384 12.778-7.5894 6.9957-7.0713 14.254 1.514 21.21 5.5288 4.4796 9.1661 6.3318 20.37 10.373l9 3.246 3-1.9786c1.65-1.0882 5.7-3.2258 9-4.7502z" fill="#d1e7eb"/>
<path d="m208.68 545.91c-2e-3 0.12919-65.879-16.484-75.455-32.774-2.5598-4.3544-2.7235-5.359-2.7106-16.634 0.0118-10.353 0.30863-12.549 2.1624-16 2.2175-4.128 6.24-8.2941 12.324-12.764 4.7613-3.498 19.453-10.736 21.791-10.736 1.0425 0 4.5534-0.93711 7.802-2.0825 9.1455-3.2244 40.745-8.965 41.641-7.5649 1.0753 1.6793 0.86868-160.58-0.21509-168.92-1.8649-14.345-6.0005-21.519-20.153-34.958-8.5885-8.1554-28.979-23.6-46.867-35.499-15.887-10.568-53.242-37.26-85.822-61.324-15.894-11.74-28.43-20.215-33.67-22.763-12.948-6.2976-18.317-11.626-19.853-19.702-2.3762-12.488 16.891-23.923 56.607-33.597 50.836-12.382 104.41-17.354 175.53-16.291 37.711 0.56369 49.705 1.2192 79.711 4.3561 8.8 0.92 17.083 1.7112 18.406 1.7583 2.0575 0.07315 2.8144-0.90506 5.2221-6.7484 3.3954-8.2405 10.446-18.378 15.6-22.428 5.2794-4.1491 8.8916-5.8552 21.106-9.9689 9.3834-3.1602 11.868-3.5946 20.666-3.6138 16.683-0.03634 30.432 5.9155 41.41 17.925 6.7425 7.3764 13.179 20.428 16.728 33.919 2.2034 8.3766 2.6449 12.273 2.7195 24 0.0989 15.554-1.3576 23.177-6.531 34.181-7.6298 16.228-26.929 33.358-42.695 37.896-2.5474 0.73321-7.3316 2.3006-10.632 3.483-8.639 3.0955-19.676 2.4444-28.545-1.6838l-6.4546-3.0042-26 18.8c-14.3 10.34-33.312 23.823-42.249 29.961-8.9368 6.1386-20.862 14.86-26.5 19.382-11.095 8.8971-26.157 24.02-25.302 25.403 0.29092 0.47071-0.14617 1.4161-0.97129 2.1009-0.82513 0.68479-2.5077 4.4483-3.739 8.3633l-2.2388 7.1182v85 85l4 0.30749c7.2495 0.55729 31.579 6.2877 41.882 9.8643 15.537 5.394 26.317 11.359 31.552 17.459 7.2262 8.4203 8.0677 10.805 8.0566 22.83-0.012 12.927-2.0195 18.018-10.097 25.603-7.2738 6.8309-16.078 11.564-30.413 16.349-23.039 7.6915-77.8 7.9937-77.8 7.9937zm8.5703-8.5704c-0.6875-0.27741-1.8125-0.27741-2.5 0s-0.125 0.50439 1.25 0.50439 1.9375-0.22698 1.25-0.50439zm26 0c-0.6875-0.27741-1.8125-0.27741-2.5 0s-0.125 0.50439 1.25 0.50439 1.9375-0.22698 1.25-0.50439zm12-1c-0.6875-0.27741-1.8125-0.27741-2.5 0s-0.125 0.50439 1.25 0.50439 1.9375-0.22698 1.25-0.50439zm-57.062-1.0208c-0.72188-0.28887-1.5844-0.25335-1.9167 0.0789-0.33229 0.33229 0.25834 0.56864 1.3125 0.52522 1.165-0.048 1.4019-0.28494 0.60417-0.60416zm-5.4565-1.0099c-0.97297-0.25354-2.323-0.23687-3 0.0371-0.67703 0.27393 0.11903 0.48137 1.769 0.46099 1.65-0.0204 2.2039-0.2445 1.231-0.49804zm74.519 0.0307c-0.6875-0.27741-1.8125-0.27741-2.5 0s-0.125 0.50439 1.25 0.50439 1.9375-0.22698 1.25-0.50439zm12.938-3.0208c-0.72188-0.28887-1.5844-0.25335-1.9167 0.0789-0.33229 0.33229 0.25834 0.56864 1.3125 0.52522 1.165-0.048 1.4019-0.28494 0.60417-0.60416zm-114.19-4.3169c-0.825-0.53316-1.95-0.96937-2.5-0.96937s-0.325 0.43621 0.5 0.96937 1.95 0.96937 2.5 0.96937 0.325-0.43621-0.5-0.96937zm-5-2c-0.825-0.53316-1.95-0.96937-2.5-0.96937s-0.325 0.43621 0.5 0.96937 1.95 0.96937 2.5 0.96937 0.325-0.43621-0.5-0.96937zm102.17-3.4468c21.279-3.6335 30.412-7.2923 37.994-15.221 6.1073-6.3865 8.2854-11.687 8.6902-21.147 0.32745-7.6523 0.10881-8.8167-2.7436-14.611-2.8409-5.7706-3.5796-6.5089-8.8553-8.8498-7.0786-3.1409-38.391-11.245-47.256-12.231-3.575-0.39751-7.2214-1.1016-8.103-1.5647-1.2975-0.68148-1.5176-0.39484-1.1545 1.5041 0.24666 1.2903-0.30634 3.498-1.2289 4.906-3.1275 4.7732-11.588 5.7459-19.872 2.2848l-3.642-1.5217v7.949c0 4.3719-0.42883 7.949-0.95295 7.949-2.6087 0-6.1209-2.6359-7.5638-5.6766-2.1111-4.4488-0.68091-9.0646 4.1126-13.273 2.4349-2.1378 2.9726-3.05 1.7981-3.05-5.0315 0-36.122 6.5166-43.44 9.1049-11.502 4.0686-15.746 6.6008-19.658 11.729-2.7977 3.668-3.2965 5.1475-3.2965 9.7775 0 16.987 18.64 31.605 49.684 38.964 25.743 6.1024 42.681 6.8728 65.487 2.9786zm-20.171-61.227v-9.6743l2.6289 2.4243c3.2508 2.9978 5.5642 8.2108 4.7122 10.618-0.91708 2.5915-4.4604 6.3059-6.0154 6.3059-1.0096 0-1.3257-2.307-1.3257-9.6743zm-74.5 59.698c0-1.7843-4.6156-3.5774-6.9261-2.6908-1.3436 0.51559-1.4486 1.0324-0.55057 2.7103 0.83395 1.5582 1.9003 1.9966 4.2931 1.7648 2.0008-0.19382 3.1836-0.85675 3.1836-1.7843zm135.67-3.8986c7.5344-3.2596 16.346-10.489 18.693-15.336 2.3171-4.7865 2.7335-10.099 1.1236-14.333-0.84335-2.2182-1.2694-2.464-2.5-1.4427-0.81589 0.67713-1.4834 1.6614-1.4834 2.1874 0 0.52591-1.8278 4.8583-4.0617 9.6276-3.5943 7.6734-4.8093 9.2468-10.558 13.671-3.5729 2.75-6.9752 5.5625-7.5607 6.25-1.597 1.8752 1.207 1.5993 6.3474-0.62452zm-148.17-3.4312c0-0.71815-1.1776-2.8556-2.6169-4.75-3.567-4.6948-8.196-14.922-8.9839-19.849-0.35648-2.2293-1.1971-4.804-1.8681-5.7216-2.8744-3.9309-10.551 2.3728-10.505 8.6265 0.0449 6.1586 6.4395 15.436 13.9 20.168 4.6828 2.9697 10.074 3.7865 10.074 1.5262zm77.717-59.33 4.2834-1.6359-2e-3 -85.614c-2e-3 -99.89 0.779-92.41-9.6988-92.911-5.9349-0.28374-6.256-0.17672-7.5 2.5-1.0472 2.2531-1.2025 19.694-0.79969 89.767l0.5 86.971 2.5 1.2644c3.3321 1.6852 5.5977 1.6129 10.717-0.34199zm-175.72-317.77c0-0.7712-1.4625-1.8905-3.25-2.4874l-3.25-1.0852 2.8058 2.4874c3.2389 2.8714 3.6942 3.0052 3.6942 1.0853zm8.1999-13.461c6.0497-4.0275 16.393-7.9342 29.8-11.255 8.9538-2.218 19.803-3.6248 49-6.3537 20.625-1.9277 46.725-4.4044 58-5.5037 39.54-3.8552 80.258-2.3969 128.61 4.6061l4.1106 0.59535 0.55016-12.363c0.30259-6.7996 1.2763-15.015 2.1637-18.255 0.88746-3.2408 1.4439-6.062 1.2365-6.2694-0.20737-0.20737-25.081-2.5692-55.274-5.2485 0 0-35.971-1.5356-54.342-1.5424-24.26-9e-3 -73.055 3.0504-73.055 3.0504-66.636 7.2483-76.688 9.6103-93.445 14.193-25.29 6.916-38.555 12.343-38.555 21.745 0 8.8402 8.8314 15.873 29 23.094 3.575 1.28 6.8149 2.3367 7.1999 2.3483s2.6349-1.2671 5-2.8416z" fill="#b5cddb"/>
<path d="m206 545.42c-1.375-0.23212-5.875-0.91579-10-1.5193-17.708-2.5906-36.734-9.2323-48.607-16.968-10.817-7.0479-16.441-15.225-16.988-24.702-0.31307-5.4241 0.85086-6.3272 2.0413-1.584 3.5535 14.158 28.342 28.674 58.895 34.488 14.002 2.6645 47.845 3.702 62.478 1.9155 20.71-2.5284 41.839-9.1803 53.723-16.914 7.2465-4.7153 14.868-12.693 17.581-18.402l2.0109-4.2319-0.50049 5.7972c-0.62873 7.2826-3.8909 13.021-10.879 19.137-10.216 8.9404-27.834 16.294-49.423 20.627-8.8872 1.784-15.056 2.2289-34.334 2.4765-12.925 0.16598-24.625 0.11186-26-0.12026zm3.2-78.617c-1.7238-1.7238-1.5135-9.2949 0.3-10.8 1.3076-1.0852 1.5-0.39568 1.5 5.3776 0 3.6423-0.135 6.6224-0.3 6.6224s-0.84-0.54-1.5-1.2zm12.8-204.42c-4.4612-1.5506-6.7395-3.5337-12.453-10.839-9.8111-12.545-22.203-22.876-51.169-42.659-38.144-26.051-100.3-71.362-100.34-73.146-0.04851-2.2153 2.6943-1.6423 11.946 2.4956 7.0272 3.143 30.912 8.6562 48.515 11.199 37.534 5.421 97.132 7.9643 131.5 5.6117 39.477-2.7023 84.593-7.0259 98.439-9.4336 7.67-1.3338 7.9014-1.4621 14.428-7.999l6.6332-6.6435-3.5 0.61127c-1.925 0.3362-5.525 1.2213-8 1.9669-7.4998 2.2593-13.924 2.8395-16.454 1.4859-1.8654-0.99831-12.541-0.39447-57.379 3.2453l-55.087 4.4718-71.79-5.7928c-61.239-4.9414-73.444-6.1862-83.04-8.4698-6.1875-1.4724-11.25-3.077-11.25-3.5657 0-1.3847 6.8029-5.3198 14.5-8.3875 16.755-6.6779 25.243-8.0034 90.026-14.058 60.815-5.6838 61.043-5.6972 87.474-5.1604 25.448 0.51689 55.016 2.9646 73.12 6.0529l7.6197 1.2999 0.51816-11.58c0.60767-13.58 2.6376-23.167 7.5339-35.58 4.2502-10.775 8.6611-18.001 14.372-23.543 5.9655-5.7893 10.819-8.3769 23.299-12.422 9.3319-3.0247 12.266-3.5349 20.327-3.5349 23.742 0 41.121 10.783 51.57 32 7.1568 14.532 9.888 26.407 10.004 43.5 0.1074 15.796-1.1842 22.305-6.747 34-4.3626 9.1716-9.6287 16.003-18.161 23.558-8.2194 7.2781-14.742 11.237-22.956 13.931-3.3 1.0826-8.475 2.8633-11.5 3.957-10.14 3.6661-23.805 1.9263-34.849-4.4367-2.3918-1.3781-4.8668-2.2006-5.5-1.8279-0.63325 0.37278-12.381 8.7626-26.106 18.644s-31.294 22.334-39.042 27.672c-26.346 18.152-42.432 31.744-51.542 43.552-2.302 2.9838-5.5974 6.2794-7.3232 7.3237-3.1144 1.8845-14.689 3.5257-17.638 2.5009z" fill="#e79b94"/>
<path d="m192.67 543.34c-17.708-2.5906-33.405-8.6774-45.278-16.413-10.817-7.0479-16.441-15.225-16.988-24.702-0.31307-5.4241 0.85086-6.3272 2.0413-1.584 3.5535 14.158 28.342 28.674 58.895 34.488 14.002 2.6645 47.845 3.702 62.478 1.9155 20.71-2.5284 41.839-9.1803 53.723-16.914 7.2465-4.7153 14.868-12.693 17.581-18.402l2.0109-4.2319-0.50049 5.7972c-0.62873 7.2826-5.6973 16.45-13.293 21.792-23.011 16.183-42.424 18.093-44.645 18.624-6.3582 1.5191-22.192 3.9924-34.042 3.7327-12.779-0.0107-30.123-2.3648-41.985-4.1028zm16.529-76.543c-1.7238-1.7238-1.5135-9.2949 0.3-10.8 1.3076-1.0852 1.5-0.39568 1.5 5.3776 0 3.6423-0.135 6.6224-0.3 6.6224s-0.84-0.54-1.5-1.2zm13.613-204.83c-1.4777-0.42178-2.886-0.56755-3.1297-0.32394-0.61069 0.61068-6.8499-5.6155-8.6786-8.6604-1.6963-2.8245-22.882-23.989-24.013-23.989-0.58683 0-8.2265-5.6934-14.504-10.809-0.55646-0.45346-3.7065-2.5401-7-4.6369-3.2935-2.0968-6.1383-4.2042-6.3216-4.6831-0.18334-0.4789-0.77726-0.87072-1.3198-0.87072-1.061 0-9.4919-5.5654-11.668-7.7024-0.72678-0.71365-1.6268-1.2981-2-1.2988-0.37321-6.7e-4 -1.9861-1.1257-3.5841-2.5s-3.173-2.4993-3.5-2.5-1.902-1.1257-3.5-2.5-3.173-2.4993-3.5-2.5-1.902-1.1257-3.5-2.5-3.2007-2.4988-3.5614-2.4988c-0.36074 0-1.5282-0.79109-2.5945-1.758s-3.2393-2.6544-4.8291-3.75c-1.5898-1.0956-4.1371-2.892-5.6606-3.992-1.5236-1.1-5.6228-3.982-9.1094-6.4045-3.4866-2.4225-6.5644-4.6828-6.8394-5.0231-0.275-0.34024-1.8383-1.4722-3.474-2.5154-3.3165-2.1152-3.5903-2.3186-8.526-6.337-1.925-1.5672-7.6625-5.9096-12.75-9.6498-8.4994-6.2485-11.255-9.5703-7.94-9.5703 0.72051 0 4.433 1.5202 8.25 3.3783 6.168 3.0025 17.746 6.2577 25.014 7.0326 1.4157 0.15093 5.8031 2.966 9.7499 6.2556 8.1198 6.7678 26.255 20.333 27.183 20.333 0.33627 0 0.30049-0.50308-0.0795-1.118-0.38001-0.61487-1.0293-2.6182-1.4428-4.4518-0.71808-3.1839-0.63345-3.3155 1.8819-2.9273 1.4486 0.22357 7.9213 0.65002 14.384 0.94766l11.75 0.54116v-5.6209-5.6209l3.25 0.6958c2.8841 0.61745 49.711 2.0136 66.75 1.9901 6.2248-9e-3 20.319-0.85573 32-1.9235 3.025-0.2765 8.425-0.69508 12-0.93019s16.625-1.399 29-2.5864c12.375-1.1874 24.75-2.3225 27.5-2.5223 4.6259-0.3362 11.179-1.146 16-1.9771 1.1-0.18964 3.7196-0.60527 5.8214-0.92361 5.1711-0.78323 6.2462-1.479 13.17-8.5236l5.9918-6.0959-3.4918 0.61502c-1.9205 0.33826-5.5168 1.2251-7.9918 1.9707-7.5041 2.2606-13.924 2.8396-16.457 1.4841-1.8692-1.0004-12.664-0.39717-58.169 3.2505-45.202 3.6233-57.593 4.3188-64.874 3.6411-13.03-1.2127-20.022-1.8072-28.5-2.423-11.052-0.80273-30.839-2.4861-36-3.0626-2.475-0.27651-7.425-0.70252-11-0.94671-6.0018-0.40994-10.115-0.74602-25-2.0425-3.025-0.26348-8.2-0.67244-11.5-0.90879-15.123-1.0832-21.418-1.6351-23.14-2.029-1.0233-0.23413-4.7855-1.1522-8.3605-2.0402s-7.367-1.7946-8.4266-2.0148c-5.8382-1.2128-2.5586-4.1109 10.626-9.3903 17.843-7.1448 26.674-8.5378 92.801-14.638 60.041-5.5391 62.046-5.6595 84.5-5.0761 29.135 0.75703 70.416 4.5047 79.612 7.2274 1.3982 0.41401 1.6815-1.0824 2.1379-11.296 0.61521-13.767 2.6287-23.318 7.5419-35.774 4.2502-10.775 8.6611-18.001 14.372-23.543 5.9655-5.7893 10.819-8.3769 23.299-12.422 9.3319-3.0247 12.266-3.5349 20.327-3.5349 23.742 0 41.121 10.783 51.57 32 7.1568 14.532 9.888 26.407 10.004 43.5 0.1074 15.796-1.1842 22.305-6.747 34-4.3626 9.1716-9.6287 16.003-18.161 23.558-8.2194 7.2781-14.742 11.237-22.956 13.931-3.3 1.0826-8.475 2.8633-11.5 3.957-10.156 3.6716-23.804 1.9267-34.891-4.461-3.8972-2.2452-4.6287-2.3738-6.5-1.1426-2.889 1.9009-32.86 23.366-34.135 24.447-0.5643 0.47863-2.3643 1.7306-4 2.7821-1.6357 1.0515-3.8464 2.703-4.9126 3.6698s-2.2716 1.758-2.6786 1.758c-0.40701 0-1.3347 0.5625-2.0614 1.25-2.6825 2.5375-8.7182 6.75-9.6714 6.75-0.54087 0-1.1334 0.39421-1.3167 0.87603-0.18333 0.48182-3.4833 2.9482-7.3333 5.4808-8.7567 5.7604-15.424 10.444-17.038 11.97-0.68232 0.64505-2.4991 2.0728-4.0374 3.1728-5.9532 4.2572-14.804 11.882-20.92 18.021-3.4215 3.4346-5.7357 6.116-12.005 13.91-1.0713 1.3317-5.3528 3.8649-7 4.1416-5.1565 0.86608-10.471 1.0344-12.687 0.40191z" fill="#a0a7a9"/>
<path d="m221.71 261.71c-2.7687-0.67772-4.9211-2.3105-8-6.0689-12.55-15.32-29.035-29.472-53.212-45.683-31.967-21.434-100.5-71.613-100.5-73.584 0-2.0192 1.3225-1.7349 9.2977 1.999 3.9629 1.8554 12.045 4.4062 17.961 5.6684 9.8347 2.0986 11.204 2.6794 15.999 6.7845 6.1734 5.2862 27.373 21.174 28.253 21.174 0.33449 0 0.29725-0.50308-0.0828-1.118-0.38001-0.61487-1.0293-2.6182-1.4428-4.4518-0.71808-3.1839-0.63345-3.3155 1.8819-2.9273 1.4486 0.22357 7.9213 0.65002 14.384 0.94766l11.75 0.54116v-5.6072-5.6072l3.5383 0.66378c4.3302 0.81235 68.322 2.508 74.514 1.9745 2.4464-0.21082 11.423-0.85931 19.948-1.4411 15.97-1.0898 41.31-3.2645 58-4.9775 5.225-0.53627 12.425-1.2181 16-1.5151s10.775-1.2158 16-2.0417l9.5-1.5016 7-7.0817 7-7.0817-4 0.58637c-2.2 0.32251-6.4606 1.2731-9.4679 2.1124-5.7903 1.616-14.639 2.0525-15.199 0.7497-0.18333-0.42697-23.283 1.1157-51.333 3.4282s-54.53 4.2368-58.844 4.2763c-7.2687 0.0665-24.071-1.2328-115.16-8.9047-31.84-2.6819-48.954-5.3242-51.823-8.0018-2.2147-2.0665 15.763-9.6823 33.008-13.983 10.101-2.519 20.737-3.7696 73.315-8.6202 60.041-5.5391 62.046-5.6595 84.5-5.0761 29.367 0.76308 70.483 4.5118 79.75 7.2713 1.5461 0.4604 1.7507-0.27314 1.7559-6.2963 0.0194-22.384 8.856-49.44 20.202-61.854 7.0245-7.6859 11.018-10.009 25.211-14.663 11.618-3.8101 12.484-3.9455 22.582-3.5293 18.114 0.74677 31.243 6.878 41.314 19.294 12.737 15.702 20.429 44.312 17.777 66.123-2.1016 17.285-7.9557 29.953-19.419 42.02-9.146 9.6283-17.634 15.088-31.673 20.374-10.4 3.9158-12.361 4.3326-20.5 4.3588-8.6834 0.0279-9.3166-0.12882-18-4.4558l-9-4.4848-28.513 20.5c-15.682 11.275-32.107 22.94-36.5 25.922-23.76 16.131-40.555 30.068-51.016 42.335-3.8661 4.5335-8.5911 8.9837-10.5 9.8893-4.4011 2.0879-11.377 2.759-16.259 1.5641z" fill="#e28476"/>
<path d="m219.19 260.32c-1.8205-0.89717-5.2521-4.1494-7.6258-7.2272-10.117-13.118-26.858-27.183-55.064-46.26-12.802-8.6587-70.888-49.983-72.828-51.811-0.45549-0.42937 3.8195 0.53277 9.5 2.1381s13.331 3.3041 17.002 3.775c6.0025 0.77007 7.361 1.4027 13.5 6.2863 6.8719 5.4666 53.878 40.126 58.746 43.316 2.5085 1.6437 2.5853 1.6371 1.9029-0.16339-0.39109-1.0319-1.2443-2.4164-1.896-3.0766-0.65174-0.66025-1.492-3.2478-1.8672-5.75-0.37523-2.5022-0.99905-4.5495-1.3862-4.5495-0.93957 0-4.1734-9.2087-4.1734-11.884 0-1.1637-0.36568-2.1158-0.81261-2.1158-1.0749 0-5.1874-9.4817-5.1874-11.96 0-1.0674-0.7875-2.4358-1.75-3.0408-1.3105-0.82378 1.3268-0.99899 10.5-0.69758l12.25 0.4025v-5.7941-5.7941l28.75 0.14867c16.352 0.0846 33.709-0.36576 40.25-1.0443 6.325-0.65611 17.35-1.6683 24.5-2.2492s20.084-1.7508 28.742-2.5997c8.6581-0.84887 16.172-1.3922 16.698-1.2074 0.52574 0.18479-4.4605 6.0723-11.081 13.083-8.8258 9.3471-11.63 12.904-10.511 13.333 0.83895 0.32194 1.2806 1.2231 0.98152 2.0026-0.36615 0.95417 0.16388 1.4172 1.6222 1.4172 1.1913 0 1.8879 0.45 1.548 1-1.412 2.2846 2.9922 0.73682 8.3049-2.9187 9.2164-6.3415 32.344-25.871 31.359-26.48-0.49821-0.30792 3.4237-4.8872 8.7154-10.176l9.6212-9.6163-4 0.56969c-2.2 0.31333-6.4606 1.2564-9.4679 2.0957-6.0232 1.681-14.676 2.0372-15.199 0.62571-0.18774-0.50707-24.574 1.0787-55.833 3.6306l-55.5 4.5309-70.5-5.7184c-68.386-5.5469-79.401-6.7731-90.919-10.122l-5.4603-1.5874 4.4395-2.7345c13.22-8.143 31.18-12.586 63.439-15.695 105.37-10.153 98.221-9.6312 123.5-9.0198 12.925 0.3126 28.675 1.0554 35 1.6506 13.676 1.287 41.244 4.7366 44.615 5.5827 2.3388 0.58701 2.3848 0.46679 2.3905-6.2599 0.0193-22.425 8.8466-49.471 20.202-61.895 7.0245-7.6859 11.018-10.009 25.211-14.663 11.618-3.8101 12.484-3.9455 22.582-3.5293 18.114 0.74677 31.243 6.878 41.314 19.294 12.737 15.702 20.429 44.312 17.777 66.123-2.1016 17.285-7.9557 29.953-19.419 42.02-9.146 9.6283-17.634 15.088-31.673 20.374-10.4 3.9158-12.361 4.3326-20.5 4.3588-8.6834 0.0279-9.3166-0.12882-18-4.4558l-9-4.4848-24.5 17.572c-13.475 9.6648-31.25 22.23-39.5 27.922-28.758 19.842-43.099 31.777-53.551 44.568-3.2204 3.941-7.4069 7.9019-9.3035 8.8019-4.4574 2.1152-14.125 2.094-18.456-0.0404z" fill="#a8ea45"/>
<path d="m219.19 260.32c-1.8205-0.89717-5.2521-4.1494-7.6258-7.2272-10.117-13.118-26.858-27.183-55.064-46.26-12.802-8.6587-70.888-49.983-72.828-51.811-0.45549-0.42937 3.8195 0.53277 9.5 2.1381s13.331 3.3041 17.002 3.775c6.0025 0.77007 7.361 1.4027 13.5 6.2863 6.8719 5.4666 53.878 40.126 58.746 43.316 2.5085 1.6437 2.5853 1.6371 1.9029-0.16339-0.39109-1.0319-1.2443-2.4164-1.896-3.0766-0.65174-0.66025-1.492-3.2478-1.8672-5.75-0.37523-2.5022-0.99905-4.5495-1.3862-4.5495-0.93957 0-4.1734-9.2087-4.1734-11.884 0-1.1637-0.36568-2.1158-0.81261-2.1158-1.0749 0-5.1874-9.4817-5.1874-11.96 0-1.0674-0.7875-2.4358-1.75-3.0408-1.3105-0.82378 1.3268-0.99899 10.5-0.69758l12.25 0.4025v-5.7941-5.7941l28.75 0.14867c16.352 0.0846 33.709-0.36576 40.25-1.0443 6.325-0.65611 17.35-1.6683 24.5-2.2492s20.084-1.7508 28.742-2.5997c8.6581-0.84887 16.172-1.3922 16.698-1.2074 0.52574 0.18479-4.4605 6.0723-11.081 13.083-8.8258 9.3471-11.63 12.904-10.511 13.333 0.83895 0.32194 1.2806 1.2231 0.98152 2.0026-0.36615 0.95417 0.16388 1.4172 1.6222 1.4172 1.1913 0 1.8879 0.45 1.548 1-1.412 2.2846 2.9922 0.73682 8.3049-2.9187 9.5436-6.5667 32.328-25.881 31.288-26.524-0.53702-0.3319 2.8755-4.2317 7.5833-8.6662 6.1053-5.7508 9.0988-7.9218 10.44-7.5712 1.4822 0.38761 4.1196-2.555 12.471-13.914 5.825-7.9232 10.94-14.406 11.367-14.406 3.2525 0 9.7274 10.179 15.426 24.25 0.83524 2.0625 1.8791 3.7478 2.3196 3.745 0.44057-3e-3 2.109-1.0515 3.7076-2.3307l2.9065-2.3257-8.2891-14.919c-4.559-8.2056-8.4868-15.266-8.7285-15.69-0.78272-1.3732 5.9072-3.4769 19.954-6.2748 11.957-2.3815 13.75-2.9898 13.75-4.6638 0-1.3721-0.50272-1.7703-1.75-1.3862-5.2937 1.6303-27.738 6.5958-29.814 6.5958-2.2 0-2.436-0.41228-2.4338-4.25 3e-3 -4.9798 3.8714-20.018 7.3543-28.59l2.4388-6.002-2.9299-1.2136c-1.6114-0.66748-3.0612-1.0405-3.2217-0.829-0.16046 0.21153-1.2543 6.2346-2.4307 13.385-4.2383 25.76-4.8005 25.99-18.302 7.5-3.0122-4.125-7.0098-9.975-8.8835-13s-3.5324-5.6735-3.6859-5.8855c-0.15353-0.212-1.4561 0.38569-2.8945 1.3282-2.2043 1.4443-2.3897 1.8978-1.1796 2.8855 1.5205 1.2409 14.186 17.161 19.549 24.572 3.9426 5.4484 4.1464 8.7835 0.61888 10.125-5.947 2.2611-36.899 0.41804-38.626-2.2999-0.42798-0.67365-0.83828-2.7998-0.91177-4.7248l-0.13363-3.5-0.76337 3c-0.41985 1.65-0.81715 5.025-0.88288 7.5l-0.11952 4.5 18.782-0.3084c20.734-0.34044 24.22 0.2669 24.22 4.2195 0 3.5472-7.7898 14.408-13.687 19.084-12.316 9.7642-12.119 9.5788-9.0563 8.5109 4.3853-1.529 8.2457-3.7182 11.848-6.7192l3.345-2.7863-2.1337 3c-4.0081 5.6353-7.6255 8.2319-12.316 8.8406-2.475 0.32116-6.9606 1.2759-9.9679 2.1217-6.0106 1.6904-14.674 2.0537-15.199 0.63744-0.18774-0.50707-24.574 1.0787-55.833 3.6306l-55.5 4.5309-70.5-5.7184c-68.386-5.5469-79.401-6.7731-90.919-10.122l-5.4603-1.5874 4.4395-2.7345c13.22-8.143 31.18-12.586 63.439-15.695 105.37-10.153 98.221-9.6312 123.5-9.0198 12.925 0.3126 28.675 1.0554 35 1.6506 13.676 1.287 41.244 4.7366 44.615 5.5827 2.3388 0.58701 2.3848 0.46679 2.3905-6.2599 0.0193-22.425 8.8466-49.471 20.202-61.895 7.0245-7.6859 11.018-10.009 25.211-14.663 11.618-3.8101 12.484-3.9455 22.582-3.5293 18.114 0.74677 31.243 6.878 41.314 19.294 12.737 15.702 20.429 44.312 17.777 66.123-2.1016 17.285-7.9557 29.953-19.419 42.02-9.146 9.6283-17.634 15.088-31.673 20.374-10.4 3.9158-12.361 4.3326-20.5 4.3588-8.6834 0.0279-9.3166-0.12882-18-4.4558l-9-4.4848-24.5 17.572c-13.475 9.6648-31.25 22.23-39.5 27.922-28.758 19.842-43.099 31.777-53.551 44.568-3.2204 3.941-7.4069 7.9019-9.3035 8.8019-4.4574 2.1152-14.125 2.094-18.456-0.0404z" fill="#e56757"/>
<path d="m268.5 227.28c-8.8759-0.86834-11.5-1.4916-11.5-2.7313 0-0.97137-2.7012-1.5242-10-2.0466-5.5-0.39366-10-1.1172-10-1.6079s-5.175-0.89213-11.5-0.89213c-9.146 0-11.5-0.28427-11.5-1.3887 0-0.81003-1.5441-1.6784-3.7054-2.0838-3.4138-0.64044-7.2946-3.6625-7.2946-5.6804 0-0.46584-1.0257-0.84699-2.2792-0.84699s-2.9279-0.9-3.7208-2-2.0172-2-2.7208-2-1.2792-0.675-1.2792-1.5-0.675-1.5-1.5-1.5-1.5-0.675-1.5-1.5c0-0.83864-0.89127-1.5-2.0214-1.5-1.1858 0-2.4923-1.0335-3.1605-2.5-0.6265-1.375-1.9106-2.5-2.8536-2.5-1.105 0-1.9278-1.0665-2.3145-3-0.42963-2.1482-1.175-3-2.625-3-1.5833 0-2.025-0.65432-2.025-3 0-1.65-0.36568-3-0.81261-3-1.0749 0-5.1874-9.4817-5.1874-11.96 0-1.0674-0.7875-2.3994-1.75-2.96-1.3576-0.7907-0.61747-1.0261 3.3001-1.0497 4.6151-0.0278 23.489 1.1915 37.7 2.4356l5.75 0.50336 8e-3 -6.7347 8e-3 -6.7347 16.721-0.16767c9.1966-0.0922 21.906-0.64674 28.242-1.2323 6.3364-0.58555 17.371-1.5418 24.521-2.1249 7.15-0.58315 20.084-1.7548 28.742-2.6037 8.6581-0.84887 16.172-1.3922 16.698-1.2074 0.52574 0.18479-4.4605 6.0723-11.081 13.083-8.8258 9.3471-11.63 12.904-10.511 13.333 0.83895 0.32194 1.2806 1.2231 0.98152 2.0026-0.36615 0.95417 0.16388 1.4172 1.6222 1.4172 1.1913 0 1.8879 0.45 1.548 1-1.412 2.2846 2.9922 0.73682 8.3049-2.9187 9.5436-6.5667 32.328-25.881 31.288-26.524-0.53702-0.3319 2.8755-4.2317 7.5833-8.6662 6.1053-5.7508 9.0988-7.9218 10.44-7.5712 1.4822 0.38761 4.1196-2.555 12.471-13.914 5.8251-7.9232 10.94-14.406 11.368-14.406 3.2525 0 9.7274 10.179 15.426 24.25 0.83524 2.0625 1.8791 3.7478 2.3196 3.745 0.44057-3e-3 2.109-1.0515 3.7076-2.3307l2.9065-2.3257-8.2891-14.919c-4.559-8.2056-8.4868-15.266-8.7285-15.69-0.78272-1.3732 5.9072-3.4769 19.954-6.2748 11.957-2.3815 13.75-2.9898 13.75-4.6638 0-1.3721-0.50272-1.7703-1.75-1.3862-5.2937 1.6303-27.738 6.5958-29.814 6.5958-2.2 0-2.436-0.41228-2.4338-4.25 3e-3 -4.9798 3.8714-20.018 7.3543-28.59l2.4388-6.002-2.9299-1.2136c-1.6114-0.66748-3.0612-1.0405-3.2217-0.829-0.16046 0.21153-1.2543 6.2346-2.4307 13.385-4.2383 25.76-4.8005 25.99-18.302 7.5-3.0122-4.125-7.0098-9.975-8.8835-13s-3.5324-5.6735-3.6859-5.8855c-0.15353-0.212-1.4561 0.38569-2.8945 1.3282-2.2043 1.4443-2.3897 1.8978-1.1796 2.8855 1.5205 1.2409 14.186 17.161 19.549 24.572 3.9426 5.4484 4.1464 8.7835 0.61888 10.125-5.947 2.2611-36.899 0.41804-38.626-2.2999-0.42798-0.67365-0.83828-2.7998-0.91177-4.7248l-0.13363-3.5-0.76337 3c-0.41985 1.65-0.81715 5.025-0.88288 7.5l-0.11952 4.5 18.782-0.3084c20.734-0.34044 24.22 0.2669 24.22 4.2195 0 3.5472-7.7898 14.408-13.687 19.084-12.316 9.7642-12.119 9.5788-9.0563 8.5109 4.3853-1.529 8.2457-3.7182 11.848-6.7192l3.345-2.7863-2.1337 3c-4.0081 5.6353-7.6255 8.2319-12.316 8.8406-2.475 0.32116-6.9606 1.2759-9.9679 2.1217-6.0136 1.6912-14.675 2.0535-15.199 0.63583-0.18811-0.50897-24.295 1.0717-55.333 3.6281l-55 4.53-45-3.6733c-83.795-6.8402-101.86-8.4708-106.69-9.6279l-4.8121-1.1544v-4.7272-4.7272l7.75-2.6403c16.369-5.5767 23.232-6.695 65.75-10.714 23.1-2.1836 51.45-4.9303 63-6.1039 30.681-3.1174 63.586-2.1241 105.37 3.1809 8.451 1.0731 16.438 2.2203 17.75 2.5495 2.3388 0.58701 2.3848 0.46679 2.3905-6.2599 0.0193-22.425 8.8466-49.471 20.202-61.895 7.0245-7.6859 11.018-10.009 25.211-14.663 11.618-3.8101 12.484-3.9455 22.582-3.5293 18.114 0.74677 31.243 6.878 41.314 19.294 12.737 15.702 20.429 44.312 17.777 66.123-2.1016 17.285-7.9557 29.953-19.419 42.02-9.146 9.6283-17.634 15.088-31.673 20.374-10.4 3.9158-12.361 4.3326-20.5 4.3588-8.6834 0.0279-9.3166-0.12882-18-4.4558l-9-4.4848-24.5 17.572c-13.475 9.6648-31.25 22.225-39.5 27.911s-17.7 12.427-21 14.98c-7.3702 5.7009-7.3168 5.6751-11 5.3148zm-93.5-16.278c0-0.5701-2.968-1-6.904-1-6.8212 0-7.0162-0.0757-16.25-6.3075-9.9631-6.724-66.672-47.246-68.336-48.83-0.54477-0.51866 1.0242-0.23219 3.4866 0.6366 6.408 2.2609 18.601 5.2115 24.933 6.0335 4.6873 0.60851 6.5994 1.621 14 7.4135 4.7142 3.6898 13.742 10.499 20.061 15.132 6.3194 4.6325 17.289 12.81 24.377 18.173l12.887 9.75h-4.1267c-2.2697 0-4.1267-0.45-4.1267-1z" fill="#93d33a"/>
<path d="m268.5 227.28c-8.8759-0.86834-11.5-1.4916-11.5-2.7313 0-0.97137-2.7012-1.5242-10-2.0466-5.5-0.39366-10-1.1172-10-1.6079s-5.175-0.89213-11.5-0.89213c-9.146 0-11.5-0.28427-11.5-1.3887 0-0.81003-1.5441-1.6784-3.7054-2.0838-3.4138-0.64044-7.2946-3.6625-7.2946-5.6804 0-0.46584-1.0257-0.84699-2.2792-0.84699s-2.9279-0.9-3.7208-2-2.0172-2-2.7208-2-1.2792-0.675-1.2792-1.5-0.675-1.5-1.5-1.5-1.5-0.675-1.5-1.5c0-0.83864-0.89127-1.5-2.0214-1.5-1.1858 0-2.4923-1.0335-3.1605-2.5-0.6265-1.375-1.9106-2.5-2.8536-2.5-1.105 0-1.9278-1.0665-2.3145-3-0.42963-2.1482-1.175-3-2.625-3-1.5833 0-2.025-0.65432-2.025-3 0-1.65-0.36568-3-0.81261-3-1.0749 0-5.1874-9.4817-5.1874-11.96 0-1.0674-0.7875-2.3994-1.75-2.96-1.3576-0.7907-0.61747-1.0261 3.3001-1.0497 4.6151-0.0278 23.489 1.1915 37.7 2.4356l5.75 0.50336 8e-3 -6.7347 8e-3 -6.7347 16.721-0.16767c9.1966-0.0922 21.906-0.64674 28.242-1.2323 6.3364-0.58555 17.371-1.5418 24.521-2.1249 7.15-0.58315 20.084-1.7548 28.742-2.6037 8.6581-0.84887 16.172-1.3922 16.698-1.2074 0.52574 0.18479-4.4605 6.0723-11.081 13.083-8.8258 9.3471-11.63 12.904-10.511 13.333 0.83895 0.32194 1.2806 1.2231 0.98152 2.0026-0.36615 0.95417 0.16388 1.4172 1.6222 1.4172 1.1913 0 1.8879 0.45 1.548 1-1.412 2.2846 2.9922 0.73682 8.3049-2.9187 10.616-7.3049 32.314-25.89 31.101-26.639-0.81743-0.50519-0.66349-0.99836 0.51801-1.6596 1.3009-0.72804 2.9693 0.12723 7.3784 3.7824 3.1336 2.5978 9.0724 6.3459 13.197 8.3292 6.4884 3.1196 8.6684 3.6526 16.163 3.9522 10.728 0.42879 17.096-1.2795 25.884-6.9432 14.99-9.6618 25.759-24.452 29.556-40.592 2.1386-9.0912 1.3906-28.477-1.5552-40.311-7.819-31.411-27.655-47.977-56.047-46.807-7.7139 0.31787-10.628 0.90991-15.5 3.1489-6.6118 3.0387-14.03 9.7218-18.492 16.658-4.2469 6.6034-9.6128 21.243-11.551 31.515-1.9566 10.368-1.5581 32.906 0.71312 40.336 1.2375 4.0481 1.3056 3.4838 0.98049-8.1237-0.46604-16.64-1.8578-15.727 23.949-15.727 23.575 0 23.927 0.15018 19.578 8.3494-3.663 6.9069-7.7807 11.154-18.048 18.613-4.737 3.4416-8.4022 6.598-8.1451 7.0141 0.54325 0.879-9.3526 3.0233-13.952 3.0233-1.7233 0-3.5607-0.41015-4.0832-0.91144-0.57358-0.55031-22.743 0.88725-55.95 3.6281l-55 4.5395-45-3.6733c-83.795-6.8402-101.86-8.4708-106.69-9.6279l-4.8121-1.1544v-4.7272-4.7272l7.75-2.6403c16.369-5.5767 23.232-6.695 65.75-10.714 23.1-2.1836 51.45-4.9303 63-6.1039 30.681-3.1174 63.586-2.1241 105.37 3.1809 8.451 1.0731 16.37 2.2032 17.598 2.5114 2.1773 0.54647 2.2502 0.29134 2.9315-10.26 1.6954-26.256 10.845-50.173 23.602-61.698 4.2565-3.8455 15.135-9.6198 18.126-9.6212 0.89259-4.34e-4 3.8176-0.97598 6.5-2.1679 3.5918-1.596 7.5126-2.2829 14.877-2.6065 36.204-1.5909 59.557 24.276 64 70.893 1.3747 14.421-3.5125 34.065-11.515 46.282-5.1283 7.8296-15.462 18.009-23.503 23.153-7.9231 5.0684-29.553 12.446-36.49 12.446-5.4536 0-14.639-2.7003-21.402-6.2919l-6.0898-3.2339-24.5 17.585c-13.475 9.6719-31.25 22.238-39.5 27.924s-17.7 12.427-21 14.98c-7.3702 5.7009-7.3168 5.6751-11 5.3148zm-93.5-16.278c0-0.5701-2.968-1-6.904-1-6.8212 0-7.0162-0.0757-16.25-6.3075-9.9631-6.724-66.672-47.246-68.336-48.83-0.54477-0.51866 1.0242-0.23219 3.4866 0.6366 6.408 2.2609 18.601 5.2115 24.933 6.0335 4.6873 0.60851 6.5994 1.621 14 7.4135 4.7142 3.6898 13.742 10.499 20.061 15.132 6.3194 4.6325 17.289 12.81 24.377 18.173l12.887 9.75h-4.1267c-2.2697 0-4.1267-0.45-4.1267-1zm196.21-55.292c-6.69-3.8599-7.2512-4.4328-6.7819-6.9237 0.85524-4.5388 7.4926-14.699 27.212-41.655 0.94209-1.2878 5.2433 1.4202 7.2735 4.5794 3.0207 4.7005 15.149 31.885 15.797 35.406 0.37475 2.0378-0.14687 3.0576-2.3628 4.6194-5.5527 3.9136-11.266 6.237-16.52 6.7176-18.189 1.6641-16.687 1.8316-24.618-2.7441zm51.693-18.33c-0.7402-0.89189-6.1123-10.004-11.938-20.25-10.511-18.486-10.575-18.638-8.3405-19.877 3.0414-1.6863 30.297-6.9733 33.168-6.4338 3.6193 0.68022 5.2111 5.0695 5.216 14.383 4e-3 7.4002-0.44173 9.4111-4.1122 18.555-5.2266 13.021-10.352 18.01-13.993 13.623zm-55.334-8.2688c2.236-1.0156 5.836-3.3414 8-5.1684 3.3167-2.8002 3.1553-2.5068-1.0278 1.8684-3.8724 4.0502-5.6296 5.1856-8 5.1684-3.0208-0.0218-3.0152-0.0322 1.0278-1.8684zm-10.501-36.462c-8.0655-1.0969-8.4687-1.2731-9.1964-4.0201-0.64658-2.4407 1.8739-20.736 3.6785-26.701 0.9788-3.2352 4.5116-5.9263 7.78-5.9263 4.2994 0 7.5572 2.9488 18.229 16.5 14.858 18.867 14.955 20.493 1.2254 20.514-5.1048 0.0075-10.181 0.18624-11.281 0.39718-1.1 0.21094-5.7959-0.13271-10.435-0.76366zm43.3-1.1394c-1.4256-3.7152 5.3716-28.19 10.765-38.762 4.5529-8.9244 10.221-6.8058 19.214 7.1816 3.2044 4.9841 6.3249 10.384 6.9345 11.999 1.5321 4.0591-0.084 9.8678-3.4379 12.357-2.2389 1.6614-27.622 8.6452-31.621 8.7002-0.70477 0.0097-1.5391-0.65388-1.854-1.4746zm-14.359-15c-3.8558-5.2207-9.4683-13.447-12.472-18.28-6.0325-9.7062-6.2292-11.608-1.7048-16.484 3.1998-3.4486 7.7191-4.732 16.671-4.7344 8.1892-0.0022 13.034 2.2852 14.135 6.674 1.1659 4.6454-2.8902 33.331-5.6655 40.067-0.50986 1.2375-1.608 2.25-2.4403 2.25s-4.668-4.2715-8.5239-9.4923z" fill="#d76654"/>
<path d="m268.5 227.27c-9.082-0.87279-11.5-1.4687-11.5-2.834 0-0.86798-0.99176-1.4387-2.5-1.4387-1.5556 0-2.5-0.56667-2.5-1.5s-0.94444-1.5-2.5-1.5c-1.375 0-2.5-0.45-2.5-1s-1.125-1-2.5-1-2.5-0.45-2.5-1-1.125-1-2.5-1-2.5-0.45-2.5-1-1.8-1-4-1c-2.8889 0-4-0.41667-4-1.5 0-0.93333-0.94444-1.5-2.5-1.5s-2.5-0.56667-2.5-1.5-0.94444-1.5-2.5-1.5c-1.375 0-2.5-0.45-2.5-1s-1.125-1-2.5-1c-1.5556 0-2.5-0.56667-2.5-1.5 0-0.825-0.81793-1.5-1.8176-1.5-1.3652 0-2.3889-1.7425-4.1125-7-1.2622-3.85-2.6585-7-3.1029-7s-1.1146-1.3958-1.4893-3.1018-1.6085-4.0291-2.7419-5.1624c-1.3121-1.3121-2.2298-3.8216-2.5265-6.9091l-0.46588-4.8486 5.8783 0.46652c3.233 0.25658 10.266 0.73866 15.628 1.0713l9.75 0.60476v-6.9542-6.9542l8.75-0.6196c44.324-3.1387 77.487-5.8986 87.197-7.2569l4.4474-0.62212-3.0867 3.8931c-6.2231 7.8488-37.218 37.198-50.527 47.845-10.423 8.3378-13.439 11.255-12.635 12.224 1.5076 1.8166 3.3674 0.72932 33.854-19.792 27.575-18.561 54.708-39.713 54.223-42.271-0.61484-3.2499 2.1655-2.5354 7.5706 1.9454 3.1383 2.6016 9.081 6.353 13.206 8.3362 6.4884 3.1196 8.6684 3.6526 16.163 3.9522 10.728 0.42879 17.096-1.2795 25.884-6.9432 14.99-9.6618 25.759-24.452 29.556-40.592 2.1384-9.0912 1.3904-28.477-1.5554-40.311-7.819-31.411-27.655-47.977-56.047-46.807-7.7139 0.31787-10.628 0.90991-15.5 3.1489-6.6118 3.0387-14.03 9.7218-18.492 16.658-4.2469 6.6034-9.6128 21.243-11.551 31.515-1.9566 10.368-1.5581 32.906 0.71312 40.336 1.2375 4.0481 1.3056 3.4838 0.98049-8.1237-0.46604-16.64-1.8578-15.727 23.949-15.727 23.575 0 23.927 0.15018 19.578 8.3494-3.663 6.9069-7.7807 11.154-18.048 18.613-4.737 3.4416-8.4022 6.598-8.1451 7.0141 0.54325 0.879-9.3526 3.0233-13.952 3.0233-1.7233 0-3.5607-0.42465-4.0832-0.94367-0.59576-0.59179-14.374 0.14128-36.95 1.9659-19.8 1.6003-45 3.6158-56 4.4789l-20 1.5693-72.638-5.9925c-39.951-3.2959-74.713-6.5152-77.25-7.1539l-4.6123-1.1614v-4.7082-4.7082l7.75-2.6403c17.19-5.8564 22.4-6.6201 86.75-12.716 66.013-6.2533 77.734-6.8123 104.31-4.9745 17.467 1.2078 51.046 4.7883 56.687 6.0448 2.2 0.48995 4.4962 0.90182 5.1027 0.91526 0.69481 0.0154 1.3595-3.952 1.7968-10.726 1.6906-26.183 10.854-50.116 23.597-61.628 4.2565-3.8455 15.135-9.6198 18.126-9.6212 0.89259-4.34e-4 3.8176-0.97598 6.5-2.1679 3.5918-1.596 7.5126-2.2829 14.877-2.6065 36.204-1.5909 59.557 24.276 64 70.893 1.3747 14.421-3.5125 34.065-11.515 46.282-5.1283 7.8296-15.462 18.009-23.503 23.153-7.9231 5.0684-29.553 12.446-36.49 12.446-5.4747 0-14.728-2.7259-21.55-6.3483l-6.157-3.2694-22.893 16.444c-12.591 9.0441-31.668 22.536-42.393 29.982-10.725 7.4461-21.3 14.937-23.5 16.646-2.8337 2.2012-4.8748 3.0232-7 2.8189zm102.71-71.565c-6.69-3.8599-7.2512-4.4328-6.7819-6.9237 0.85524-4.5388 7.4926-14.699 27.212-41.655 0.94209-1.2878 5.2433 1.4202 7.2735 4.5794 3.0207 4.7005 15.149 31.885 15.797 35.406 0.37475 2.0378-0.14687 3.0576-2.3628 4.6194-5.5527 3.9136-11.266 6.237-16.52 6.7176-18.189 1.6641-16.687 1.8316-24.618-2.7441zm51.693-18.33c-0.7402-0.89189-6.1123-10.004-11.938-20.25-10.511-18.486-10.575-18.638-8.3405-19.877 3.0414-1.6863 30.297-6.9733 33.168-6.4338 3.6193 0.68022 5.2111 5.0695 5.216 14.383 4e-3 7.4002-0.44173 9.4111-4.1122 18.555-5.2266 13.021-10.352 18.01-13.993 13.623zm-55.334-8.2688c2.236-1.0156 5.836-3.3414 8-5.1684 3.3167-2.8002 3.1553-2.5068-1.0278 1.8684-3.8724 4.0502-5.6296 5.1856-8 5.1684-3.0208-0.0218-3.0152-0.0322 1.0278-1.8684zm-10.501-36.462c-8.0655-1.0969-8.4687-1.2731-9.1964-4.0201-0.64658-2.4407 1.8739-20.736 3.6785-26.701 0.9788-3.2352 4.5116-5.9263 7.78-5.9263 4.2994 0 7.5572 2.9488 18.229 16.5 14.858 18.867 14.955 20.493 1.2254 20.514-5.1048 0.0075-10.181 0.18624-11.281 0.39718-1.1 0.21094-5.7959-0.13271-10.435-0.76366zm43.3-1.1394c-1.4256-3.7152 5.3716-28.19 10.765-38.762 4.5529-8.9244 10.221-6.8058 19.214 7.1816 3.2044 4.9841 6.3249 10.384 6.9345 11.999 1.5321 4.0591-0.084 9.8678-3.4379 12.357-2.2389 1.6614-27.622 8.6452-31.621 8.7002-0.70477 0.0097-1.5391-0.65388-1.854-1.4746zm-14.359-15c-3.8558-5.2207-9.4683-13.447-12.472-18.28-6.0325-9.7062-6.2292-11.608-1.7048-16.484 3.1998-3.4486 7.7191-4.732 16.671-4.7344 8.1892-0.0022 13.034 2.2852 14.135 6.674 1.1659 4.6454-2.8902 33.331-5.6655 40.067-0.50986 1.2375-1.608 2.25-2.4403 2.25s-4.668-4.2715-8.5239-9.4923z" fill="#d65946"/>
<path d="m300 202c0-0.55-1.125-1-2.5-1s-2.5-0.42011-2.5-0.93358-1.1898-1.076-2.644-1.25c-2.2447-0.26864-0.0676-2.0893 14.417-12.056 20.901-14.382 45.371-34.221 44.621-36.175-1.268-3.3044 2.1252-2.3997 7.3999 1.973 3.1383 2.6016 9.081 6.353 13.206 8.3362 6.4884 3.1196 8.6684 3.6526 16.163 3.9522 10.728 0.42879 17.096-1.2795 25.884-6.9432 14.99-9.6618 25.759-24.452 29.556-40.592 2.1384-9.0912 1.3904-28.477-1.5554-40.311-7.819-31.411-27.655-47.977-56.047-46.807-7.7139 0.31787-10.628 0.90991-15.5 3.1489-6.6118 3.0387-14.03 9.7218-18.492 16.658-4.2469 6.6034-9.6128 21.243-11.551 31.515-1.9566 10.368-1.5581 32.906 0.71312 40.336 1.2375 4.0481 1.3056 3.4838 0.98049-8.1237-0.46604-16.64-1.8578-15.727 23.949-15.727 23.575 0 23.927 0.15018 19.578 8.3494-3.663 6.9069-7.7807 11.154-18.048 18.613-4.737 3.4416-8.4022 6.598-8.1451 7.0141 0.54325 0.879-9.3526 3.0233-13.952 3.0233-1.7233 0-3.5898-0.45656-4.1478-1.0146-0.68612-0.68612-18.974 0.45139-56.489 3.5135 0 0-36.921 4.5318-55.474 4.5281-24.569-5e-3 -73.461-6.0254-73.461-6.0254-40.404-3.314-75.373-6.5248-77.711-7.1352-4.2406-1.1073-4.25-1.1201-4.25-5.815v-4.7053l7.75-2.6403c17.213-5.864 22.382-6.6215 86.75-12.712 40.639-3.8452 67.792-5.9643 76.5-5.9703 20.06-0.01394 56.201 2.9084 80.426 6.5033 5.4594 0.81014 10.006 1.473 10.103 1.473 0.0971 0 0.48894-4.8375 0.87072-10.75 1.6906-26.183 10.854-50.116 23.597-61.628 4.2565-3.8455 15.135-9.6198 18.126-9.6212 0.89259-4.34e-4 3.8176-0.97598 6.5-2.1679 3.5918-1.596 7.5126-2.2829 14.877-2.6065 36.204-1.5909 59.557 24.276 64 70.893 1.3747 14.421-3.5125 34.065-11.515 46.282-5.1283 7.8296-15.462 18.009-23.503 23.153-7.9231 5.0684-29.553 12.446-36.49 12.446-5.4797 0-14.73-2.727-21.569-6.3586l-6.1764-3.2797-29.12 20.819c-22.391 16.008-29.814 20.819-32.123 20.819-1.652 0-3.0037-0.45-3.0037-1zm-19-7.8776c0-0.61734-1.125-1.1224-2.5-1.1224s-2.5-0.45-2.5-1-1.125-1-2.5-1-2.5-0.45-2.5-1-1.125-1-2.5-1-2.5-0.45-2.5-1-1.125-1-2.5-1-2.5-0.45-2.5-1-0.9-1-2-1-2-0.45-2-1-1.125-1-2.5-1-2.5-0.45-2.5-1-1.125-1-2.5-1c-1.5556 0-2.5-0.56667-2.5-1.5s-0.94444-1.5-2.5-1.5c-1.375 0-2.5-0.45-2.5-1s-1.125-1-2.5-1-2.5-0.45-2.5-1-1.125-1-2.5-1-2.5-0.42243-2.5-0.93873c0-1.0239 1.5059-1.2563 23-3.55 7.975-0.85103 15.962-1.7846 17.75-2.0746l3.25-0.52728v-6.3411-6.3411l4.25-0.57062c2.3375-0.31384 7.85-0.84402 12.25-1.1782 4.4-0.33417 14.253-1.2629 21.896-2.0638s14.069-1.2832 14.28-1.0717c0.72435 0.72435-27.641 29.411-35.912 36.319-11.367 9.494-11.764 9.7792-11.764 8.4605zm90.206-38.414c-6.69-3.8599-7.2512-4.4328-6.7819-6.9237 0.85524-4.5388 7.4926-14.699 27.212-41.655 0.94209-1.2878 5.2433 1.4202 7.2735 4.5794 3.0207 4.7005 15.149 31.885 15.797 35.406 0.37475 2.0378-0.14687 3.0576-2.3628 4.6194-5.5527 3.9136-11.266 6.237-16.52 6.7176-18.189 1.6641-16.687 1.8316-24.618-2.7441zm51.693-18.33c-0.7402-0.89189-6.1123-10.004-11.938-20.25-10.511-18.486-10.575-18.638-8.3405-19.877 3.0414-1.6863 30.297-6.9733 33.168-6.4338 3.6193 0.68022 5.2111 5.0695 5.216 14.383 4e-3 7.4002-0.44173 9.4111-4.1122 18.555-5.2266 13.021-10.352 18.01-13.993 13.623zm-55.334-8.2688c2.236-1.0156 5.836-3.3414 8-5.1684 3.3167-2.8002 3.1553-2.5068-1.0278 1.8684-3.8724 4.0502-5.6296 5.1856-8 5.1684-3.0208-0.0218-3.0152-0.0322 1.0278-1.8684zm-10.501-36.462c-8.0655-1.0969-8.4687-1.2731-9.1964-4.0201-0.64658-2.4407 1.8739-20.736 3.6785-26.701 0.9788-3.2352 4.5116-5.9263 7.78-5.9263 4.2994 0 7.5572 2.9488 18.229 16.5 14.858 18.867 14.955 20.493 1.2254 20.514-5.1048 0.0075-10.181 0.18624-11.281 0.39718-1.1 0.21094-5.7959-0.13271-10.435-0.76366zm43.3-1.1394c-1.4256-3.7152 5.3716-28.19 10.765-38.762 4.5529-8.9244 10.221-6.8058 19.214 7.1816 3.2044 4.9841 6.3249 10.384 6.9345 11.999 1.5321 4.0591-0.084 9.8678-3.4379 12.357-2.2389 1.6614-27.622 8.6452-31.621 8.7002-0.70477 0.0097-1.5391-0.65388-1.854-1.4746zm-14.359-15c-3.8558-5.2207-9.4683-13.447-12.472-18.28-6.0325-9.7062-6.2292-11.608-1.7048-16.484 3.1998-3.4486 7.7191-4.732 16.671-4.7344 8.1892-0.0022 13.034 2.2852 14.135 6.674 1.1659 4.6454-2.8902 33.331-5.6655 40.067-0.50986 1.2375-1.608 2.25-2.4403 2.25s-4.668-4.2715-8.5239-9.4923z" fill="#e64a38"/>
<path d="m300 202c0-0.55-1.125-1-2.5-1s-2.5-0.42011-2.5-0.93358-1.1898-1.076-2.644-1.25c-2.2447-0.26864-0.0676-2.0893 14.417-12.056 20.901-14.382 45.371-34.221 44.621-36.175-1.268-3.3044 2.1252-2.3997 7.3999 1.973 3.1383 2.6016 9.081 6.353 13.206 8.3362 6.4884 3.1196 8.6684 3.6526 16.163 3.9522 10.728 0.42879 17.096-1.2795 25.884-6.9432 14.99-9.6618 25.759-24.452 29.556-40.592 2.1384-9.0912 1.3904-28.477-1.5554-40.311-7.819-31.411-27.655-47.977-56.047-46.807-7.7139 0.31787-10.628 0.90991-15.5 3.1489-6.6118 3.0387-14.03 9.7218-18.492 16.658-4.2469 6.6034-9.6128 21.243-11.551 31.515-1.9566 10.368-1.5581 32.906 0.71312 40.336 1.2375 4.0481 1.3056 3.4838 0.98049-8.1237-0.46604-16.64-1.8578-15.727 23.949-15.727 23.575 0 23.927 0.15018 19.578 8.3494-3.663 6.9069-7.7807 11.154-18.048 18.613-4.737 3.4416-8.4022 6.598-8.1451 7.0141 0.54325 0.879-9.3526 3.0233-13.952 3.0233-1.7233 0-3.5898-0.45656-4.1478-1.0146-0.68612-0.68612-19.056 0.45801-56.74 3.534l-55.725 4.5486-17.51-1.534c-9.6307-0.84368-17.713-1.534-17.96-1.534s-0.44997-8.5414-0.44997-18.981c0-18.881 0.0119-18.983 2.25-19.442 6.3447-1.3014 38.098-3.5757 49.836-3.5694 20.09 0.0107 56.253 2.9455 80.34 6.5199 5.4594 0.81014 10.006 1.473 10.103 1.473 0.0971 0 0.48894-4.8375 0.87072-10.75 1.6906-26.183 10.854-50.116 23.597-61.628 4.2565-3.8455 15.135-9.6198 18.126-9.6212 0.89259-4.34e-4 3.8176-0.97598 6.5-2.1679 3.5918-1.596 7.5126-2.2829 14.877-2.6065 36.204-1.5909 59.557 24.276 64 70.893 1.3747 14.421-3.5125 34.065-11.515 46.282-5.1283 7.8296-15.462 18.009-23.503 23.153-7.9231 5.0684-29.553 12.446-36.49 12.446-5.4797 0-14.73-2.727-21.569-6.3586l-6.1764-3.2797-29.12 20.819c-22.391 16.008-29.814 20.819-32.123 20.819-1.652 0-3.0037-0.45-3.0037-1zm-19-7.8776c0-0.61734-1.125-1.1224-2.5-1.1224s-2.5-0.45-2.5-1-1.125-1-2.5-1-2.5-0.45-2.5-1-1.125-1-2.5-1-2.5-0.45-2.5-1-1.125-1-2.5-1-2.5-0.45-2.5-1-0.9-1-2-1-2-0.45-2-1-1.125-1-2.5-1-2.5-0.45-2.5-1-1.125-1-2.5-1c-1.5556 0-2.5-0.56667-2.5-1.5s-0.94444-1.5-2.5-1.5c-1.375 0-2.5-0.45-2.5-1s-1.125-1-2.5-1-2.5-0.45-2.5-1-1.125-1-2.5-1-2.5-0.42243-2.5-0.93873c0-1.0239 1.5059-1.2563 23-3.55 7.975-0.85103 15.962-1.7846 17.75-2.0746l3.25-0.52728v-6.3411-6.3411l4.25-0.57062c2.3375-0.31384 7.85-0.84402 12.25-1.1782 4.4-0.33417 14.253-1.2629 21.896-2.0638s14.069-1.2832 14.28-1.0717c0.72435 0.72435-27.641 29.411-35.912 36.319-11.367 9.494-11.764 9.7792-11.764 8.4605zm90.206-38.414c-6.69-3.8599-7.2512-4.4328-6.7819-6.9237 0.85524-4.5388 7.4926-14.699 27.212-41.655 0.94209-1.2878 5.2433 1.4202 7.2735 4.5794 3.0207 4.7005 15.149 31.885 15.797 35.406 0.37475 2.0378-0.14687 3.0576-2.3628 4.6194-5.5527 3.9136-11.266 6.237-16.52 6.7176-18.189 1.6641-16.687 1.8316-24.618-2.7441zm51.693-18.33c-0.7402-0.89189-6.1123-10.004-11.938-20.25-10.511-18.486-10.575-18.638-8.3405-19.877 3.0414-1.6863 30.297-6.9733 33.168-6.4338 3.6193 0.68022 5.2111 5.0695 5.216 14.383 4e-3 7.4002-0.44173 9.4111-4.1122 18.555-5.2266 13.021-10.352 18.01-13.993 13.623zm-55.334-8.2688c2.236-1.0156 5.836-3.3414 8-5.1684 3.3167-2.8002 3.1553-2.5068-1.0278 1.8684-3.8724 4.0502-5.6296 5.1856-8 5.1684-3.0208-0.0218-3.0152-0.0322 1.0278-1.8684zm-10.501-36.462c-8.0655-1.0969-8.4687-1.2731-9.1964-4.0201-0.64658-2.4407 1.8739-20.736 3.6785-26.701 0.9788-3.2352 4.5116-5.9263 7.78-5.9263 4.2994 0 7.5572 2.9488 18.229 16.5 14.858 18.867 14.955 20.493 1.2254 20.514-5.1048 0.0075-10.181 0.18624-11.281 0.39718-1.1 0.21094-5.7959-0.13271-10.435-0.76366zm43.3-1.1394c-1.4256-3.7152 5.3716-28.19 10.765-38.762 4.5529-8.9244 10.221-6.8058 19.214 7.1816 3.2044 4.9841 6.3249 10.384 6.9345 11.999 1.5321 4.0591-0.084 9.8678-3.4379 12.357-2.2389 1.6614-27.622 8.6452-31.621 8.7002-0.70477 0.0097-1.5391-0.65388-1.854-1.4746zm-14.359-15c-3.8558-5.2207-9.4683-13.447-12.472-18.28-6.0325-9.7062-6.2292-11.608-1.7048-16.484 3.1998-3.4486 7.7191-4.732 16.671-4.7344 8.1892-0.0022 13.034 2.2852 14.135 6.674 1.1659 4.6454-2.8902 33.331-5.6655 40.067-0.50986 1.2375-1.608 2.25-2.4403 2.25s-4.668-4.2715-8.5239-9.4923z" fill="#87b726"/>
<path d="m300 202c0-0.55-1.125-1-2.5-1s-2.5-0.42011-2.5-0.93358-1.1898-1.076-2.644-1.25c-2.2447-0.26864-0.0676-2.0893 14.417-12.056 20.901-14.382 45.371-34.221 44.621-36.175-1.2313-3.2088 1.7493-2.2058 7.7217 2.5983 22.23 17.882 42.408 17.02 65.357-2.7925 7.0173-6.0583 12.02-13.264 18.387-26.487 9.056-18.805 9.9721-28.484 4.6732-49.372-3.0489-12.019-5.2337-16.118-12.947-24.288-14.241-15.085-36.187-23.434-53.701-20.431-8.2859 1.4209-14.769 4.5435-24.734 11.913-6.8569 5.0709-7.2386 5.2313-5.5181 2.3188 3.2224-5.4551 10.382-12.969 14.856-15.591 4.2508-2.4911 14.212-6.244 23.98-9.0348 6.5709-1.8773 19.25-1.8027 26.888 0.15817 22.313 5.7287 36.378 21.632 43.706 49.423 8.352 31.671 1.3165 60.409-19.552 79.863-3.7541 3.4998-9.1667 7.8608-12.028 9.6912-5.5794 3.5691-19.008 8.6823-29.342 11.172-8.6118 2.0752-17.055 0.67954-27.259-4.5058l-7.6182-3.8714-29.128 20.825c-22.397 16.013-29.822 20.825-32.132 20.825-1.652 0-3.0037-0.45-3.0037-1zm-19-7.8776c0-0.61734-1.125-1.1224-2.5-1.1224s-2.5-0.45-2.5-1-1.125-1-2.5-1-2.5-0.45-2.5-1-1.125-1-2.5-1-2.5-0.45-2.5-1-1.125-1-2.5-1-2.5-0.45-2.5-1-0.9-1-2-1-2-0.45-2-1-1.125-1-2.5-1-2.5-0.45-2.5-1-1.125-1-2.5-1c-1.5556 0-2.5-0.56667-2.5-1.5s-0.94444-1.5-2.5-1.5c-1.375 0-2.5-0.45-2.5-1s-1.125-1-2.5-1-2.5-0.45-2.5-1-1.125-1-2.5-1-2.5-0.42243-2.5-0.93873c0-1.0239 1.5059-1.2563 23-3.55 7.975-0.85103 15.962-1.7846 17.75-2.0746l3.25-0.52728v-6.3411-6.3411l4.25-0.57062c2.3375-0.31384 7.85-0.84402 12.25-1.1782 4.4-0.33417 14.253-1.2629 21.896-2.0638s14.069-1.2832 14.28-1.0717c0.72435 0.72435-27.641 29.411-35.912 36.319-11.367 9.494-11.764 9.7792-11.764 8.4605zm-71-53.676c-7.425-0.70556-14.288-1.3196-15.25-1.3645-1.6023-0.0748-1.75-1.6833-1.75-19.063 0-18.881 0.0119-18.983 2.25-19.442 6.3447-1.3014 38.098-3.5757 49.836-3.5694 24.492 0.01305 86.625 5.8423 90.983 8.536 0.51164 0.31621 0.93025 2.2657 0.93025 4.3322 0 6.6505 2.0506 15.11 4.5584 18.806 1.3429 1.9789 2.4416 3.9521 2.4416 4.3851s0.7875 0.99293 1.75 1.2444c1.1631 0.30396 0.89485 0.49623-0.8 0.57333-1.4025 0.0638-3.0068-0.34078-3.5651-0.89906-0.68675-0.68675-18.9 0.44529-56.311 3.5-30.413 2.4833-56.708 4.4541-58.435 4.3796-1.7265-0.0745-9.2142-0.71275-16.639-1.4183zm156.85-10.516c1.2952-0.51874 3.7702-1.9169 5.5-3.1071l3.1452-2.1639-2.9371 3.1705c-1.8885 2.0386-3.8521 3.1479-5.5 3.1071l-2.5629-0.0634 2.3548-0.94318z" fill="#d14933"/>
<path d="m339 178.07c0-0.58745-1.35-1.0681-3-1.0681-2 0-3-0.5-3-1.5 0-0.93333-0.94444-1.5-2.5-1.5-1.375 0-2.5-0.41949-2.5-0.9322s5.3568-5.3502 11.904-10.75c8.347-6.8842 11.771-10.316 11.459-11.484-0.90529-3.3912 1.5361-2.6515 7.7525 2.349 22.23 17.882 42.408 17.02 65.357-2.7925 7.0173-6.0583 12.02-13.264 18.387-26.487 9.056-18.805 9.9721-28.484 4.6732-49.372-3.0489-12.019-5.2337-16.118-12.947-24.288-14.241-15.085-36.187-23.434-53.701-20.431-8.2859 1.4209-14.769 4.5435-24.734 11.913-6.8569 5.0709-7.2386 5.2313-5.5181 2.3188 3.2224-5.4551 10.382-12.969 14.856-15.591 4.2508-2.4911 14.212-6.244 23.98-9.0348 6.5709-1.8773 19.25-1.8027 26.888 0.15817 22.313 5.7287 36.378 21.632 43.706 49.423 8.352 31.671 1.3165 60.409-19.552 79.863-9.0504 8.4374-15.4 12.369-26.12 16.175-20.809 7.3876-28.295 7.4062-42.658 0.10601l-7.7682-3.9481-9.2318 6.671c-15.032 10.862-15.732 11.316-15.732 10.201zm-28.25-12.73c0.6875-0.27741 1.8125-0.27741 2.5 0s0.125 0.50439-1.25 0.50439-1.9375-0.22698-1.25-0.50439zm11.279-12.069c-0.0239-2.6396 0.43679-3.3479 2.5173-3.8701 3.7926-0.95188 3.938 0.0338 0.55395 3.7556l-3.0419 3.3455-0.0293-3.231zm-103.28-12.004-4.75-0.37454v-20.829c0-20.742 9e-3 -20.831 2.25-21.476 4.9618-1.4273 36.128-1.8128 53.75-0.66483 19.62 1.2781 48.724 4.3863 59.824 6.3889 6.6497 1.1997 6.6768 1.2181 6.9381 4.6972 0.65982 8.786 2.472 16.249 4.7667 19.631 1.3591 2.0027 2.471 3.9955 2.471 4.4284s0.7875 0.99293 1.75 1.2444c1.1631 0.30396 0.89485 0.49623-0.8 0.57333-1.4025 0.0638-3.0135-0.34747-3.5799-0.91392-0.70657-0.70657-18.498 0.3923-56.667 3.5-30.6 2.4914-56.89 4.4488-58.42 4.3497-1.5306-0.0991-4.9203-0.34879-7.5328-0.55479zm148.1-11.335c1.2952-0.51874 3.7702-1.9169 5.5-3.1071l3.1452-2.1639-2.9371 3.1705c-1.8885 2.0386-3.8521 3.1479-5.5 3.1071l-2.5629-0.0634 2.3548-0.94318z" fill="#d03b24"/>
<path d="m384 169.93c-2.475-0.47031-7.981-2.6193-12.236-4.7756l-7.7355-3.9205-4.7613 3.3852c-4.803 3.4148-7.2677 4.2237-7.2677 2.3852 0-0.55-0.675-1-1.5-1s-1.5-0.42648-1.5-0.94774-2.328-1.0838-5.1733-1.25l-5.1733-0.30226 6.602-5.5c4.4926-3.7427 6.4521-6.0322 6.1326-7.1658-0.95802-3.3994 1.5166-2.6472 7.7278 2.349 22.23 17.882 42.408 17.02 65.357-2.7925 7.0173-6.0583 12.02-13.264 18.387-26.487 9.056-18.805 9.9721-28.484 4.6732-49.372-3.0489-12.019-5.2337-16.118-12.947-24.288-14.241-15.085-36.187-23.434-53.701-20.431-8.2859 1.4209-14.769 4.5435-24.734 11.913-6.8569 5.0709-7.2386 5.2313-5.5181 2.3188 3.2224-5.4551 10.382-12.969 14.856-15.591 4.2508-2.4911 14.212-6.244 23.98-9.0348 6.5709-1.8773 19.25-1.8027 26.888 0.15817 22.313 5.7287 36.378 21.632 43.706 49.423 8.352 31.671 1.3165 60.409-19.552 79.863-9.056 8.4426-15.405 12.373-26.12 16.168-16.596 5.8781-21.26 6.6294-30.39 4.8946zm-108-51.779v-19.853l5.25 0.39911c10.447 0.7942 42.401 4.4889 48.75 5.6368 6.4571 1.1674 6.5017 1.1982 6.7623 4.6728 0.65899 8.7873 2.4714 16.253 4.7667 19.635 1.3591 2.0027 2.471 3.9955 2.471 4.4284s0.7875 0.99293 1.75 1.2444c1.1631 0.30396 0.89485 0.49623-0.8 0.57333-1.4025 0.0638-3.0162-0.35018-3.586-0.91995-0.7146-0.7146-10.616-0.2493-31.918 1.5-16.985 1.3948-31.459 2.536-32.164 2.536-0.99964 0-1.282-4.3729-1.282-19.853zm90.855 11.783c1.2952-0.51874 3.7702-1.9169 5.5-3.1071l3.1452-2.1639-2.9371 3.1705c-1.8885 2.0386-3.8521 3.1479-5.5 3.1071l-2.5629-0.0634 2.3548-0.94318z" fill="#6b9925"/>
<path d="m352 167c0-0.55-0.675-1-1.5-1s-1.5-0.45-1.5-1-2.3625-1.0173-5.25-1.0384l-5.25-0.0384 5-4.5137c9.3011-8.3964 8.6597-8.2754 14.865-2.8049l5.4328 4.7898-4.6454 3.3028c-4.6976 3.3399-7.1518 4.1301-7.1518 2.3028zm65.579-5.1886c2.7068-1.7537 8.7501-7.0412 13.429-11.75 9.2962-9.3546 13.439-16.112 18.032-29.414 1.5472-4.481 3.8176-10.847 5.0453-14.147 2.7022-7.2632 3.6593-21.597 1.9818-29.677-2.612-12.582-9.4997-22.726-26.856-39.552-10.202-9.8903-23.216-15.209-37.566-15.353l-8.1447-0.081574 3.5-1.5489c1.925-0.85188 7.5584-1.771 12.519-2.0426 15.226-0.8335 29.828 4.2773 40.303 14.106 21.881 20.53 29.977 64.862 17.076 93.495-6.4715 14.362-20.173 28.651-34.205 35.671-8.7103 4.3576-11.647 4.5265-5.1142 0.29409zm-141.58-43.665v-19.853l5.25 0.39975c10.903 0.8302 33.644 3.3761 43.882 4.9129l10.632 1.5958 1.1094 8.649c0.61015 4.757 1.7223 11.012 2.4714 13.899s1.0722 5.25 0.71801 5.25c-0.35421 0-14.333 1.125-31.063 2.5s-31 2.5-31.71 2.5c-1.0107 0-1.2905-4.305-1.2905-19.853zm91.5 11.853c2.7525-1.1828 3.731-1.1828 3 0-0.33992 0.55-1.604 0.96837-2.809 0.92971-2.1124-0.06776-2.1192-0.10112-0.19098-0.92971z" fill="#c5341a"/>
<path d="m417.58 161.81c2.7068-1.7537 8.7501-7.0412 13.429-11.75 9.2962-9.3546 13.439-16.112 18.032-29.414 1.5472-4.481 3.8176-10.847 5.0453-14.147 2.7022-7.2632 3.6593-21.597 1.9818-29.677-2.612-12.582-9.4997-22.726-26.856-39.552-10.202-9.8903-23.216-15.209-37.566-15.353l-8.1447-0.081574 3.5-1.5489c1.925-0.85188 7.5584-1.771 12.519-2.0426 15.226-0.8335 29.828 4.2773 40.303 14.106 21.881 20.53 29.977 64.862 17.076 93.495-6.4715 14.362-20.173 28.651-34.205 35.671-8.7103 4.3576-11.647 4.5265-5.1142 0.29409zm-60.579-3.5284c0-0.90979-0.97844-2.6957-2.1743-3.9686-1.1959-1.273-1.9592-2.3144-1.6962-2.3144s1.9468 1.5152 3.7417 3.3672c2.6492 2.7333 2.9685 3.4804 1.6962 3.9686-1.0339 0.39675-1.5674 0.0385-1.5674-1.0527zm-44-39.654c0-11.081 0.35481-16.629 1.0635-16.629 0.58492 0 5.7072 0.72325 11.383 1.6072l10.319 1.6072 1.1086 8.6428c0.60971 4.7535 1.7084 10.955 2.4416 13.781l1.333 5.1381-7.0745 0.63655c-3.891 0.3501-10.112 0.90861-13.824 1.2411l-6.75 0.60458v-16.629zm54.5 11.371c2.7525-1.1828 3.731-1.1828 3 0-0.33992 0.55-1.604 0.96837-2.809 0.92971-2.1124-0.06776-2.1192-0.10112-0.19098-0.92971z" fill="#bd3115"/>
<path d="m417.58 161.81c2.7068-1.7537 8.7501-7.0412 13.429-11.75 9.2962-9.3546 13.439-16.112 18.032-29.414 1.5472-4.481 3.8176-10.847 5.0453-14.147 2.7022-7.2632 3.6593-21.597 1.9818-29.677-2.612-12.582-9.4997-22.726-26.856-39.552-10.202-9.8903-23.216-15.209-37.566-15.353l-8.1447-0.081574 3.5-1.5489c1.925-0.85188 7.5584-1.771 12.519-2.0426 15.226-0.8335 29.828 4.2773 40.303 14.106 21.881 20.53 29.977 64.862 17.076 93.495-6.4715 14.362-20.173 28.651-34.205 35.671-8.7103 4.3576-11.647 4.5265-5.1142 0.29409z" fill="#4f7611"/>
</g>
</g>
</svg>
