<?xml version="1.0" encoding="UTF-8"?>
<svg version="1.1" viewBox="0 0 540 600" xmlns="http://www.w3.org/2000/svg" xmlnsCc="http://creativecommons.org/ns#" xmlnsDc="http://purl.org/dc/elements/1.1/" xmlnsRdf="http://www.w3.org/1999/02/22-rdf-syntax-ns#">
<g transform="translate(11.271 68)">
<g transform="translate(-8.7805 -3.3639e-7)">
<g transform="translate(12.692)">
<g transform="matrix(1.062 0 0 1.1346 13.236 -67.392)">
<g transform="matrix(1.0661 0 0 .99787 -28.085 -11.003)">
<path d="m204.25 529.24c-8.2075-0.6138-22.664-3.687-32.141-6.8326-19.535-6.4842-31.67-14.724-36.638-24.879-2.2749-4.6497-2.6728-6.819-2.7932-15.227-0.166-11.593 0.72876-13.788 8.4486-20.729 6.5488-5.8879 16.318-11.6 25.373-14.835 8.2714-2.9553 22.169-6.4816 28.5-7.2314 2.475-0.2931 7.096-0.99891 10.269-1.5685 3.1728-0.56954 6.2519-0.73695 6.8424-0.372 1.5905 0.98297 0.1332-155.12-1.5177-162.57-2.7129-12.248-20.061-29.575-50.594-50.533-6.325-4.3416-33.672-24.006-60.771-43.699-35.627-25.89-51.657-36.939-57.888-39.9-11.106-5.2763-18.822-12.491-19.806-18.518-2.0102-12.317 13.003-22.608 45.671-31.306 23.628-6.2913 49.794-10.798 76.285-13.14 12.039-1.0641 14.969-1.6805 21-4.4175 3.855-1.7494 10.159-4.2064 14.009-5.4598 14.121-4.5975 18.041-7.9324 28.459-24.213 5.742-8.9735 13.085-15.209 23.139-19.65l6.8124-3.009-2.0187 5.1215c-1.1103 2.8169-2.2231 5.4522-2.4728 5.8563-1.4522 2.3496-2.1652 10.871-1.2643 15.11 1.2787 6.0165 6.2523 10.492 16.314 14.681 9.8728 4.11 62.903 16.468 79.858 18.61 7.6045 0.96069 19.98 2.9753 27.5 4.4768l13.674 2.7301 17.113 5.8569c-1.2521 0.09827 6.8866 0.50069 6.8866 0.50069l7.8594 2.9205c21.813 8.1053 30.395 18.268 25.01 29.616-24.046 20.981-55.356 39.198-76.37 54.422-27.775 20.143-55.225 39.787-61 43.652-25.153 16.836-41.271 31.455-46.785 42.437-2.3939 4.767-3.4422 8.6043-4.1948 15.355-0.5785 5.1892-1.0068 39.765-1.0116 81.656-8e-3 69.171 0.0772 72.634 1.7716 72.191 2.3169-0.60588 30.736 5.7692 40.843 9.1622 17.728 5.951 31.125 15.314 35.405 24.743 1.4418 3.1762 1.9337 6.5315 1.9501 13.301 0.0188 7.7633-0.34718 9.7944-2.5681 14.251-4.8024 9.6371-17.159 18.148-34.974 24.088-9.4634 3.1557-26.874 6.9429-33.794 7.351 0 0-37.834 0.99894-40.392-1e-3zm37.078-42.398c19.257-6.3421 28.707-23.593 21.028-38.389-1.697-3.2701-2.7603-4.056-6.9242-5.1183-2.7056-0.6902-7.3207-1.555-10.256-1.9217l-5.3365-0.66676 2.5797 2.5797c3.664 3.664 3.6383 10.339-0.0541 14.032-2.8764 2.8765-8.9811 4.9347-13.192 4.4479-2.4562-0.28392-2.6965-0.71591-2.9533-5.3091-0.38698-6.9215-0.85967-8.0443-2.7323-6.4902-0.97995 0.81329-1.4882 3.0715-1.4882 6.6126 0 4.9117-0.19491 5.3771-2.25 5.372-4.2498-0.0105-9.5063-2.0234-12.127-4.6437-3.6872-3.6872-3.6812-10.02 0.0129-13.714 3.093-3.093 2.7565-3.126-8.5466-0.83844-8.1586 1.6512-8.4707 1.819-10.431 5.6119-2.8548 5.5237-3.3306 13.542-1.1434 19.27 6.7025 17.55 31.693 26.451 53.813 19.166zm-16.329-45.845c0-2.7805 0.43103-4 1.4138-4 1.2077 0 1.3935-11.553 1.2742-79.25-0.093-52.778-0.48176-79.495-1.1638-79.985-0.5633-0.40408-2.2947-0.74158-3.8476-0.75l-2.8235-0.01531 0.42154 8.25c2.391 46.795 2.8768 76.948 1.7424 108.14-0.66213 18.208-1.4303 35.469-1.707 38.356-0.41696 4.3511-0.22975 5.25 1.0934 5.25 1.1959 0 1.5965 1.0036 1.5965 4 0 2.2 0.45 4 1 4s1-1.8 1-4z" fill="#ecf6fb"/>
<path d="m204.5 529.24c-7.6115-0.46227-24.675-4.1879-34.346-7.4994-17.748-6.0767-29.833-14.45-34.568-23.951-2.2683-4.5519-2.5819-6.4131-2.5674-15.239 0.02-12.244 1.5594-15.594 10.497-22.844 6.2634-5.0814 21.839-13.249 26.987-14.151 1.65-0.2892 4.575-1.007 6.5-1.5952 1.925-0.58816 10.445-2.4003 18.934-4.027 12.126-2.3237 15.606-2.6874 16.235-1.6968 0.98883 1.5577 0.93492-103.37-0.071-138.24-0.84468-29.278-0.80845-29.132-9.9349-40.301-8.7838-10.75-21.616-21.46-44.663-37.278-5.5-3.7749-32.062-22.851-59.027-42.392-34.997-25.362-51.803-36.919-58.729-40.385-28.087-14.057-23.493-31.29 11.613-43.566 22.515-7.8734 58.28-14.848 93.094-18.155 10.57-1.0041 14.155-1.7786 19.5-4.2124 3.6018-1.6402 10.213-4.2259 14.69-5.746 10.56-3.5848 18.561-8.7456 21.979-14.177 9.3613-14.876 11.864-18.138 17.019-22.184 3.1055-2.4374 8.7119-5.7857 12.459-7.4406l6.8124-3.009-2.0187 5.1215c-1.1103 2.8169-2.2231 5.4522-2.4728 5.8563-1.4522 2.3496-2.1652 10.871-1.2643 15.11 1.2867 6.0542 6.2598 10.495 16.548 14.779 6.3776 2.655 56.062 15.438 64.797 16.672 27.231 3.8451 38.8 5.6625 46.442 7.2957l9.2047 1.967c19.142 3.9241 12.233 11.047 30.382 8.4653 20.418 16.121 33.023 19.611 26.216 30.755-3.1058 5.0844-8.8345 9.426-18.245 13.827-5.6051 2.6216-22.519 14.298-56.5 39.005-26.675 19.395-52.55 37.975-57.5 41.29-26.109 17.483-41.419 30.505-48.956 41.638-7.5152 11.1-7.4683 10.486-7.5088 98.421-0.0314 68.233 0.12147 75.797 1.5208 75.26 0.8556-0.32832 5.6931 0.31151 10.75 1.4219 39.303 8.6299 54.923 15.973 64.537 30.343 2.2595 3.377 2.6486 5.1644 2.9935 13.752 0.36576 9.1062 0.18906 10.294-2.2822 15.345-6.6096 13.51-28.565 24.965-57.377 29.937-5.0479 0.87112-10.64 1.6938-12.427 1.8281 12.356 0.25783-39.252-1e-3 -39.252-1e-3zm51.002-22.757c24.377-3.6606 38.636-11.634 42.833-23.95 4.3388-12.734-0.55873-27.101-10.508-30.828-6.3896-2.3932-35.403-9.4418-42.282-10.272l-5.9577-0.71913 2.7077 3.2179c5.5415 6.5857 2.0521 14.976-7.0344 16.914-2.5803 0.55034-5.044 0.7828-5.4747 0.51658s-0.78318-3.1088-0.78318-6.3168v-5.8328l-4 0.088-4 0.088v5.7448c0 3.1597-0.43962 6.0165-0.97693 6.3486-1.826 1.1285-9.3278-1.6366-12.181-4.4899-3.7477-3.7477-3.8438-8.6518-0.25309-12.919 1.4239-1.6922 2.0676-3.0767 1.4305-3.0767-0.6371 0-8.2146 1.3214-16.839 2.9364-24.628 4.612-36.574 10.051-40.569 18.471-2.3378 4.9265-2.0005 8.494 1.4573 15.414 4.5753 9.156 13.726 16.18 28.152 21.61 5.7783 2.175 26.173 6.8699 34.28 7.8914 7.9424 1.0008 30.975 0.51952 40-0.83578zm-27.5-63.419c0-1.0629 0.9-2.2183 2-2.5674 1.9771-0.62749 2-1.513 2-77.201 0-56.194-0.31583-77.621-1.187-80.528-1.3142-4.3864-4.1158-6.0719-9.2567-5.5691-6.2108 0.60743-6.0859-1.2143-5.7882 84.397l0.26806 77.098 2.4819 1.1308c1.4511 0.66117 2.4819 1.9704 2.4819 3.1523 0 1.6436 0.65429 2.0214 3.5 2.0214 2.7926 0 3.5-0.39058 3.5-1.9326zm-8.2558-32.476c-0.88204-16.484-0.77773-88.584 0.14987-103.59 1.1627-18.812 2.3895 55.628 1.4502 88-0.8515 29.347-0.85979 29.428-1.6001 15.592zm-143.33-274c5.1401-3.0952 25.775-10.596 29.15-10.596 0.76948 0 2.2703-1.7077 3.3351-3.795 2.8777-5.6407 10.362-11.992 18.636-15.815 4.0358-1.8646 7.8258-3.3902 8.4223-3.3902 0.64014 0 0.84207-0.96628 0.49278-2.358-0.69833-2.7824 1.7692-9.1781 4.7758-12.378 1.1696-1.245 1.7106-2.2588 1.2023-2.253-8.3731 0.096745-57.125 5.4666-63.424 6.9859-23.042 5.5578-38.127 12.522-41.597 19.204-3.8557 7.4236 0.24393 14.194 12.237 20.209 4.2634 2.1383 18.772 7.4951 20.489 7.565 0.34586 0.0141 3.1727-1.5063 6.2818-3.3785z" fill="#e1eaf0"/>
<path d="m200 528.44c-35.361-5.0052-59.684-17.506-65.674-33.753-0.64566-1.7512-1.1983-7.2341-1.228-12.184-0.0712-11.844 1.6412-15.65 10.059-22.357 12.454-9.9227 22.416-13.831 48.843-19.16 21.109-4.2566 20-4.1163 20-2.5292 0 1.486-1.063 1.7575-23.5 6.0022-32.575 6.1626-44.12 16.873-35.922 33.325 6.296 12.635 22.617 21.728 49.227 27.428 9.3292 1.9982 13.439 2.2841 32.194 2.2394 24.024-0.0573 34.567-1.718 46.573-7.3362 17.63-8.2503 24.181-24.279 16.337-39.977-3.7046-7.4135-4.3024-7.7243-25.41-13.213-13.392-3.4824-17.883-4.4439-30.399-6.5085l-3.3989-0.56068 3.6489 3.4413c4.1529 3.9166 4.7978 8.022 1.9445 12.377-1.4045 2.1435-6.6426 5.3284-8.7635 5.3284-0.29267 0-0.53212-3.1766-0.53212-7.059 0-4.9479-0.33435-6.8524-1.118-6.3681-1.7624 1.0892-7.882 2.289-7.882 1.5454 0-0.36911-1.8-0.49945-4-0.28965l-4 0.38146v5.895c0 3.3856-0.43935 5.895-1.0321 5.895-2.5628 0-7.7134-2.9626-9.2635-5.3284-2.9838-4.5539-2.2311-8.4926 2.4486-12.813l4.153-3.834-0.59469-80.262c-0.46414-62.644-0.89042-81.36-1.9419-85.262-3.173-11.776-22.707-30.655-52.269-50.516-4.4-2.9561-30.74-21.888-58.534-42.072-31.78-23.078-53.003-37.816-57.187-39.714-15.68-7.1098-21.401-13.659-20.889-23.914 0.14986-2.9992 5.5279-8.9346 11.611-12.814 17.241-10.996 62.327-21.698 111.9-26.562 9.4544-0.92758 13.252-1.7844 18.5-4.1741 3.6319-1.6538 10.267-4.2507 14.745-5.7708 10.56-3.5848 18.561-8.7456 21.979-14.177 9.3613-14.876 11.864-18.138 17.019-22.184 3.1055-2.4374 8.7119-5.7857 12.459-7.4406l6.8124-3.009-2.0187 5.1215c-1.1103 2.8169-2.2231 5.4522-2.4728 5.8563-1.4522 2.3496-2.1652 10.871-1.2643 15.11 2.1819 10.267 12.093 15.001 51.16 24.436 31.68 7.6514 27.286 6.7617 46.185 9.3522 8.25 1.1308 20.518 3.1654 27.262 4.5213 4.3812-1.9472 47.734 11.941 44.285 11.768 12.558 18.254 29.367 16.837 26.036 26.928-21.779 22.313-55.302 40.622-77.583 56.699-28.6 20.66-56.275 40.459-61.5 43.998-16.09 10.899-25.144 18.065-34.098 26.987-8.1738 8.1449-9.7904 10.296-13.365 17.784-3.09 6.4729-3.4972 17.143-3.5169 92.15-0.0194 73.967 0.016 75.357 1.9101 74.862 2.5204-0.65911 28.297 5.2737 40.114 9.2327 18.324 6.1392 30.447 14.219 35.17 23.442 2.4844 4.8512 3.4233 19.039 1.6278 24.597-4.8924 15.144-26.69 27.629-57.842 33.13-15.399 2.7192-42.615 3.3433-57 1.3071zm30.328-85.247c1.4866-1.6427 1.6423-8.9611 1.6851-79.25 0.042-68.93-0.1313-77.962-1.5769-82.19l-1.6241-4.75h-4.883c-8.6896 0-8.1063-6.0767-7.9861 83.198 0.0912 67.779 0.30368 78.451 1.5812 79.412 0.81173 0.61064 1.4759 1.7731 1.4759 2.5833 0 2.2928 1.0087 2.8064 5.5117 2.8064 2.762 0 4.7335-0.61348 5.8163-1.8099zm-164.14-293.87c-0.72188-0.28887-1.5844-0.25335-1.9167 0.0789-0.33229 0.33229 0.25833 0.56864 1.3125 0.52522 1.1649-0.048 1.4019-0.28494 0.60417-0.60416zm8.823-11.823c5.1772-3.2682 16.645-7.7655 25.683-10.072 5.5437-1.4146 7.3134-2.3042 7.7162-3.8786 1.503-5.8756 13.81-15.794 23.653-19.064 4.8889-1.6238 4.9369-1.6812 4.9369-5.9094 0-3.159 0.78198-5.3491 3.0063-8.4196 3.6736-5.0713 6.5784-4.8927-27.506-1.6904-19.444 1.8268-28.9 3.189-37.5 5.402-19.384 4.988-33.299 11.444-37.456 17.378-0.84948 1.2128-1.5445 3.975-1.5445 6.1382 0 7.6264 6.7643 13.173 23.464 19.239 4.97 1.8055 9.6077 3.3051 10.306 3.3326 0.69843 0.0275 3.0567-1.078 5.2406-2.4567zm317.99-2.2683c27.934-10.977 26.303-26.829-3.7748-36.675l-5.2748-1.7269-4.939 3.7665c-5.8702 4.4767-11.944 12.385-16.615 21.636-1.8679 3.6988-3.3962 6.9134-3.3962 7.1437 0 0.23024 2.945 1.5976 6.5445 3.0386s8.2078 3.6726 10.241 4.9593c4.1633 2.6349 5.4746 2.4718 17.215-2.1414zm-53-13.534c0-3.9133 6.7181-13.797 15.194-22.352l6.6277-6.4124-3.9322-2.3574c-7.7603-4.6524-27.213-2.5678-30.169-2.5687l-2.7799-8.36e-4 1.994 2.75c3.3754 4.6551 4.5583 11.167 3.4164 18.808-0.90898 6.0822-0.80175 7.1442 1.0696 10.593 1.7509 3.2266 2.5939 3.8341 5.3299 3.841 2.7306 7e-3 3.25-0.36072 3.25-2.3006z" fill="#f4ebc9"/>
<path d="m200 528.44c-35.361-5.0052-59.684-17.506-65.674-33.753-0.64566-1.7512-1.1983-7.2341-1.228-12.184-0.0712-11.844 1.6412-15.65 10.059-22.357 12.454-9.9227 22.416-13.831 48.843-19.16 21.109-4.2566 20-4.1163 20-2.5292 0 1.486-1.063 1.7575-23.5 6.0022-32.575 6.1626-44.12 16.873-35.922 33.325 6.296 12.635 22.617 21.728 49.227 27.428 9.3292 1.9982 13.439 2.2841 32.194 2.2394 24.024-0.0573 34.567-1.718 46.573-7.3362 17.63-8.2503 24.181-24.279 16.337-39.977-3.7046-7.4135-4.3024-7.7243-25.41-13.213-13.392-3.4824-17.883-4.4439-30.399-6.5085l-3.3989-0.56068 3.6489 3.4413c4.1529 3.9166 4.7978 8.022 1.9445 12.377-1.4045 2.1435-6.6426 5.3284-8.7635 5.3284-0.29267 0-0.53212-3.1766-0.53212-7.059 0-4.9479-0.33435-6.8524-1.118-6.3681-1.7624 1.0892-7.882 2.289-7.882 1.5454 0-0.36911-1.8-0.49945-4-0.28965l-4 0.38146v5.895c0 3.3856-0.43935 5.895-1.0321 5.895-2.5628 0-7.7134-2.9626-9.2635-5.3284-2.9838-4.5539-2.2311-8.4926 2.4486-12.813l4.153-3.834-0.59469-80.262c-0.46414-62.644-0.89042-81.36-1.9419-85.262-3.173-11.776-22.707-30.655-52.269-50.516-4.4-2.9561-30.74-21.888-58.534-42.072-31.78-23.078-53.003-37.816-57.187-39.714-15.68-7.1098-21.401-13.659-20.889-23.914 0.14986-2.9992 5.5279-8.9346 11.611-12.814 17.31-11.04 63.504-21.981 112-26.526 9.686-0.90783 14.147-1.7919 17.5-3.4681 2.475-1.2373 8.4152-3.6302 13.2-5.3174 16.784-5.9179 22.134-9.9109 28.264-21.095 5.0169-9.1522 13.954-17.739 23.428-22.51 4.0216-2.0252 7.5152-3.4791 7.7634-3.2309s-0.72806 3.3147-2.1696 6.8142c-7.169 17.403-3.3519 25.793 15.345 33.726 8.0789 3.4281 57.865 15.111 73.168 17.169 15.944 2.1447 29.842 4.4878 39.419 6.6454l6.9186 1.5588-2.3907 1.8033c-1.3149 0.9918-2.7302 1.5934-3.1453 1.3369-0.82094-0.50737-30.556-3.3665-35.081-3.3731l-2.7799-0.004082 1.994 2.75c3.3754 4.6551 4.5583 11.167 3.4164 18.808-0.90898 6.0822-0.80175 7.1442 1.0696 10.593 1.331 2.4527 2.8 3.8397 4.0799 3.8519 1.1 0.0105 4.025 0.62286 6.5 1.3608 10.524 3.1379 9.5279 3.4815 13.496-4.6557 7.366-15.106 16.111-22.806 29.381-25.869 4.5329-1.0463 5.6804-0.90241 12.801 1.6055 27.212 9.5839 36.124 22.732 23.556 34.751-4.2621 4.0759-9.7216 7.5351-16.234 10.286-2.475 1.0455-27.9 18.804-56.5 39.464s-56.275 40.459-61.5 43.998c-16.09 10.899-25.144 18.065-34.098 26.987-8.1738 8.1449-9.7904 10.296-13.365 17.784-3.09 6.4729-3.4972 17.143-3.5169 92.15-0.0194 73.967 0.016 75.357 1.9101 74.862 2.5204-0.65911 28.297 5.2737 40.114 9.2327 18.324 6.1392 30.447 14.219 35.17 23.442 2.4844 4.8512 3.4233 19.039 1.6278 24.597-4.8924 15.144-26.69 27.629-57.842 33.13-15.399 2.7192-42.615 3.3433-57 1.3071zm30.328-85.247c1.4866-1.6427 1.6423-8.9611 1.6851-79.25 0.042-68.93-0.1313-77.962-1.5769-82.19l-1.6241-4.75h-4.883c-8.6896 0-8.1063-6.0767-7.9861 83.198 0.0912 67.779 0.30368 78.451 1.5812 79.412 0.81173 0.61064 1.4759 1.7731 1.4759 2.5833 0 2.2928 1.0087 2.8064 5.5117 2.8064 2.762 0 4.7335-0.61348 5.8163-1.8099zm-92.328-274.69c0-3.8644-0.42486-6.5-1.0478-6.5-1.6684 0-28.142-2.9634-31.452-3.5207-2.9724-0.50041-2.9585-0.46825 1.5 3.4891 13.296 11.802 14.496 12.379 26.75 12.863l4.25 0.1681zm-71-18.5c0-0.55-0.7875-0.99311-1.75-0.98469-1.4955 0.0131-1.5319 0.15626-0.25 0.98469 1.8872 1.2196 2 1.2196 2 0zm12-14.266c4.675-2.3438 13-5.5441 18.5-7.1117l10-2.8502 3-5.1359c3.388-5.8001 11.943-12.174 20.718-15.436 4.5394-1.6874 5.3206-2.3667 5.5563-4.8318 0.50717-5.3054 1.2129-7.1996 3.8499-10.334 1.4436-1.7156 2.37-3.374 2.0588-3.6853-1.1646-1.1646-51.358 3.859-61.882 6.1935-20.107 4.4602-34.3 10.158-40.869 16.407-3.3893 3.2241-3.9319 4.3352-3.9319 8.0508 0 8.04 6.4575 13.439 23.464 19.617 4.97 1.8055 9.4863 3.304 10.036 3.3302 0.55 0.0261 4.825-1.8702 9.5-4.214zm314-0.50858c27.934-10.977 26.303-26.829-3.7748-36.675l-5.2748-1.7269-4.939 3.7665c-5.8702 4.4767-11.944 12.385-16.615 21.636-1.8679 3.6988-3.3962 6.9134-3.3962 7.1437 0 0.23024 2.945 1.5976 6.5445 3.0386s8.2078 3.6726 10.241 4.9593c4.1633 2.6349 5.4746 2.4718 17.215-2.1414z" fill="#d1e7eb"/>
<path d="m200 528.45c-26.833-3.7785-47.32-11.921-58.639-23.304-6.1256-6.1603-7.7488-10.221-8.188-20.485-0.50811-11.875 1.0856-15.919 9.1469-23.214 6.0235-5.451 22.001-14.449 25.656-14.449 0.97495 0 3.7417-0.70876 6.1484-1.575 4.3661-1.5716 32.808-7.4143 36.126-7.4213 0.9625-2e-3 1.75 0.35968 1.75 0.80378s-7.7625 2.2653-17.25 4.0471c-26.739 5.0218-39.275 10.409-43.131 18.537-6.9176 14.578 8.7449 32.309 35.817 40.548 23.147 7.0442 53.225 8.5393 75.709 3.7631 25.272-5.3682 37.188-15.882 37.244-32.859 0.0276-8.3128-3.9982-17.126-9.2144-20.173-3.9464-2.3048-38.823-11.224-47.551-12.16l-6.1242-0.65712 2.6558 2.3235c5.2994 4.6364 6.224 9.647 2.5892 14.032-1.2348 1.4896-3.4825 3.0008-4.995 3.3584l-2.75 0.65011v-7.0574-7.0574l-3.5002 1.4625c-2.2557 0.94249-5.6334 1.3165-9.5 1.0519l-5.9998-0.41055v6.504c0 5.52-0.23932 6.4122-1.5818 5.8971-0.86998-0.33385-1.9604-0.60699-2.4231-0.60699-0.46271 0-2.2259-1.3846-3.9182-3.0769-4.679-4.679-4.3004-8.9716 1.2598-14.282l4.3367-4.1416-0.67399-81c-0.50521-60.715-0.98883-81.982-1.9312-84.922-0.69144-2.1569-3.6326-6.8819-6.5358-10.5-10.353-12.902-24.277-24.741-48.533-41.266-6.875-4.6838-33.425-23.744-59-42.355-30.542-22.226-49.417-35.285-55-38.052-10.555-5.2322-14.862-8.4354-17.744-13.195-8.7319-14.423 7.8556-26.796 49.744-37.105 20.78-5.1142 42.076-8.6978 65.337-10.995 15.277-1.5086 18.958-2.198 23.163-4.3381 2.75-1.3994 8.9152-3.9249 13.7-5.6121 16.784-5.9179 22.134-9.9109 28.264-21.095 5.0169-9.1522 13.954-17.739 23.428-22.51 4.0216-2.0252 7.5152-3.4791 7.7634-3.2309s-0.72806 3.3147-2.1696 6.8142c-5.643 13.699-3.9094 23.005 5.3312 28.619 8.4614 5.1407 15.022 7.2912 42.514 13.937 31.085 7.5137 32.146 7.7323 47.668 9.8197 6.325 0.85061 17.761 2.7231 25.413 4.1611 12.561 2.3604 13.727 2.7531 12 4.0402-1.2101 0.90186-3.199 1.2312-5.413 0.8964-1.925-0.29111-8.675-1.0006-15-1.5766s-13.915-1.3082-16.867-1.6272l-5.3669-0.57989 2.5907 3.3965c3.7781 4.9534 5.2518 12.402 3.8959 19.693-0.97574 5.2468-0.87368 6.3428 0.93012 9.9886 1.4257 2.8817 2.6619 4.0984 4.1716 4.106 1.18 6e-3 4.1705 0.61462 6.6455 1.3526 10.524 3.1379 9.5279 3.4815 13.496-4.6557 7.254-14.876 15.734-22.47 28.751-25.748 4.0607-1.0225 5.4599-0.8906 11.44 1.0783 15.155 4.9895 27.112 12.862 29.995 19.749 3.4149 8.1574-3.4072 17.168-18.407 24.312-6.4073 3.0517-22.397 14.07-59.274 40.845-27.775 20.166-54.775 39.517-60 43.002-16.518 11.017-24.202 17.149-35.084 28-11.186 11.154-14.168 15.838-15.901 24.975-0.63167 3.3308-1.0149 34.564-1.0149 82.715v77.364l3.25 0.0142c5.077 0.0221 37.366 8.329 46.204 11.887 16.663 6.708 26.328 14.879 28.992 24.512 1.8954 6.8534 1.4573 19.047-0.85633 23.83-6.5974 13.638-29.09 25.208-58.88 30.286-13.33 2.2721-41.73 2.7519-54.709 0.92414zm-4.8125-9.136c-0.72188-0.28887-1.5844-0.25335-1.9167 0.0789-0.33229 0.33229 0.25834 0.56864 1.3125 0.52522 1.165-0.048 1.4019-0.28494 0.60417-0.60416zm60 0c-0.72188-0.28887-1.5844-0.25335-1.9167 0.0789-0.33229 0.33229 0.25834 0.56864 1.3125 0.52522 1.165-0.048 1.4019-0.28494 0.60417-0.60416zm-86.188-13.71c0-1.5439-2.1063-2.607-5.1651-2.607-2.7061 0-1.8044 2.2722 1.2393 3.1227 3.6644 1.024 3.9259 0.98967 3.9259-0.51575zm125.88-4.6368c6.3813-2.8954 13.707-8.5609 16.122-12.468 1.6385-2.6512 2.0376-4.6884 1.8029-9.2037-0.42157-8.112-2.2439-7.5054-6.6602 2.2172-4.3166 9.5029-9.1126 15.752-14.625 19.057-4.848 2.9065-2.7234 3.1574 3.3606 0.39686zm-136.88-2.3935c0-0.78281-1.0635-2.6953-2.3633-4.25-3.521-4.2114-6.4142-10.413-8.4068-18.02-2.0312-7.7544-3.7656-8.862-7.7065-4.9211-3.1645 3.1645-3.4318 9.9342-0.6081 15.404 2.2704 4.3982 8.5693 10.702 12.085 12.094 3.7207 1.4732 7 1.3295 7-0.30665zm73.25-55.369c1.6384-1.421 1.75-6.4332 1.7492-78.613-7.8e-4 -73.284-0.0946-77.342-1.8984-82.095-1.7198-4.5315-2.2491-5.0578-5.6496-5.617-4.8202-0.7927-6.7382-0.25421-8.3634 2.3481-1.8244 2.9213-1.6177 158.9 0.21557 162.7 1.9525 4.0507 9.9076 4.7779 13.947 1.2749zm-93.25-274.71c0-3.8644-0.42486-6.5-1.0478-6.5-1.6684 0-28.142-2.9634-31.452-3.5207-2.9724-0.50041-2.9585-0.46825 1.5 3.4891 13.296 11.802 14.496 12.379 26.75 12.863l4.25 0.1681zm-71-18.383c0-0.48585-0.92572-1.1254-2.0572-1.4213-1.688-0.44142-1.8455-0.28289-0.87756 0.88336 1.3203 1.5908 2.9347 1.8868 2.9347 0.53796zm15.229-16.053c3.4489-1.5562 10.546-4.0634 15.771-5.5716 9.4787-2.736 9.5067-2.7537 12.5-7.8673 3.3874-5.7869 11.952-12.165 20.718-15.428 5.1272-1.9085 5.2976-2.0967 5.8099-6.4183 0.2903-2.4487 1.2997-5.5382 2.2431-6.8657 0.94341-1.3275 2.4338-3.4043 3.3121-4.6153 1.5682-2.1623 1.537-2.1938-1.7431-1.7585-1.837 0.24377-14.14 1.3721-27.34 2.5073-18.952 1.6299-26.873 2.7743-37.656 5.4405-22.216 5.4928-34.684 11.651-39.182 19.352-1.6636 2.8484-1.7738 3.8427-0.79026 7.1255 2.1105 7.0441 10.032 12.454 26.347 17.995 8.2783 2.8114 8.2825 2.8117 11.011 0.87273 1.5011-1.0668 5.5511-3.213 9-4.7691zm305.96 3.312c14.941-5.3634 22.778-10.721 24.846-16.985 1.5228-4.614-8e-3 -8.3556-5.2569-12.848-4.1164-3.5235-19.172-10.543-22.613-10.543-2.803 0-11.178 6.8852-15.444 12.697-4.9254 6.7097-11.371 19.587-10.028 20.034 0.59205 0.19735 5.2906 2.531 10.441 5.1858s9.6755 4.8846 10.055 4.9549c0.37972 0.0704 3.9797-1.0528 8-2.496z" fill="#f1d8ab"/>
<path d="m200 528.45c-26.833-3.7785-47.32-11.921-58.639-23.304-6.1256-6.1603-7.7488-10.221-8.188-20.485-0.50811-11.875 1.0856-15.919 9.1469-23.214 6.0235-5.451 22.001-14.449 25.656-14.449 0.97495 0 3.7417-0.70876 6.1484-1.575 4.3661-1.5716 32.808-7.4143 36.126-7.4213 0.9625-2e-3 1.75 0.35968 1.75 0.80378s-7.7625 2.2653-17.25 4.0471c-26.739 5.0218-39.275 10.409-43.131 18.537-6.9176 14.578 8.7449 32.309 35.817 40.548 23.147 7.0442 53.225 8.5393 75.709 3.7631 25.272-5.3682 37.188-15.882 37.244-32.859 0.0276-8.3128-3.9982-17.126-9.2144-20.173-3.9464-2.3048-38.823-11.224-47.551-12.16l-6.1242-0.65712 2.6558 2.3235c5.2994 4.6364 6.224 9.647 2.5892 14.032-1.2348 1.4896-3.4825 3.0008-4.995 3.3584l-2.75 0.65011v-7.0574-7.0574l-3.5002 1.4625c-2.2557 0.94249-5.6334 1.3165-9.5 1.0519l-5.9998-0.41055v6.504c0 5.52-0.23932 6.4122-1.5818 5.8971-0.86998-0.33385-1.9604-0.60699-2.4231-0.60699-0.46271 0-2.2259-1.3846-3.9182-3.0769-4.679-4.679-4.3004-8.9716 1.2598-14.282l4.3367-4.1416-0.67399-81c-0.50521-60.715-0.98883-81.982-1.9312-84.922-0.69144-2.1569-3.6326-6.8819-6.5358-10.5-10.353-12.902-24.277-24.741-48.533-41.266-6.875-4.6838-33.425-23.744-59-42.355-30.542-22.226-49.417-35.285-55-38.052-10.555-5.2322-14.862-8.4354-17.744-13.195-8.732-14.423 7.8588-26.799 49.744-37.104 21.345-5.252 42.174-8.743 64-10.727 16.247-1.4765 18.145-1.864 26.5-5.4103 4.95-2.1009 11.903-4.7886 15.451-5.9725s7.7622-2.8306 9.3644-3.659c4.822-2.4936 11.716-9.4664 14.194-14.356 5.5264-10.906 15.557-20.42 26.696-25.321l5.7061-2.5108-2.0697 5.1755c-3.1297 7.826-3.8424 10.735-3.8424 15.685 0 6.0148 2.7002 10.743 8.3652 14.646 8.0422 5.5422 14.47 7.4645 62.635 18.732 7.975 1.8656 20.35 4.1553 27.5 5.0881s19.033 2.8491 26.408 4.2585c12.098 2.3121 13.221 2.7013 11.5 3.9841-1.2049 0.89801-3.1968 1.2267-5.4076 0.89239-1.925-0.29111-8.675-1.0006-15-1.5766s-13.915-1.3082-16.867-1.6272l-5.3669-0.57989 2.5907 3.3965c3.7844 4.9616 5.2521 12.401 3.8908 19.72-0.97298 5.232-0.87561 6.3651 0.83689 9.7386 1.5075 2.9698 2.6574 3.9288 5.1767 4.3177 3.1183 0.48141 3.2266 0.6544 2.9123 4.6519-0.3856 4.905 1.6383 9.3396 5.3822 11.793 3.1724 2.0787 3.8194 1.513 5.3092-4.6414 2.5056-10.351 10.228-24.517 17.289-31.714 3.426-3.4922 12.788-8.299 18.6-9.5497 6.1809-1.3302 26.474 7.0616 34.424 14.235 11.609 10.476 6.9085 21.888-12.904 31.324-6.4073 3.0517-22.397 14.07-59.274 40.845-27.775 20.166-54.775 39.517-60 43.002-16.518 11.017-24.202 17.149-35.084 28-11.186 11.154-14.168 15.838-15.901 24.975-0.63167 3.3308-1.0149 34.564-1.0149 82.715v77.364l3.25 0.0142c5.077 0.0221 37.366 8.329 46.204 11.887 16.663 6.708 26.328 14.879 28.992 24.512 1.8954 6.8534 1.4573 19.047-0.85633 23.83-6.5974 13.638-29.09 25.208-58.88 30.286-13.33 2.2721-41.73 2.7519-54.709 0.92414zm-4.8125-9.136c-0.72188-0.28887-1.5844-0.25335-1.9167 0.0789-0.33229 0.33229 0.25834 0.56864 1.3125 0.52522 1.165-0.048 1.4019-0.28494 0.60417-0.60416zm60 0c-0.72188-0.28887-1.5844-0.25335-1.9167 0.0789-0.33229 0.33229 0.25834 0.56864 1.3125 0.52522 1.165-0.048 1.4019-0.28494 0.60417-0.60416zm-86.188-13.71c0-1.5439-2.1063-2.607-5.1651-2.607-2.7061 0-1.8044 2.2722 1.2393 3.1227 3.6644 1.024 3.9259 0.98967 3.9259-0.51575zm125.88-4.6368c6.3813-2.8954 13.707-8.5609 16.122-12.468 1.6385-2.6512 2.0376-4.6884 1.8029-9.2037-0.42157-8.112-2.2439-7.5054-6.6602 2.2172-4.3166 9.5029-9.1126 15.752-14.625 19.057-4.848 2.9065-2.7234 3.1574 3.3606 0.39686zm-136.88-2.3935c0-0.78281-1.0635-2.6953-2.3633-4.25-3.521-4.2114-6.4142-10.413-8.4068-18.02-2.0312-7.7544-3.7656-8.862-7.7065-4.9211-3.1645 3.1645-3.4318 9.9342-0.6081 15.404 2.2704 4.3982 8.5693 10.702 12.085 12.094 3.7207 1.4732 7 1.3295 7-0.30665zm73.25-55.369c1.6384-1.421 1.75-6.4332 1.7492-78.613-7.8e-4 -73.284-0.0946-77.342-1.8984-82.095-1.7198-4.5315-2.2491-5.0578-5.6496-5.617-4.8202-0.7927-6.7382-0.25421-8.3634 2.3481-1.8244 2.9213-1.6177 158.9 0.21557 162.7 1.9525 4.0507 9.9076 4.7779 13.947 1.2749zm-6.25-177.21c0-0.55-2.1893-1-4.8651-1-3.5192 0-5.65-0.61735-7.7022-2.2316-1.5604-1.2274-2.4719-1.6409-2.0258-0.91895 1.5462 2.5017 7.1108 5.1431 10.843 5.1468 2.0625 0.00206 3.75-0.44626 3.75-0.99626zm-82.98-78.476c-0.69572-0.8383-1.9974-1.5142-2.8925-1.5019-1.2133 0.0166-0.99498 0.50827 0.8575 1.9316 2.7885 2.1425 3.9638 1.8944 2.035-0.42967zm-5.4131-4.106c-0.33385-0.86998-0.60699-1.995-0.60699-2.5 0-0.50501-0.675-0.91821-1.5-0.91821s-1.5-0.6375-1.5-1.4167c0-0.77916-0.5625-1.6436-1.25-1.921-2.7637-1.1152 22.992 0.30608 49.045 2.7064l4.2947 0.39568-0.29466-6.1322-0.29466-6.1322-6.5-0.74168c-3.575-0.40792-25.85-2.9468-49.5-5.642-33.817-3.8538-44.175-5.3708-48.5-7.1033-3.025-1.2117-8.2-3.0319-11.5-4.0449-6.8972-2.1172-7.5391-2.7482 9.5775 9.4139 11.071 7.8662 12.056 8.3429 22.5 10.889 6.0074 1.4644 13.319 2.965 16.248 3.3347 4.4039 0.55584 6.4799 1.5858 12 5.9537 7.059 5.5855 8.77 6.434 7.7818 3.859zm16.646-22.879c-2.3358-0.72969-8.4108-1.5752-13.5-1.8788l-9.2531-0.55213 9.5 1.8035c5.225 0.99191 11.3 1.8374 13.5 1.8788l4 0.0754-4.2469-1.3267zm-24.522-3.2325c-0.97297-0.25354-2.323-0.23687-3 0.0371-0.67703 0.27393 0.11903 0.48137 1.769 0.46099 1.65-0.0204 2.2039-0.2445 1.231-0.49804zm-55.731-17.459c0-1.9797 17.767-9.3774 30.749-12.803 3.3798-0.89188 4.6407-1.8807 6.1624-4.833 3.4706-6.7334 11.854-13.284 21.504-16.801 5.777-2.106 6.0694-2.3719 5.7788-5.2555-0.33145-3.2889 1.824-8.3249 5.0937-11.901 1.1295-1.2353 1.8644-2.4112 1.633-2.613-0.23134-0.20183-12.571 0.71675-27.421 2.0413-21.721 1.9374-29.67 3.0704-40.656 5.795-22.24 5.5157-34.688 11.667-39.182 19.362-1.6636 2.8484-1.7738 3.8427-0.79026 7.1255 2.104 7.0226 10.047 12.462 26.199 17.942 8.4897 2.8804 10.93 3.3136 10.93 1.9404zm315.19-2.4717c14.941-5.3634 22.778-10.721 24.846-16.985 1.5228-4.614-8e-3 -8.3556-5.2569-12.848-4.1164-3.5235-19.172-10.543-22.613-10.543-2.803 0-11.178 6.8852-15.444 12.697-4.9254 6.7097-11.371 19.587-10.028 20.034 0.59205 0.19735 5.2906 2.531 10.441 5.1858s9.6755 4.8846 10.055 4.9549c0.37972 0.0704 3.9797-1.0528 8-2.496z" fill="#cad1d1"/>
<path d="m209 529.37c-29.023-2.7755-54.821-12.001-66.658-23.838-7.1569-7.1569-9.2412-12.536-9.2593-23.896-0.0177-11.128 3.4029-16.715 15.16-24.765 10.367-7.0977 24.867-12.141 46.853-16.297 14.664-2.7717 16.904-3.0053 16.904-1.7624 0 0.4441-7.7625 2.2653-17.25 4.0471-22.915 4.3036-32.615 7.8595-45.924 16.834-3.3636 2.2684-3.6246 2.7799-3.092 6.0619 0.48 2.9579 0.31191 3.481-0.96155 2.9924-2.909-1.1163-7.3415 3.4208-8.3235 8.52-0.73662 3.825 1.8383 9.8406 6.3695 14.88 5.0796 5.6497 8.7682 7.8566 13.132 7.8566 3.794 0 3.832-1.2178 0.18273-5.8561-3.4472-4.3815-6.6081-10.546-7.5084-14.644-0.47843-2.1775 0.19512-1.4479 2.4567 2.661 8.9391 16.241 26.732 28.961 48.919 34.972 7.3083 1.9799 10.882 2.3027 25.5 2.3027s18.191-0.32273 25.5-2.3027c22.177-6.0082 41.12-19.522 48.862-34.858 2.753-5.4536 3.6386-8.2295 5.6318-17.651l0.60854-2.8766 2.5465 2.3766c4.6762 4.3642 6.6072 9.5249 6.1647 16.475-0.23666 3.7166-0.0201 6.0294 0.53259 5.6878 1.4354-0.8871-0.1983 6.6331-2.483 11.43-8.2848 17.394-43.843 30.765-84.362 31.724-8.25 0.19524-17.025 0.16133-19.5-0.0754zm39.026-8.4191c9.1391-1.1366 22.36-3.8931 21.724-4.5293-0.21494-0.21494-5.0842 0.5421-10.82 1.6823-6.9866 1.3887-16.235 2.2528-28.015 2.6174-15.844 0.49036-20.726 0.22297-40.414-2.2135-3.7804-0.46782-3.8304-0.44104-0.91118 0.4878 8.8178 2.8057 42.53 3.9337 58.437 1.9553zm-65.576-3.8408c-0.5225-0.49205-2.525-1.1494-4.45-1.4607-3.4745-0.56196-3.4709-0.55601 0.5 0.81779 4.9665 1.7182 5.118 1.7429 3.95 0.64293zm-12.636-11.835c-0.38756-2.0124-4.8525-3.8534-7.1797-2.9604-1.9335 0.74196-1.1396 3.3969 1.2013 4.0168 4.0633 1.0762 6.3126 0.6787 5.9785-1.0564zm130.66-7.3834c8.7733-5.8679 12.505-10.765 12.98-17.032 0.368-4.8606-0.89415-9.2093-2.516-8.6687-0.58426 0.19476-2.8577 4.3949-5.0521 9.3338-4.229 9.518-9.6461 16.172-15.888 19.516l-3.5 1.8751 3.1662 0.0442c2.1935 0.0306 5.5148-1.5266 10.81-5.0686zm3.9734-37.765c-0.5225-0.48288-4.775-2.8969-9.45-5.3645-6.5255-3.4443-12.449-5.4688-25.5-8.7152-9.35-2.3258-20.712-4.7886-25.25-5.4729-7.7118-1.1631-8.25-1.128-8.25 0.53738 0 0.97989-1.0363 2.9864-2.3029 4.459-1.8512 2.1521-3.3686 2.7563-7.7348 3.0798-5.8743 0.4353-10.569-0.96608-11.834-3.5328-0.4373-0.88707-0.89576-37.388-1.0188-81.113-0.20274-72.05-0.68023-88.005-2.8041-93.696-1.1541-3.0924-10.738-14.506-17.929-21.351-8.4705-8.064-20.006-16.988-36.377-28.141-6.875-4.6838-33.425-23.744-59-42.355-30.542-22.226-49.417-35.285-55-38.052-10.555-5.2322-14.862-8.4354-17.744-13.195-8.732-14.423 7.8588-26.799 49.744-37.104 9.075-2.2329 23.25-5.196 31.5-6.5847 14.881-2.5048 42.737-5.668 47.513-5.3953 1.3679 0.07811 5.8621-1.4287 9.9871-3.3485 4.125-1.9198 11.1-4.7292 15.5-6.243s9.289-3.4164 10.864-4.2279c4.7691-2.4565 11.675-9.4501 14.145-14.325 5.5264-10.906 15.557-20.42 26.696-25.321l5.7061-2.5108-2.0697 5.1755c-4.4911 11.231-5.0552 17.945-1.988 23.664 2.2447 4.1856 9.1426 9.1054 16.906 12.058 9.2261 3.5092 63.736 16.534 72.99 17.44 6.9299 0.6787 31.714 4.7348 40.19 6.5776 5.0557 1.0991 5.3035 1.2842 3.5 2.6148-1.1784 0.86943-3.1195 1.2184-4.9409 0.88821-1.65-0.29908-10.336-1.2124-19.303-2.0296-8.9667-0.81719-16.842-1.7952-17.5-2.1733-0.65832-0.37811-0.23708 0.39759 0.93609 1.7238 5.1808 5.8566 7.0787 13.61 5.4664 22.331-0.92075 4.9808-0.8018 6.0892 1.0308 9.6052 1.2586 2.4147 2.7849 3.9746 3.889 3.9746 3.8957 0 4.8519 1.0197 4.2771 4.5615-0.71538 4.4084 1.2107 8.9513 4.9128 11.587 3.4561 2.461 4.1344 1.9398 5.6559-4.3457 2.5056-10.351 10.228-24.517 17.289-31.714 4.4564-4.5425 15.139-9.3844 20.564-9.3206 12.437 0.14618 34.291 12.245 37.963 21.018 3.4149 8.1574-3.4072 17.168-18.407 24.312-6.4073 3.0517-22.397 14.07-59.274 40.845-27.775 20.166-54.775 39.517-60 43.002-16.518 11.017-24.202 17.149-35.084 28-11.186 11.154-14.168 15.838-15.901 24.975-0.63167 3.3308-1.0149 34.564-1.0149 82.715v77.364l3.25 0.0142c5.077 0.0221 37.366 8.329 46.204 11.887 7.8514 3.1606 18.952 9.3279 20.083 11.158 0.73161 1.1838 0.16204 1.2171-1.0862 0.0635zm-73.2-16.914c1.6384-1.421 1.75-6.4332 1.7492-78.613-7.8e-4 -73.284-0.0946-77.342-1.8984-82.095-1.7198-4.5315-2.2491-5.0578-5.6496-5.617-5.0748-0.83457-6.8472-0.22388-8.5276 2.9383-1.2096 2.2761-1.3484 14.777-0.92352 83.179l0.5 80.5 3.5 1.1538c4.049 1.3347 8.7387 0.73193 11.25-1.446zm-7.8318-175.81c3.1266-1.1998 1.4894-2.393-3.2834-2.393-3.4384 0-5.6533-0.61995-7.5527-2.114-1.4781-1.1627-2.9408-1.8608-3.2503-1.5512-0.79561 0.79562 8.6995 6.6652 10.782 6.6652 0.94734 0 2.4342-0.27314 3.3042-0.60699zm17.389-9.9195c-0.30789-0.30789-0.86705 0.24711-1.2426 1.2333-0.54268 1.4252-0.42782 1.5401 0.5598 0.5598 0.68342-0.67834 0.99067-1.4852 0.68278-1.7931zm4.1931-3.9735c0.68469-0.825 1.0199-1.5 0.74489-1.5s-1.0602 0.675-1.7449 1.5-1.0199 1.5-0.74489 1.5 1.0602-0.675 1.7449-1.5zm-46.5-5.5c-3.2656-3.3-6.1624-6-6.4374-6s2.1718 2.7 5.4374 6 6.1624 6 6.4374 6-2.1718-2.7-5.4374-6zm56-4c0.99549-1.1 1.585-2 1.31-2s-1.3145 0.9-2.31 2-1.585 2-1.31 2 1.3145-0.9 2.31-2zm-112.48-56.476c-0.69572-0.8383-1.9974-1.5142-2.8925-1.5019-1.2133 0.0166-0.99498 0.50827 0.8575 1.9316 2.7885 2.1425 3.9638 1.8944 2.035-0.42967zm-5.4131-4.106c-0.33385-0.86998-0.60699-1.995-0.60699-2.5 0-0.50501-0.675-0.91821-1.5-0.91821s-1.5-0.6375-1.5-1.4167c0-0.77916-0.5625-1.6436-1.25-1.921-2.7618-1.1144 22.845 0.2973 49 2.7014l4.25 0.39065v-5.842c0-6.5836-1.125-7.8182-7.0743-7.7628-1.8841 0.0175-5.4507-0.24709-7.9257-0.58809-16.159-2.2263-16.528-2.2976-13-2.5117 3.1194-0.18932 2.6844-0.47225-4-2.6016-4.125-1.314-8.85-2.3643-10.5-2.334-1.65 0.0303-5.25-0.19464-8-0.49992s-8.15-0.78315-12-1.0619c-6.5949-0.47754-6.3924-0.39298 3.5 1.4613 5.775 1.0825 12.525 2.2142 15 2.5149 6.4888 0.78837 12.848 2.2219 10.454 2.3565-1.1253 0.0633-11.7-0.99739-23.5-2.357s-24.154-2.7041-27.454-2.9878c-9.6478-0.82949-17.123-2.2939-20.425-4.0011-1.6915-0.87471-3.0755-1.3423-3.0755-1.039s-1.2375-0.0886-2.75-0.87072c-1.5125-0.78214-3.2-1.526-3.75-1.653-0.55-0.127-1.45-0.35861-2-0.51469-2.644-0.75028-5.5-1.2404-5.5-0.94393 0 0.18173 5.5695 4.4081 12.377 9.392 12.095 8.8555 12.635 9.128 23.75 11.983 6.2554 1.6069 13.985 3.2432 17.177 3.6363 4.9789 0.61315 6.7545 1.4673 12.5 6.0132 7.0802 5.6019 8.7924 6.4523 7.8038 3.876zm89.143-14.147c-2.0625-0.21574-5.4375-0.21574-7.5 0-2.0625 0.21575-0.375 0.39226 3.75 0.39226s5.8125-0.17651 3.75-0.39226zm-26.562-0.95464c-0.72188-0.28887-1.5844-0.25335-1.9167 0.0789-0.33229 0.33229 0.25834 0.56864 1.3125 0.52522 1.165-0.048 1.4019-0.28494 0.60417-0.60416zm41 0c-0.72188-0.28887-1.5844-0.25335-1.9167 0.0789-0.33229 0.33229 0.25834 0.56864 1.3125 0.52522 1.165-0.048 1.4019-0.28494 0.60417-0.60416zm-49.938-0.97917c-0.6875-0.27741-1.8125-0.27741-2.5 0s-0.125 0.50439 1.25 0.50439 1.9375-0.22698 1.25-0.50439zm62.938-0.0208c-0.72188-0.28887-1.5844-0.25335-1.9167 0.0789-0.33229 0.33229 0.25834 0.56864 1.3125 0.52522 1.165-0.048 1.4019-0.28494 0.60417-0.60416zm12-1c-0.72188-0.28887-1.5844-0.25335-1.9167 0.0789-0.33229 0.33229 0.25834 0.56864 1.3125 0.52522 1.165-0.048 1.4019-0.28494 0.60417-0.60416zm13-1c-0.72188-0.28887-1.5844-0.25335-1.9167 0.0789-0.33229 0.33229 0.25834 0.56864 1.3125 0.52522 1.165-0.048 1.4019-0.28494 0.60417-0.60416zm-75.438-1.397c-1.1887-0.69237-2.3113-0.69237-3.5 0-1.4277 0.83156-1.1054 1.0193 1.75 1.0193s3.1777-0.18772 1.75-1.0193zm4.4375 0.39699c-0.72188-0.28887-1.5844-0.25335-1.9167 0.0789-0.33229 0.33229 0.25834 0.56864 1.3125 0.52522 1.165-0.048 1.4019-0.28494 0.60417-0.60416zm83 0c-0.72188-0.28887-1.5844-0.25335-1.9167 0.0789-0.33229 0.33229 0.25834 0.56864 1.3125 0.52522 1.165-0.048 1.4019-0.28494 0.60417-0.60416zm-112.44-1.0062c-0.9625-0.25152-2.5375-0.25152-3.5 0-0.9625 0.25153-0.175 0.45733 1.75 0.45733s2.7125-0.2058 1.75-0.45733zm12.438-0.99378c-0.72188-0.28887-1.5844-0.25335-1.9167 0.0789-0.33229 0.33229 0.25834 0.56864 1.3125 0.52522 1.165-0.048 1.4019-0.28494 0.60417-0.60416zm-11-1c-0.72188-0.28887-1.5844-0.25335-1.9167 0.0789-0.33229 0.33229 0.25834 0.56864 1.3125 0.52522 1.165-0.048 1.4019-0.28494 0.60417-0.60416zm-11-1c-0.72188-0.28887-1.5844-0.25335-1.9167 0.0789-0.33229 0.33229 0.25834 0.56864 1.3125 0.52522 1.165-0.048 1.4019-0.28494 0.60417-0.60416zm-11-1c-0.72188-0.28887-1.5844-0.25335-1.9167 0.0789-0.33229 0.33229 0.25834 0.56864 1.3125 0.52522 1.165-0.048 1.4019-0.28494 0.60417-0.60416zm184-2c-0.72188-0.28887-1.5844-0.25335-1.9167 0.0789-0.33229 0.33229 0.25834 0.56864 1.3125 0.52522 1.165-0.048 1.4019-0.28494 0.60417-0.60416zm-109-1c-0.72188-0.28887-1.5844-0.25335-1.9167 0.0789-0.33229 0.33229 0.25834 0.56864 1.3125 0.52522 1.165-0.048 1.4019-0.28494 0.60417-0.60416zm11-1c-0.72188-0.28887-1.5844-0.25335-1.9167 0.0789-0.33229 0.33229 0.25834 0.56864 1.3125 0.52522 1.165-0.048 1.4019-0.28494 0.60417-0.60416zm-48-1c-0.72188-0.28887-1.5844-0.25335-1.9167 0.0789-0.33229 0.33229 0.25834 0.56864 1.3125 0.52522 1.165-0.048 1.4019-0.28494 0.60417-0.60416zm-11-1c-0.72188-0.28887-1.5844-0.25335-1.9167 0.0789-0.33229 0.33229 0.25834 0.56864 1.3125 0.52522 1.165-0.048 1.4019-0.28494 0.60417-0.60416zm82 0c-0.72188-0.28887-1.5844-0.25335-1.9167 0.0789-0.33229 0.33229 0.25834 0.56864 1.3125 0.52522 1.165-0.048 1.4019-0.28494 0.60417-0.60416zm-105-2c-0.72188-0.28887-1.5844-0.25335-1.9167 0.0789-0.33229 0.33229 0.25834 0.56864 1.3125 0.52522 1.165-0.048 1.4019-0.28494 0.60417-0.60416zm-11-1c-0.72188-0.28887-1.5844-0.25335-1.9167 0.0789-0.33229 0.33229 0.25834 0.56864 1.3125 0.52522 1.165-0.048 1.4019-0.28494 0.60417-0.60416zm150 0c-0.72188-0.28887-1.5844-0.25335-1.9167 0.0789-0.33229 0.33229 0.25834 0.56864 1.3125 0.52522 1.165-0.048 1.4019-0.28494 0.60417-0.60416zm-173-2c-0.72187-0.28887-1.5844-0.25335-1.9167 0.0789-0.33229 0.33229 0.25834 0.56864 1.3125 0.52522 1.165-0.048 1.4019-0.28494 0.60417-0.60416zm196 0c-0.72188-0.28887-1.5844-0.25335-1.9167 0.0789-0.33229 0.33229 0.25834 0.56864 1.3125 0.52522 1.165-0.048 1.4019-0.28494 0.60417-0.60416zm-207-1c-0.72187-0.28887-1.5844-0.25335-1.9167 0.0789-0.33229 0.33229 0.25834 0.56864 1.3125 0.52522 1.165-0.048 1.4019-0.28494 0.60417-0.60416zm-11-1c-0.72187-0.28887-1.5844-0.25335-1.9167 0.0789-0.33229 0.33229 0.25834 0.56864 1.3125 0.52522 1.165-0.048 1.4019-0.28494 0.60417-0.60416zm-12-1c-0.72188-0.28887-1.5844-0.25335-1.9167 0.0789-0.33229 0.33229 0.25833 0.56864 1.3125 0.52522 1.1649-0.048 1.4019-0.28494 0.60417-0.60416zm264 0c-0.72188-0.28887-1.5844-0.25335-1.9167 0.0789-0.33229 0.33229 0.25834 0.56864 1.3125 0.52522 1.165-0.048 1.4019-0.28494 0.60417-0.60416zm-278.19-2.7099c0-0.21616-0.69837-0.661-1.5519-0.98855-0.88992-0.34149-1.2913-0.17385-0.94098 0.39301 0.58726 0.95021 2.4929 1.4054 2.4929 0.59554zm-6-2.5926c0-2.1321 17.248-9.407 30.749-12.97 3.3798-0.89188 4.6407-1.8807 6.1624-4.833 3.4706-6.7334 11.854-13.284 21.504-16.801 5.777-2.106 6.0694-2.3719 5.7788-5.2555-0.36661-3.6377 1.9221-8.487 6.0681-12.857l3.0381-3.2025-3.4001 0.90706c-1.87 0.49888-14.875 1.8846-28.9 3.0793-20.564 1.7517-28.051 2.8136-38.677 5.4859-21.855 5.4962-34.214 11.657-38.662 19.272-1.6636 2.8484-1.7738 3.8427-0.79026 7.1255 2.1022 7.0165 9.8768 12.344 26.347 18.054 9.1009 3.1551 10.781 3.4662 10.781 1.9954zm318.92-4.0447c28.527-11.001 28.968-25.056 1.14-36.4-9.9728-4.0653-9.7392-4.1306-19.072 5.3309-4.311 4.3705-7.9697 9.4066-10.833 14.912-4.1571 7.9922-4.7029 11.188-1.9107 11.188 1.9529 0 15.402 6.6227 16.256 8.0051 0.96115 1.5552 4.3838 0.83469 14.419-3.0354zm-185.49 318.57c-1.8128-2.7667-1.2405-7.6269 1.1296-9.594 1.223-1.015 1.4357-0.21055 1.4357 5.4309 0 3.6423-0.21463 6.6224-0.47695 6.6224s-1.2021-1.1067-2.0884-2.4594z" fill="#b5cddb"/>
<path d="m201.5 528.36c-28.125-4.1193-50.249-12.86-60.386-23.856-5.1262-5.5613-7.1218-9.9861-7.0923-15.726l0.022-4.2821 1.8234 4c5.6895 12.481 23.311 23.299 47.856 29.381 14.453 3.5809 24.339 4.3902 46.715 3.8241 24.833-0.62818 31.834-1.9296 53.562-9.9561 12.32-4.5514 26.428-14.91 29.193-21.434l1.1928-2.8148 0.37728 2.7892c0.54406 4.0222-3.1205 10.836-8.5684 15.932-9.334 8.7309-25.616 15.72-46.534 19.974-8.1273 1.6529-14.663 2.1207-32.661 2.3376-12.375 0.14918-23.85 0.0735-25.5-0.16815zm4.9347-73.824c-1.8128-2.7667-1.2405-7.6269 1.1296-9.594 1.223-1.015 1.4357-0.21055 1.4357 5.4309 0 3.6423-0.21463 6.6224-0.47695 6.6224s-1.2021-1.1067-2.0884-2.4594zm18.565-188.41c0-0.68416-1.8972-1.1308-4.803-1.1308-3.7934 0-5.6852-0.6488-9-3.0865-2.3084-1.6976-4.197-3.4908-4.197-3.9849 0-1.7686-11.676-13.312-21.318-21.078-5.4001-4.3488-15.973-12.026-23.496-17.061-11.453-7.6651-69.642-49.271-72.617-51.922-0.51219-0.45639 2.1878 0.07 6 1.1698 3.8122 1.0998 11.518 2.8299 17.124 3.8446 9.6237 1.742 10.563 2.1361 16.834 7.0644 3.6529 2.8707 6.811 5.05 7.0181 4.843 0.87374-0.87375-0.89287-4.7891-2.1608-4.7891-0.76085 0-1.3834-0.6375-1.3834-1.4167 0-0.77916-0.5625-1.6436-1.25-1.921-2.7653-1.1158 23.106 0.31289 49.08 2.7104l4.3303 0.3997-0.33029-6.434c-0.3086-6.0115-0.19896-6.4011 1.6697-5.9327 1.1 0.27572 9.6712 0.98155 19.047 1.5685 15.697 0.98269 19.933 0.83201 53.5-1.9032 20.049-1.6337 42.753-3.9004 50.453-5.037 7.7-1.1366 17.6-2.5491 22-3.1387 11.918-1.5971 40.241-6.8339 46.324-8.5651 2.9283-0.83333 5.5119-1.3274 5.7414-1.0979s-2.3914 2.4424-5.8242 4.9176c-3.4328 2.4752-21.991 15.92-41.241 29.878s-41.075 29.455-48.5 34.438-17.325 11.946-22 15.472c-8.1509 6.1484-23.94 21.468-28.833 27.976-1.283 1.7064-2.707 2.8712-3.1646 2.5884-0.45757-0.28279-0.98642-0.0508-1.1752 0.51564-0.49754 1.4926-7.8276 2.5353-7.8276 1.1135zm-82.98-78.607c-0.69572-0.8383-1.9974-1.5142-2.8925-1.5019-1.2133 0.0166-0.99498 0.50827 0.8575 1.9316 2.7885 2.1425 3.9638 1.8944 2.035-0.42967zm33.251-21.128c0.33229-0.33229 1.1948-0.36781 1.9167-0.0789 0.79773 0.31922 0.56078 0.55618-0.60417 0.60416-1.0542 0.0434-1.6448-0.19293-1.3125-0.52522zm-6.2708-3.42c-5.775-0.37589-12.525-1.3976-15-2.2704l-4.5-1.5869 6 0.51732c3.3 0.28453 14.775 1.3314 25.5 2.3265 18.191 1.6878 18.795 1.8054 9 1.7531-5.775-0.0309-15.225-0.36365-21-0.73954zm-14.263-11.999c-54.435-4.9277-68.197-6.574-78.737-9.4187-0.825-0.22267-1.8375-0.43928-2.25-0.48136s-0.75-0.52003-0.75-1.0621c0-2.1321 17.248-9.407 30.749-12.97 3.3798-0.89188 4.6407-1.8807 6.1624-4.833 3.4706-6.7334 11.854-13.284 21.504-16.801 5.777-2.106 6.0694-2.3719 5.7788-5.2555-0.16836-1.6705 0.44308-4.5262 1.3587-6.3461 2.0286-4.0317 9.3754-11.809 11.156-11.809 0.71048 0 1.2918-0.38524 1.2918-0.8561 0-1.153 17.568-9.2153 27.5-12.62 4.4-1.5084 9.289-3.4065 10.864-4.218 4.7691-2.4565 11.675-9.4501 14.145-14.325 5.5264-10.906 15.557-20.42 26.696-25.321l5.7061-2.5108-2.0697 5.1755c-3.1297 7.826-3.8424 10.735-3.8424 15.685 0 6.0148 2.7002 10.743 8.3652 14.646 7.9034 5.4465 14.504 7.4522 58.635 17.817 6.325 1.4855 13.975 3.8113 17 5.1683 12.766 5.727 18.563 16.45 16.099 29.779-0.92075 4.9808-0.8018 6.0892 1.0308 9.6052 1.2586 2.4147 2.7849 3.9746 3.889 3.9746 3.8957 0 4.8519 1.0197 4.2771 4.5615-0.71538 4.4084 1.2107 8.9513 4.9128 11.587 3.4561 2.461 4.1344 1.9398 5.6559-4.3457 2.5056-10.351 10.228-24.517 17.289-31.714 3.3587-3.4236 12.743-8.257 18.346-9.4487 2.7059-0.57555 2.6078-0.42837-1 1.5012-6.7672 3.6192-16.565 14.486-21.342 23.671-4.1571 7.9922-4.7029 11.188-1.9107 11.188 2.0059 0 15.091 6.49 16.489 8.1782 2.6838 3.2413-14.254 5.5894-85.646 11.873-37.174 3.2718-68.94 5.8923-70.59 5.8233-1.65-0.069-31.693-2.723-66.763-5.8976z" fill="#dacfa5"/>
<path d="m201.5 528.36c-28.125-4.1193-50.249-12.86-60.386-23.856-5.1262-5.5613-7.1218-9.9861-7.0923-15.726l0.022-4.2821 1.8234 4c5.6895 12.481 23.311 23.299 47.856 29.381 14.453 3.5809 24.339 4.3902 46.715 3.8241 24.833-0.62818 31.834-1.9296 53.562-9.9561 12.32-4.5514 26.428-14.91 29.193-21.434l1.1928-2.8148 0.37728 2.7892c0.54406 4.0222-3.1205 10.836-8.5684 15.932-9.334 8.7309-25.616 15.72-46.534 19.974-8.1273 1.6529-14.663 2.1207-32.661 2.3376-12.375 0.14918-23.85 0.0735-25.5-0.16815zm4.9347-73.824c-1.8128-2.7667-1.2405-7.6269 1.1296-9.594 1.223-1.015 1.4357-0.21055 1.4357 5.4309 0 3.6423-0.21463 6.6224-0.47695 6.6224s-1.2021-1.1067-2.0884-2.4594zm18.565-188.54c0-0.55-2.263-1-5.0288-1h-5.0288l-14.221-14.333c-13.593-13.7-26.09-23.658-44.285-35.291-8.4092-5.3762-65.527-46.619-65.123-47.023 0.18082-0.18081 4.5718 0.74015 9.7576 2.0466 5.1859 1.3064 11.904 2.6957 14.929 3.0873 4.9009 0.63444 6.7526 1.6638 17 9.45 18.889 14.352 30.149 22.247 30.8 21.596 0.33752-0.33751-0.54007-1.608-1.9502-2.8234s-2.9083-3.3001-3.3293-4.6328c-0.421-1.3327-1.6413-3.3577-2.7118-4.5-1.0705-1.1423-2.2044-3.353-2.5199-4.9128s-1.1846-3.0704-1.9314-3.357c-0.7468-0.28657-1.3578-1.3729-1.3578-2.414 0-1.0412-0.45-1.893-1-1.893s-1-0.71723-1-1.5938c0-1.3142 0.8335-1.4946 4.75-1.028 2.6125 0.31118 10.15 0.83787 16.75 1.1704s12.788 0.8255 13.75 1.0954c1.5306 0.42928 1.75-0.28277 1.75-5.6807v-6.1715l8.25 0.85408c20.841 2.1576 76.575-0.68443 110.25-5.622 7.15-1.0484 17.275-2.3963 22.5-2.9954 11.177-1.2816 38.174-6.2846 49.353-9.146 4.3191-1.1055 8.0192-1.8437 8.2226-1.6404 0.50699 0.507-84.898 62.064-96.075 69.249-20.136 12.942-36.151 26.106-46.397 38.138-5.7077 6.7022-10.839 10.372-14.504 10.372-0.87938 0-1.5989-0.45-1.5989-1zm-35.75-102.72c1.5125-0.22913 3.9875-0.22913 5.5 0 1.5125 0.22912 0.275 0.41659-2.75 0.41659s-4.2625-0.18747-2.75-0.41659zm-28.593-1.3416c-7.043-0.81818-10.253-1.9999-5.0736-1.8679 1.6042 0.0409 8.5417 0.65633 15.417 1.3677 12.005 1.2421 12.183 1.2934 4.5 1.2942-4.4 5.1e-4 -11.079-0.35681-14.843-0.79403zm30.843-8.013c-16.5-1.5692-45.525-4.23-64.5-5.9127-29.713-2.6351-38.833-3.8232-51.75-6.7413-1.2375-0.27958-2.25-0.89939-2.25-1.3774 0-2.0254 17.608-9.3854 30.749-12.853 3.3798-0.89188 4.6407-1.8807 6.1624-4.833 3.4706-6.7334 11.854-13.284 21.504-16.801 5.7716-2.1041 6.0692-2.3741 5.78-5.2465-0.94718-9.4077 11.739-20.102 34.54-29.117 5.6291-2.2257 10.71-4.0467 11.29-4.0467 4.8394 0 16.966-10.075 20.485-17.019 5.5264-10.906 15.557-20.42 26.696-25.321l5.7061-2.5108-2.0697 5.1755c-7.0614 17.658-4.7768 26.004 9.0704 33.137 6.2382 3.2136 14.35 5.5784 41.263 12.029 14.672 3.5164 28.497 7.3224 30.722 8.4578 6.0028 3.0624 10.693 7.5761 13.153 12.658 1.9132 3.9522 2.1242 5.6694 1.6838 13.706-0.6572 11.992 0.97506 16.381 6.4333 17.3 3.5221 0.59282 3.6467 0.75195 3.1218 3.9862-0.30066 1.8528 0.0204 4.7378 0.71357 6.4112 1.3269 3.2035 6.3947 7.4803 7.8199 6.5994 0.46062-0.28468 1.3882-2.9784 2.0612-5.986s1.7618-5.8969 2.4193-6.4208c1.5112-1.2038 17.158 4.5106 23.033 8.4122l4.1622 2.7639-9.5 2.2648c-7.0319 1.6764-25.867 3.699-72.5 7.7852-34.65 3.0362-65.925 5.708-69.5 5.9373-3.575 0.22931-20-0.86698-36.5-2.4362z" fill="#f5cb87"/>
<path d="m201.5 528.36c-28.125-4.1193-50.249-12.86-60.386-23.856-5.1262-5.5613-7.1218-9.9861-7.0923-15.726l0.022-4.2821 1.8234 4c5.6895 12.481 23.311 23.299 47.856 29.381 14.453 3.5809 24.339 4.3902 46.715 3.8241 24.833-0.62818 31.834-1.9296 53.562-9.9561 12.32-4.5514 26.428-14.91 29.193-21.434l1.1928-2.8148 0.37728 2.7892c0.54406 4.0222-3.1205 10.836-8.5684 15.932-9.334 8.7309-25.616 15.72-46.534 19.974-8.1273 1.6529-14.663 2.1207-32.661 2.3376-12.375 0.14918-23.85 0.0735-25.5-0.16815zm4.9347-73.824c-1.8128-2.7667-1.2405-7.6269 1.1296-9.594 1.223-1.015 1.4357-0.21055 1.4357 5.4309 0 3.6423-0.21463 6.6224-0.47695 6.6224s-1.2021-1.1067-2.0884-2.4594zm-10.562-209.29c-1.2439-1.5861-1.2085-1.6214 0.37756-0.37756 1.6658 1.3064 2.1955 2.1276 1.3724 2.1276-0.20765 0-0.99515-0.7875-1.75-1.75zm55.504 0c0.55328-0.93296-0.54182-1.25-4.3177-1.25-2.7825 0-5.059-0.45-5.059-1 0-0.57143-3-1-7-1-5.5556 0-7-0.30952-7-1.5 0-1.2533-2.0556-1.5-12.5-1.5s-12.5-0.24667-12.5-1.5c0-1.2168-1.6204-1.5-8.5832-1.5h-8.5832l-11.667-8.3735c-6.4167-4.6054-14.395-10.118-17.73-12.25-7.6421-4.8858-65.545-46.601-65.185-46.961 0.14682-0.14682 4.3128 0.75888 9.2577 2.0127 4.9449 1.2538 11.691 2.6084 14.991 3.0103 5.5534 0.67631 6.856 1.3822 17.5 9.484 18.722 14.25 30.146 22.266 30.8 21.611 0.33752-0.33751-0.54007-1.608-1.9502-2.8234s-2.9083-3.3001-3.3293-4.6328c-0.421-1.3327-1.6413-3.3577-2.7118-4.5-1.0705-1.1423-2.2044-3.353-2.5199-4.9128s-1.1846-3.0704-1.9314-3.357c-0.7468-0.28657-1.3578-1.3729-1.3578-2.414 0-1.0412-0.45-1.893-1-1.893s-1-0.69735-1-1.5497c0-1.2821 0.99285-1.457 5.75-1.0131 3.1625 0.29509 12.95 1.0247 21.75 1.6214 8.8 0.59669 16.788 1.3079 17.75 1.5805 1.5229 0.43133 1.75-0.25921 1.75-5.3217l-5e-5 -5.8174h20.25c21.944 0 66.263-3.2523 88.25-6.4761 7.15-1.0484 17.275-2.3963 22.5-2.9954 11.177-1.2816 38.174-6.2846 49.353-9.146 4.3191-1.1055 8.0192-1.8437 8.2226-1.6404 0.50699 0.507-84.898 62.064-96.075 69.249-11.101 7.1349-26.18 18.266-32.285 23.834-2.5185 2.2965-4.2455 3.613-3.8378 2.9255zm-62.127-81.966c1.5125-0.22913 3.9875-0.22913 5.5 0 1.5125 0.22912 0.275 0.41659-2.75 0.41659s-4.2625-0.18747-2.75-0.41659zm-15.018-0.99828c1.5026-0.22817 4.2026-0.23276 6-0.0102s0.56791 0.40925-2.7321 0.41486c-3.3 6e-3 -4.7706-0.17648-3.2679-0.40466zm17.768-8.3349c-16.225-1.5559-30.288-2.8563-31.25-2.8897-1.5868-0.0552-1.75-1.4701-1.75-15.168 0-14.009 0.1272-15.052 1.75-14.351 4.8309 2.087 17.571 6.458 18.822 6.458 1.2049 0 1.4275-4.6672 1.4275-29.927v-29.927l5.4252-2.4837c7.3186-3.3506 13.883-9.6289 18.711-17.897 6.811-11.662 13.82-18.119 25.071-23.094l5.7047-2.5229-2.0697 5.1755c-7.0614 17.658-4.7768 26.004 9.0704 33.137 6.2382 3.2136 14.35 5.5784 41.263 12.029 14.672 3.5164 28.497 7.3224 30.722 8.4578 6.0028 3.0624 10.693 7.5761 13.153 12.658 1.9132 3.9522 2.1242 5.6694 1.6838 13.706-0.6572 11.992 0.97506 16.381 6.4333 17.3 3.5221 0.59282 3.6467 0.75195 3.1218 3.9862-0.30066 1.8528 0.0204 4.7378 0.71357 6.4112 1.3269 3.2035 6.3947 7.4803 7.8199 6.5994 0.46062-0.28468 1.3882-2.9784 2.0612-5.986s1.7618-5.8969 2.4193-6.4208c1.5112-1.2038 17.158 4.5106 23.033 8.4122l4.1622 2.7639-9.5 2.2648c-7.0319 1.6764-25.867 3.699-72.5 7.7852-34.65 3.0362-65.925 5.7073-69.5 5.9358s-19.775-0.85752-36-2.4134z" fill="#e8c587"/>
<path d="m201.5 528.36c-28.125-4.1193-50.249-12.86-60.386-23.856-5.1262-5.5613-7.1218-9.9861-7.0923-15.726l0.022-4.2821 1.8234 4c5.6895 12.481 23.311 23.299 47.856 29.381 14.453 3.5809 24.339 4.3902 46.715 3.8241 24.833-0.62818 31.834-1.9296 53.562-9.9561 12.32-4.5514 26.428-14.91 29.193-21.434l1.1928-2.8148 0.37728 2.7892c0.54406 4.0222-3.1205 10.836-8.5684 15.932-9.334 8.7309-25.616 15.72-46.534 19.974-8.1273 1.6529-14.663 2.1207-32.661 2.3376-12.375 0.14918-23.85 0.0735-25.5-0.16815zm4.9347-73.824c-1.8128-2.7667-1.2405-7.6269 1.1296-9.594 1.223-1.015 1.4357-0.21055 1.4357 5.4309 0 3.6423-0.21463 6.6224-0.47695 6.6224s-1.2021-1.1067-2.0884-2.4594zm60.348-224.69c-0.21105-0.63315-3.0444-1.3718-6.2962-1.6415-3.2519-0.26967-6.4369-1.0147-7.0779-1.6557-0.64094-0.64095-3.3472-1.2783-6.0138-1.4163-2.6666-0.13804-5.0839-0.63084-5.3717-1.0951-0.28781-0.46428-2.6608-1.1644-5.2733-1.5557s-4.75-1.1105-4.75-1.598-1.6875-0.95032-3.75-1.0284l-3.75-0.1419 4-0.62711 4-0.6271-3.375-0.73099c-1.8562-0.40205-4.6688-0.73099-6.25-0.73099s-2.875-0.45-2.875-1-1.4625-1.005-3.25-1.011c-1.7875-6e-3 -4.9138-0.28609-6.9474-0.6223-3.1286-0.51727-3.8026-1.0902-4.3811-3.7243-0.89945-4.0952-3.141-7.4186-5.5109-8.1708-1.1164-0.35433-1.9105-1.5189-1.9105-2.8016 0-1.2074-1.125-3.0401-2.5-4.0727-1.375-1.0326-2.5-2.3241-2.5-2.8701 0-0.54594-0.82403-1.7204-1.8312-2.6099-1.853-1.6366-4.553-8.0665-3.7319-8.8876 0.24527-0.24527 7.7968 0.0527 16.781 0.66216 24.287 1.6475 21.782 2.2675 21.782-5.3919 0-5.1111 0.32051-6.5 1.5-6.5 1.1658 0 1.5436 1.5037 1.6959 6.75l0.19586 6.75 0.348-6.6695 0.34799-6.6695 3.7062-0.56167c2.0384-0.30891 6.8561-0.80045 10.706-1.0923 28.64-2.1711 54.325-4.6613 61.5-5.9626 4.675-0.8479 9.7948-1.5422 11.377-1.543l2.8774-1e-3 -4.2522 4.75c-12.44 13.896-30.416 30.954-45.752 43.415-9.4875 7.7087-17.25 14.414-17.25 14.901 0 3.3507 24.585-11.198 46.5-27.518 9.4344-7.0256 44.627-35.589 48.208-39.127 0.66415-0.65619 5.6142-1.9762 11-2.9333s13.095-2.6182 17.132-3.6912c4.0366-1.073 7.5129-1.7774 7.725-1.5653 0.5996 0.59924-92.635 67.769-94.066 67.769-0.53755 0-16.867 11.07-18.577 12.593-1.914 1.7054-3.6199 1.8108-4.1383 0.25551zm-55.033-13.511c0.6875-0.27741 1.8125-0.27741 2.5 0s0.125 0.50439-1.25 0.50439-1.9375-0.22698-1.25-0.50439zm-67.75-22.067c-0.825-0.31405-1.7574-0.96297-2.072-1.4421-0.3146-0.47908-3.5771-1.1517-7.25-1.4947s-6.678-1.0085-6.678-1.479c0-0.47047-0.675-0.8554-1.5-0.8554s-1.5-0.41762-1.5-0.92804c0-0.51043-2.4956-1.2398-5.5457-1.6209s-5.312-0.92657-5.0264-1.2122-1.115-1.3952-3.1124-2.4658c-1.9974-1.0706-4.2677-2.5825-5.045-3.3598-0.77732-0.77732-1.7187-1.4139-2.0919-1.4145-0.37321-6.7e-4 -1.8742-1.0132-3.3355-2.25-1.4613-1.2368-3.6421-2.9238-4.8462-3.7488-1.2041-0.825-2.8744-1.983-3.7118-2.5734-0.83738-0.59036 3.3684 0.17553 9.3462 1.702 5.9778 1.5264 12.697 2.797 14.932 2.8234 3.5998 0.0425 5.5408 1.202 17 10.156 7.1149 5.5593 13.124 10.284 13.353 10.5 0.57917 0.54521-1.1132 0.34988-2.9167-0.33666zm49.5-40.315c-15.4-1.5621-29.462-2.8662-31.25-2.898l-3.25-0.05787v-15.107c0-14.009 0.1272-15.052 1.75-14.351 4.8309 2.087 17.571 6.458 18.822 6.458 1.2049 0 1.4275-4.6672 1.4275-29.927v-29.927l5.75-2.6228c7.2426-3.3037 14.442-10.285 18.56-17.997 4.751-8.8973 12.757-16.533 22.438-21.4 7.5442-3.7931 8.1311-3.9433 7.3283-1.875-0.47997 1.2366-1.8186 4.6276-2.9746 7.5354-2.4236 6.096-2.7169 13.806-0.70807 18.613 2.8481 6.8164 14.895 13.12 33.738 17.653 51.324 12.347 50.567 12.109 57.273 17.997 1.9029 1.6708 4.4442 5.071 5.6472 7.5561 1.9132 3.9522 2.1242 5.6694 1.6838 13.706-0.6347 11.581 1.0059 16.293 6.0148 17.274 3.1473 0.61641 3.25 0.79418 3.25 5.6252 0 4.3646 0.43627 5.425 3.4875 8.4762 1.9181 1.9181 4.0354 3.3049 4.705 3.0817s2.1574-3.3001 3.3062-6.8375c1.4448-4.449 2.5376-6.3331 3.545-6.112 4.9046 1.0767 16.707 5.9099 20.726 8.4875l4.7303 3.0338-9.5 2.2834c-7.1029 1.7072-25.397 3.6763-72.5 7.8038-34.65 3.0362-65.925 5.711-69.5 5.9441s-19.1-0.85431-34.5-2.4164z" fill="#ecc27a"/>
<path d="m201.5 528.36c-28.125-4.1193-50.249-12.86-60.386-23.856-5.1262-5.5613-7.1218-9.9861-7.0923-15.726l0.022-4.2821 1.8234 4c5.6895 12.481 23.311 23.299 47.856 29.381 14.453 3.5809 24.339 4.3902 46.715 3.8241 24.833-0.62818 31.834-1.9296 53.562-9.9561 12.32-4.5514 26.428-14.91 29.193-21.434l1.1928-2.8148 0.37728 2.7892c0.54406 4.0222-3.1205 10.836-8.5684 15.932-9.334 8.7309-25.616 15.72-46.534 19.974-8.1273 1.6529-14.663 2.1207-32.661 2.3376-12.375 0.14918-23.85 0.0735-25.5-0.16815zm4.9347-73.824c-1.8128-2.7667-1.2405-7.6269 1.1296-9.594 1.223-1.015 1.4357-0.21055 1.4357 5.4309 0 3.6423-0.21463 6.6224-0.47695 6.6224s-1.2021-1.1067-2.0884-2.4594zm74.399-233.49c-0.18333-0.52461-3.1559-1.3121-6.6057-1.75l-6.2724-0.79615 9.7077-6.5c15.301-10.245 31.367-22.414 50.837-38.508 9.9-8.183 18.543-15.415 19.208-16.071s5.6142-1.9762 11-2.9333 13.095-2.6182 17.132-3.6912c4.0366-1.073 7.5129-1.7774 7.725-1.5653 0.65115 0.65115-92.662 67.769-94.218 67.769-0.26369 0-1.9544 1.125-3.7571 2.5-3.6044 2.7492-4.2606 2.9625-4.7556 1.5462zm-22.009-4.5547c-0.27969-0.27969-5.164-0.95211-10.854-1.4943-5.6901-0.54216-10.6-1.3974-10.911-1.9006-0.31098-0.50319-4.2766-1.4575-8.8126-2.1208s-8.2471-1.6041-8.2471-2.0908-1.4625-0.88991-3.25-0.89597c-6.8665-0.0232-10.503-1.1504-11.62-3.6022-0.62419-1.37-1.9487-2.3868-3.109-2.3868-1.3548 0-2.0214-0.6596-2.0214-2 0-1.1-0.45-2-1-2s-1-0.675-1-1.5c0-0.84106-0.89238-1.5-2.0314-1.5-1.1173 0-2.3235-0.7875-2.6806-1.75-0.35707-0.9625-1.392-2.425-2.2998-3.25-1.731-1.5731-4.3243-7.9973-3.5435-8.7781 0.24958-0.24957 8.2391 0.14135 17.755 0.86873 19.423 1.4847 19.704 1.4894 29.051 0.47951l6.75-0.72934v-6.4204c0-4.3862 0.39605-6.47 1.25-6.5769 1.8599-0.2329 4.3157-0.43547 27.25-2.2477 11.55-0.91267 26.467-2.5451 33.15-3.6276 6.6822-1.0825 13.377-1.9682 14.877-1.9682h2.7278l-4.2522 4.75c-11.839 13.224-29.946 30.551-42.138 40.322-13.875 11.119-14.149 11.31-15.04 10.419zm-116.82-24.491c0-0.57143-3-1-7-1s-7-0.42857-7-1c0-0.55-0.675-1-1.5-1s-1.5-0.41762-1.5-0.92804c0-0.51043-2.4956-1.2398-5.5457-1.6209s-5.312-0.92657-5.0264-1.2122-1.115-1.3952-3.1124-2.4658c-1.9974-1.0706-4.2677-2.5825-5.045-3.3598-0.77732-0.77732-1.7187-1.4139-2.0919-1.4145-0.37321-6.7e-4 -1.8742-1.0132-3.3355-2.25-1.4613-1.2368-3.6421-2.9238-4.8462-3.7488-1.2041-0.825-2.8744-1.983-3.7118-2.5734-0.83738-0.59036 3.3684 0.17553 9.3462 1.702 5.9778 1.5264 12.706 2.797 14.952 2.8234 3.5798 0.0421 5.4304 1.1055 15 8.6194 12.79 10.043 13.22 10.429 11.616 10.429-0.66 0-1.2-0.45-1.2-1zm62.5-37.026c-9.35-1.0062-17.112-1.862-17.25-1.9019-0.1375-0.0399-0.25-4.9746-0.25-10.966v-10.894l4.25 0.97444c2.3375 0.53594 6.3875 1.3209 9 1.7444l4.75 0.76992v-43.371-43.371l2.385-3.7781c4.0982-6.492 12.653-13.979 20.838-18.237l7.8657-4.0922-1.638 3.8236c-4.8596 11.343-5.8381 19.739-2.9514 25.322 3.3836 6.5432 15.521 12.698 33.633 17.055 51.324 12.347 50.567 12.109 57.273 17.997 1.9029 1.6708 4.4442 5.071 5.6472 7.5561 1.9132 3.9522 2.1242 5.6694 1.6838 13.706-0.6347 11.581 1.0059 16.293 6.0148 17.274 3.1473 0.61641 3.25 0.79418 3.25 5.6252 0 4.3646 0.43627 5.425 3.4875 8.4762 1.9181 1.9181 4.0354 3.3049 4.705 3.0817s2.1574-3.3001 3.3062-6.8375c1.4448-4.449 2.5376-6.3331 3.545-6.112 4.9046 1.0767 16.707 5.9099 20.726 8.4875l4.7303 3.0338-9.5 2.2834c-7.1029 1.7072-25.397 3.6763-72.5 7.8038-80.058 7.0151-73.181 6.6789-93 4.5462z" fill="#e5bc75"/>
<path d="m201.5 528.36c-28.125-4.1193-50.249-12.86-60.386-23.856-5.1262-5.5613-7.1218-9.9861-7.0923-15.726l0.022-4.2821 1.8234 4c5.6895 12.481 23.311 23.299 47.856 29.381 14.453 3.5809 24.339 4.3902 46.715 3.8241 24.833-0.62818 31.834-1.9296 53.562-9.9561 12.32-4.5514 26.428-14.91 29.193-21.434l1.1928-2.8148 0.37728 2.7892c0.54406 4.0222-3.1205 10.836-8.5684 15.932-9.334 8.7309-25.616 15.72-46.534 19.974-8.1273 1.6529-14.663 2.1207-32.661 2.3376-12.375 0.14918-23.85 0.0735-25.5-0.16815zm4.9347-73.824c-1.8128-2.7667-1.2405-7.6269 1.1296-9.594 1.223-1.015 1.4357-0.21055 1.4357 5.4309 0 3.6423-0.21463 6.6224-0.47695 6.6224s-1.2021-1.1067-2.0884-2.4594zm96.644-247.2c-0.04342-0.63589-2.329-1.4656-5.079-1.8438-3.1343-0.43108-5-1.1814-5-2.0108 0-0.72774 3.9375-4.3705 8.75-8.0951 4.8125-3.7246 17.542-14.07 28.288-22.99l19.538-16.218 8.9618-1.6447c4.929-0.90457 12.496-2.5502 16.815-3.657 4.3191-1.1068 8.0209-1.8444 8.2261-1.6392s-14.129 10.805-31.853 23.556c-17.724 12.75-33.126 23.904-34.226 24.785-1.1 0.88128-3.0125 2.0821-4.25 2.6686-1.2375 0.58644-2.25 1.444-2.25 1.9058 0 0.46171-0.62686 0.83948-1.393 0.83948-0.76616 0-1.652 0.675-1.9686 1.5-0.31658 0.825-1.2272 1.5-2.0236 1.5s-1.675 0.5625-1.9524 1.25c-0.33856 0.83903-0.53034 0.86989-0.58333 0.0938zm-36.303-8.5161c-0.21934-0.65804-3.1072-1.3688-6.5833-1.6202-3.4059-0.24636-6.1926-0.79062-6.1926-1.2095 0-0.41885-3.825-1.0802-8.5-1.4696-4.675-0.38943-8.5-1.0276-8.5-1.4182 0-0.39059-2.7-1.2678-6-1.9494-3.3-0.6816-6-1.5938-6-2.0272 0-0.80782-11.033-3.1336-14.865-3.1336-1.1741 0-3.0791-0.94442-4.2334-2.0987-1.8766-1.8766-1.903-2.0414-0.25-1.5569 1.0168 0.29802 6.3487 0.82383 11.849 1.1685 7.6133 0.47706 15.216 0.0133 31.856-1.9431 12.021-1.4134 22.033-2.5697 22.25-2.5697 0.21669 0 0.39399-2.667 0.39399-5.9267 0-4.7841-0.33738-6.0247-1.75-6.4351-1.4134-0.41066-1.3653-0.48648 0.25-0.39414 4.4241 0.25291 21.669-1.5012 32.611-3.3171 13.107-2.1753 16.202-2.3599 15.722-0.93828-0.6662 1.976-23.474 25.498-30.71 31.673l-7.4285 6.3384h-6.7641c-4.2831 0-6.9074-0.42996-7.1548-1.1723zm-22.505-30.432c0.33229-0.33229 1.1948-0.36781 1.9167-0.0789 0.79773 0.31922 0.56078 0.55618-0.60417 0.60416-1.0542 0.0434-1.6448-0.19293-1.3125-0.52522zm13-1c0.33229-0.33229 1.1948-0.36781 1.9167-0.0789 0.79773 0.31922 0.56078 0.55618-0.60417 0.60416-1.0542 0.0434-1.6448-0.19293-1.3125-0.52522zm-37.771-10.961c-1.1-0.18023-5.0375-0.61257-8.75-0.96077l-6.75-0.63309v-9.7411-9.7411l5.25 0.74772c2.8875 0.41124 6.2586 0.78057 7.4912 0.82072l2.2412 0.073 0.25877-53.202 0.25876-53.202 8.2181-4.3577 8.2181-4.3577-2.9681 7.1977c-2.1445 5.2004-2.9681 8.8383-2.9681 13.11 0 9.3213 2.9111 13.325 13.5 18.565 8.3012 4.1083 12.334 5.2912 42 12.319 14.3 3.3877 27.675 7.0103 29.722 8.0502 5.6816 2.8861 10.41 7.4877 12.829 12.485 1.9132 3.9522 2.1242 5.6694 1.6838 13.706-0.63786 11.639 0.99927 16.292 6.0824 17.286 3.0696 0.60068 3.3052 0.92013 3.1531 4.2752-0.25321 5.5843-0.17502 5.8237 3.133 9.5912 4.6606 5.3081 6.2751 4.7334 8.3622-2.9768 0.96943-3.5814 2.0487-6.6745 2.3984-6.8736 1.1536-0.65696 18.229 6.1808 22.474 8.9995l4.1622 2.7639-9.5 2.2648c-11.253 2.6826-144.04 14.851-150.5 13.792z" fill="#cdbb8c"/>
<path d="m201.5 528.36c-28.125-4.1193-50.249-12.86-60.386-23.856-5.1262-5.5613-7.1218-9.9861-7.0923-15.726l0.022-4.2821 1.8234 4c5.6895 12.481 23.311 23.299 47.856 29.381 14.453 3.5809 24.339 4.3902 46.715 3.8241 24.833-0.62818 31.834-1.9296 53.562-9.9561 12.32-4.5514 26.428-14.91 29.193-21.434l1.1928-2.8148 0.37728 2.7892c0.54406 4.0222-3.1205 10.836-8.5684 15.932-9.334 8.7309-25.616 15.72-46.534 19.974-8.1273 1.6529-14.663 2.1207-32.661 2.3376-12.375 0.14918-23.85 0.0735-25.5-0.16815zm4.9347-73.824c-1.8128-2.7667-1.2405-7.6269 1.1296-9.594 1.223-1.015 1.4357-0.21055 1.4357 5.4309 0 3.6423-0.21463 6.6224-0.47695 6.6224s-1.2021-1.1067-2.0884-2.4594zm91.815-248.87c-3.0876-0.55703-5.25-1.4714-5.25-2.22 0-0.70009 5.0625-5.218 11.25-10.04s17.775-14.224 25.75-20.894c19.753-16.521 18.994-16.071 30.5-18.058 5.5-0.94975 12.881-2.5719 16.402-3.6048 3.5212-1.0329 6.503-1.759 6.6262-1.6135 0.34616 0.40872-75.799 55.196-79.028 56.862-0.55 0.28369-3.3625 0.0896-6.25-0.43134zm-31.474-6.8381c-0.21934-0.65804-3.1072-1.3688-6.5833-1.6202-3.4059-0.24636-6.1926-0.79062-6.1926-1.2095 0-0.41885-3.825-1.0802-8.5-1.4696-4.675-0.38943-8.5-1.0276-8.5-1.4182 0-0.39059-2.7-1.2678-6-1.9494-3.3-0.6816-6-1.5938-6-2.0272 0-0.80782-11.033-3.1336-14.865-3.1336-1.1741 0-3.0791-0.94442-4.2334-2.0987-1.8766-1.8766-1.903-2.0414-0.25-1.5569 1.0168 0.29802 6.3487 0.82383 11.849 1.1685 7.6133 0.47706 15.216 0.0133 31.856-1.9431 12.021-1.4134 22.012-2.5697 22.202-2.5697s0.48025-2.8125 0.64399-6.25l0.29772-6.25 13-1.1423c7.15-0.62825 17.451-1.8768 22.892-2.7746s10.114-1.41 10.386-1.1383c1.043 1.043-23.46 26.404-33.708 34.888-4.1334 3.422-4.881 3.6675-11.167 3.6675-4.2622 0-6.8802-0.43059-7.1274-1.1723zm-58.026-43.563-4.75-0.37454v-9.7659-9.7659l5.25 0.74772c2.8875 0.41124 6.2586 0.78057 7.4912 0.82072l2.2412 0.073 0.25877-53.202 0.25876-53.202 8.2181-4.3577 8.2181-4.3577-2.9681 7.1977c-2.1445 5.2004-2.9681 8.8383-2.9681 13.11 0 9.162 2.9222 13.3 12.929 18.31 8.301 4.1557 11.544 5.1216 40.183 11.968 33.551 8.0203 40.124 11.135 44.903 21.279 1.9852 4.2136 2.178 5.8177 1.69 14.059-0.44569 7.5278-0.23154 9.913 1.1222 12.499 2.0466 3.9098 3.0113 4.6627 5.9995 4.6824 2.0501 0.0135 2.3059 0.46076 2.1531 3.7653-0.2645 5.7214-0.19625 5.9336 3.124 9.7152 4.6588 5.3061 6.2753 4.7327 8.359-2.9652 0.9677-3.575 2.1737-6.5 2.68-6.5 4.4286 0 25.679 9.6177 24.231 10.966-2.8638 2.6663-22.181 5.2456-70.873 9.4631-28.6 2.4772-57.246 4.969-63.657 5.5372-11.158 0.98894-23.917 1.1005-34.093 0.29815z" fill="#e4b768"/>
<path d="m201.5 528.36c-28.125-4.1193-50.249-12.86-60.386-23.856-5.1262-5.5613-7.1218-9.9861-7.0923-15.726l0.022-4.2821 1.8234 4c5.6895 12.481 23.311 23.299 47.856 29.381 14.453 3.5809 24.339 4.3902 46.715 3.8241 24.833-0.62818 31.834-1.9296 53.562-9.9561 12.32-4.5514 26.428-14.91 29.193-21.434l1.1928-2.8148 0.37728 2.7892c0.54406 4.0222-3.1205 10.836-8.5684 15.932-9.334 8.7309-25.616 15.72-46.534 19.974-8.1273 1.6529-14.663 2.1207-32.661 2.3376-12.375 0.14918-23.85 0.0735-25.5-0.16815zm4.9347-73.824c-1.8128-2.7667-1.2405-7.6269 1.1296-9.594 1.223-1.015 1.4357-0.21055 1.4357 5.4309 0 3.6423-0.21463 6.6224-0.47695 6.6224s-1.2021-1.1067-2.0884-2.4594zm87.296-250.2c0.67703-0.27392 2.027-0.29059 3-0.0371 0.97297 0.25354 0.41903 0.47766-1.231 0.49804-1.65 0.0204-2.4461-0.18706-1.769-0.46099zm0.26903-2.7054c0-0.19876 3.4812-3.0113 7.7361-6.25s15.617-12.433 25.25-20.432 18.864-15.496 20.514-16.66c1.8926-1.3352 6.6914-2.754 13-3.8433 5.5-0.94975 12.881-2.5719 16.402-3.6048 3.5212-1.0329 6.505-1.759 6.6307-1.6135 0.20936 0.24234-19.161 14.323-57.798 42.014l-14.999 10.75h-8.3681c-4.6024 0-8.3681-0.16262-8.3681-0.36138zm-27.224-2.8109c-0.21934-0.65804-3.1072-1.3688-6.5833-1.6202-3.4059-0.24636-6.1926-0.79062-6.1926-1.2095 0-0.41885-3.825-1.0802-8.5-1.4696-4.675-0.38943-8.5-1.0276-8.5-1.4182 0-0.39059-2.7-1.2678-6-1.9494-3.3-0.6816-6-1.5938-6-2.0272 0-0.80782-11.033-3.1336-14.865-3.1336-1.1741 0-3.0791-0.94442-4.2334-2.0987-1.8766-1.8766-1.903-2.0414-0.25-1.5569 1.0168 0.29802 6.3487 0.82383 11.849 1.1685 7.6133 0.47706 15.216 0.0133 31.856-1.9431 12.021-1.4134 22.012-2.5697 22.202-2.5697s0.48025-2.8125 0.64399-6.25l0.29772-6.25 13-1.1423c7.15-0.62825 17.451-1.8768 22.892-2.7746s10.114-1.41 10.386-1.1383c1.043 1.043-23.46 26.404-33.708 34.888-4.1334 3.422-4.881 3.6675-11.167 3.6675-4.2622 0-6.8802-0.43059-7.1274-1.1723zm-24.776-50.8v-7.0278h5 5v-38.117-38.117l2.25 0.63221c1.2375 0.34771 14.225 3.5111 28.862 7.0297 33.556 8.0671 40.132 11.188 44.903 21.315 1.9852 4.2136 2.178 5.8177 1.69 14.059-0.44569 7.5278-0.23154 9.913 1.1222 12.499 2.0466 3.9098 3.0113 4.6627 5.9995 4.6824 2.0501 0.0135 2.3059 0.46076 2.1531 3.7653-0.2645 5.7214-0.19625 5.9336 3.124 9.7152 4.6588 5.3061 6.2753 4.7327 8.359-2.9652 0.9677-3.575 2.1737-6.5 2.68-6.5 4.4286 0 25.679 9.6177 24.231 10.966-2.8648 2.6672-22.176 5.245-70.873 9.4603-28.6 2.4757-54.812 4.755-58.25 5.0651l-6.25 0.56386v-7.0278z" fill="#dcb56a"/>
<path d="m201.5 528.36c-28.125-4.1193-50.249-12.86-60.386-23.856-5.1262-5.5613-7.1218-9.9861-7.0923-15.726l0.022-4.2821 1.8234 4c5.6895 12.481 23.311 23.299 47.856 29.381 14.453 3.5809 24.339 4.3902 46.715 3.8241 24.833-0.62818 31.834-1.9296 53.562-9.9561 12.32-4.5514 26.428-14.91 29.193-21.434l1.1928-2.8148 0.37728 2.7892c0.54406 4.0222-3.1205 10.836-8.5684 15.932-9.334 8.7309-21.638 15.222-44.048 19.974-8.1133 1.7202-17.15 3.3639-35.147 3.5808-12.375 0.14918-23.85-1.1697-25.5-1.4113zm4.9347-73.824c-1.8128-2.7667-1.2405-7.6269 1.1296-9.594 1.223-1.015 1.4357-0.21055 1.4357 5.4309 0 3.6423-0.21463 6.6224-0.47695 6.6224s-1.2021-1.1067-2.0884-2.4594zm115.82-268.25c-1.2375-0.23836-2.25-0.81908-2.25-1.2905s-0.60234-1.0026-1.3385-1.1804c-0.73619-0.17782 5.7918-6.3045 14.507-13.615l15.845-13.292 10.743-1.9992c5.9089-1.0996 13.668-2.8624 17.243-3.9174 6.4396-1.9004 6.4782-1.9002 4.1586 0.0251-1.2878 1.0688-13.062 9.6004-26.166 18.959-24.818 17.726-24.978 17.806-32.743 16.31zm-24.574-7.6958c-0.39183-1.0211 0.51521-1.502 3.3412-1.7715 3.6574-0.34879 3.7874-0.26871 2.2759 1.4016-1.9204 2.122-4.8702 2.3162-5.617 0.36992zm13.354-12.218c-0.0288-3.9818 0.0934-4.1392 3.6676-4.7192 2.0336-0.33001 3.7966-0.50091 3.9177-0.37978 0.12113 0.12112-1.5293 2.2448-3.6676 4.7192l-3.8879 4.499-0.0298-4.1192zm-69.03-18.287v-7.0938h5 5v-38.117-38.117l2.25 0.64424c1.2375 0.35433 14.37 3.5745 29.184 7.156 34.644 8.3758 40.224 11.189 45.035 22.705 1.6869 4.0373 1.963 12.162 0.61119 17.984-0.55251 2.3793-0.50638 3.9813 0.12589 4.3721 0.54886 0.33922 1.633 2.1368 2.4093 3.9947 1.1634 2.7844 1.9442 3.3779 4.444 3.3779 2.9353 0 3.0257 0.13639 2.8148 4.25-0.23686 4.6213 1.2351 8.1772 4.5225 10.925 2.154 1.8006 5.6032 2.4432 5.6032 1.0439 0-0.42942 1.3579-1.2933 3.0175-1.9197 1.9822-0.74821 3.5307-2.3673 4.5134-4.7192 0.86604-2.0727 2.1964-3.5803 3.1595-3.5803 2.4887 0 18.452 7.9598 17.866 8.9084-1.4546 2.3536-24.635 5.3716-73.557 9.5769-28.875 2.4821-54.638 4.7805-57.25 5.1076l-4.75 0.59473z" fill="#9ea7aa"/>
<path d="m322.25 186.29c-1.2375-0.23836-2.25-0.81908-2.25-1.2905s-0.60234-1.0026-1.3385-1.1804c-0.73619-0.17782 5.7918-6.3045 14.507-13.615l15.845-13.292 10.743-1.9992c5.9089-1.0996 13.668-2.8624 17.243-3.9174 6.4396-1.9004 6.4782-1.9002 4.1586 0.0251-1.2878 1.0688-13.062 9.6004-26.166 18.959-24.818 17.726-24.978 17.806-32.743 16.31zm-24.574-7.6958c-0.39183-1.0211 0.51521-1.502 3.3412-1.7715 3.6574-0.34879 3.7874-0.26871 2.2759 1.4016-1.9204 2.122-4.8702 2.3162-5.617 0.36992zm13.354-12.218c-0.0288-3.9818 0.0934-4.1392 3.6676-4.7192 2.0336-0.33001 3.7966-0.50091 3.9177-0.37978 0.12113 0.12112-1.5293 2.2448-3.6676 4.7192l-3.8879 4.499-0.0298-4.1192zm-69.03-18.287v-7.0938h5 5v-38.117-38.117l2.25 0.64424c1.2375 0.35433 14.37 3.5745 29.184 7.156 34.644 8.3758 40.224 11.189 45.035 22.705 1.6869 4.0373 1.963 12.162 0.61119 17.984-0.55251 2.3793-0.50638 3.9813 0.12589 4.3721 0.54886 0.33922 1.633 2.1368 2.4093 3.9947 1.1634 2.7844 1.9442 3.3779 4.444 3.3779 2.9353 0 3.0257 0.13639 2.8148 4.25-0.23686 4.6213 1.2351 8.1772 4.5225 10.925 2.154 1.8006 5.6032 2.4432 5.6032 1.0439 0-0.42942 1.3579-1.2933 3.0175-1.9197 1.9822-0.74821 3.5307-2.3673 4.5134-4.7192 0.86604-2.0727 2.1964-3.5803 3.1595-3.5803 2.4887 0 18.452 7.9598 17.866 8.9084-1.4546 2.3536-24.635 5.3716-73.557 9.5769-28.875 2.4821-54.638 4.7805-57.25 5.1076l-4.75 0.59473v-7.0938z" fill="#d9ab55"/>
<path d="m347 165.13c0-7.6423 0.88638-8.2927 14.5-10.64 5.5-0.94849 11.993-2.3476 14.428-3.1092 7.1089-2.223 6.9387-1.7112-1.4687 4.4162-15.335 11.176-19.99 14.071-23.709 14.744l-3.75 0.67821v-6.0882zm-66-18.115c0-3.4069 0.35866-4.071 2.4872-4.6052l2.4872-0.62424 0.26284-34.198 0.26284-34.198 11.388 2.7927c18.455 4.5259 25.912 9.0458 30.212 18.313 2.0096 4.3309 2.4847 12.974 0.9982 18.157-0.70754 2.467-0.43834 4.1248 1.25 7.6977 1.9054 4.0322 2.5308 4.5588 5.463 4.5992l3.3113 0.0457-0.60104 4.25c-0.69977 4.9482 1.5008 9.3701 5.8041 11.663 2.3958 1.2765 3.0848 1.1904 7.1322-0.89132 3.3225-1.7088 4.7738-3.1935 5.6159-5.7451 1.0035-3.0406 1.4432-3.3695 3.7809-2.8277 1.4549 0.33722 5.9743 2.2316 10.043 4.2098 8.6605 4.2106 8.4799 4.495-4.632 7.2955-7.4817 1.598-17.737 2.6885-52.266 5.5576-3.025 0.25136-10 0.90246-15.5 1.4469s-11.688 1.0015-13.75 1.0157c-3.7097 0.0255-3.75-0.017-3.75-3.9552z" fill="#d3a349"/>
<path d="m367.75 153.34c0.6875-0.27741 1.8125-0.27741 2.5 0s0.125 0.50439-1.25 0.50439-1.9375-0.22698-1.25-0.50439zm-59.004-38.084c0.19113-18.015 0.43895-33.569 0.5507-34.566 0.18635-1.6618 0.61724-1.5972 5.2032 0.7807 12.347 6.4021 17.652 17.565 14.596 30.715-0.70418 3.0308-0.41056 4.5839 1.656 8.7597 2.4717 4.9944 2.4849 5.1466 0.82136 9.5025-1.9534 5.115-7.4376 10.446-14.288 13.889-9.8886 4.9703-8.9355 8.2159-8.5398-29.081zm40.254 27.813c0-1.1344 0.92934-2.2158 2.25-2.6183 3.3939-1.0342 5.5634-3.3229 6.2912-6.6366 0.57638-2.6242 0.96763-2.9016 3.276-2.3222 4.2672 1.071 15.692 6.9581 15.574 8.0251-0.1419 1.2828-17.647 5.4057-23.141 5.4502-3.5458 0.0287-4.25-0.28579-4.25-1.8982z" fill="#ce9e3f"/>
</g>
<path d="m355.5 144.94 7-7.0817 7-7.0817-4 0.58637c-2.2 0.32251-6.4606 1.2731-9.4679 2.1124-5.7903 1.616-14.639 2.0525-15.199 0.7497-3.9142-8.6984-4.767-31.729-4.767-31.729 1.5461 0.4604-0.0656 1.8458-0.0604-4.1773 0.0194-22.384 8.856-49.44 20.202-61.854 7.0245-7.6859 11.018-10.009 25.211-14.663 11.618-3.8101 12.484-3.9455 22.582-3.5293 18.114 0.74677 31.243 6.878 41.314 19.294 12.737 15.702 20.429 44.312 17.777 66.123-2.1016 17.285-7.9557 29.953-19.419 42.02-9.146 9.6283-17.634 15.088-31.673 20.374-10.4 3.9158-12.361 4.3326-20.5 4.3588-8.6834 0.0279-9.3166-0.12882-18-4.4558l-9-4.4848c-28.031-10.558 4.7237-12.551-9-16.561z" fill="#e28476"/>
<path d="m351.16 150.6c-0.49821-0.30792 3.4237-4.8872 8.7154-10.176l9.6212-9.6163-4 0.56969c-2.2 0.31333-6.4606 1.2564-9.4679 2.0957-6.0232 1.681-14.676 2.0372-15.199 0.62571l-4.3422-30.087c2.3388 0.58701-0.49102 1.0722-0.48523-5.6545 0.0193-22.425 8.8466-49.471 20.202-61.895 7.0245-7.6859 11.018-10.009 25.211-14.663 11.618-3.8101 12.484-3.9455 22.582-3.5293 18.114 0.74677 31.243 6.878 41.314 19.294 12.737 15.702 20.429 44.312 17.777 66.123-2.1016 17.285-7.9557 29.953-19.419 42.02-9.146 9.6283-17.634 15.088-31.673 20.374-10.4 3.9158-12.361 4.3326-20.5 4.3588-8.6834 0.0279-9.3166-0.12882-18-4.4558l-9-4.4848c-9.7683-9.1672-8.5106-0.42566-13.337-10.899z" fill="#a8ea45"/>
<path d="m351.09 150.56c-0.53702-0.3319 2.8755-4.2317 7.5833-8.6662 6.1053-5.7508 9.0988-7.9218 10.44-7.5712 1.4822 0.38761 4.1196-2.555 12.471-13.914 5.8251-7.9232 10.94-14.406 11.368-14.406 3.2525 0 9.7274 10.179 15.426 24.25 0.83524 2.0625 1.8791 3.7478 2.3196 3.745 0.44057-3e-3 2.109-1.0515 3.7076-2.3307l2.9065-2.3257-8.2891-14.919c-4.559-8.2056-8.4868-15.266-8.7285-15.69-0.78272-1.3732 5.9072-3.4769 19.954-6.2748 11.957-2.3815 13.75-2.9898 13.75-4.6638 0-1.3721-0.50272-1.7703-1.75-1.3862-5.2937 1.6303-27.738 6.5958-29.814 6.5958-2.2 0-2.436-0.41228-2.4338-4.25 3e-3 -4.9798 3.8714-20.018 7.3543-28.59l2.4388-6.002-2.9299-1.2136c-1.6114-0.66748-3.0612-1.0405-3.2217-0.829-0.16046 0.21153-1.2543 6.2346-2.4307 13.385-4.2383 25.76-4.8005 25.99-18.302 7.5-3.0122-4.125-7.0098-9.975-8.8835-13s-3.5324-5.6735-3.6859-5.8855c-0.15353-0.212-1.4561 0.38569-2.8945 1.3282-2.2043 1.4443-2.3897 1.8978-1.1796 2.8855 1.5205 1.2409 14.186 17.161 19.549 24.572 3.9426 5.4484 4.1464 8.7835 0.61888 10.125-5.947 2.2611-36.899 0.41804-38.626-2.2999-0.42798-0.67365-0.83828-2.7998-0.91177-4.7248l-0.13363-3.5-0.76337 3c-0.41985 1.65-0.81715 5.025-0.88288 7.5l-0.11952 4.5 18.782-0.3084c20.734-0.34044 24.22 0.2669 24.22 4.2195 0 3.5472-7.7898 14.408-13.687 19.084-12.316 9.7642-12.119 9.5788-9.0563 8.5109 4.3853-1.529 8.2457-3.7182 11.848-6.7192l3.345-2.7863-2.1337 3c-4.0081 5.6353-7.6255 8.2319-12.316 8.8406-2.475 0.32116-6.9606 1.2759-9.9679 2.1217-6.0136 1.6912-14.675 2.0535-15.199 0.63583-0.10686-0.40689-4.8274-35.74-4.8274-35.74s8.8466-49.471 20.202-61.895c7.0245-7.6859 11.018-10.009 25.211-14.663 11.618-3.8101 12.484-3.9455 22.582-3.5293 18.114 0.74677 31.243 6.878 41.314 19.294 12.737 15.702 20.429 44.312 17.777 66.123-2.1016 17.285-7.9557 29.953-19.419 42.02-9.146 9.6283-17.634 15.088-31.673 20.374-10.4 3.9158-12.361 4.3326-20.5 4.3588-8.6834 0.0279-9.3166-0.12882-18-4.4558l-9-4.4848c-7.4238-12.176-6.1264 3.3277-13.407-10.943z" fill="#e9f9ba"/>
<path d="m358.79 152.56c3.1383 2.6016 9.081 6.353 13.206 8.3362 6.4884 3.1196 8.6684 3.6526 16.163 3.9522 10.728 0.42879 17.096-1.2795 25.884-6.9432 14.99-9.6618 25.759-24.452 29.556-40.592 2.1384-9.0912 1.3904-28.477-1.5554-40.311-7.819-31.411-27.655-47.977-56.047-46.807-7.7139 0.31787-10.628 0.90991-15.5 3.1489-6.6118 3.0387-14.03 9.7218-18.492 16.658-4.2469 6.6034-9.6128 21.243-11.551 31.515-1.9566 10.368-1.5581 32.906 0.71312 40.336 1.2375 4.0481 1.3056 3.4838 0.98049-8.1237-0.46604-16.64-1.8578-15.727 23.949-15.727 23.575 0 23.927 0.15018 19.578 8.3494-3.663 6.9069-7.7807 11.154-18.048 18.613-4.737 3.4416-8.4022 6.598-8.1451 7.0141 0.54325 0.879-9.3526 3.0233-13.952 3.0233-1.7233 0-3.5898-0.45656-4.1478-1.0146-3.4128-12.428-6.4675-31.021-5.8566-28.985 0.0971 0 0.48894-4.8375 0.87072-10.75 1.6906-26.183 10.854-50.116 23.597-61.628 4.2565-3.8455 15.135-9.6198 18.126-9.6212 0.89259-4.34e-4 3.8176-0.97598 6.5-2.1679 3.5918-1.596 7.5126-2.2829 14.877-2.6065 36.204-1.5909 59.557 24.276 64 70.893 1.3747 14.421-3.5125 34.065-11.515 46.282-5.1283 7.8296-15.462 18.009-23.503 23.153-7.9231 5.0684-29.553 12.446-36.49 12.446-5.4797 0-14.73-2.727-21.569-6.3586l-6.1764-3.2797c-1.1279-7.2595-16.485-18.105-5.4526-8.8039zm12.412 3.1503c-6.69-3.8599-7.2512-4.4328-6.7819-6.9237 0.85524-4.5388 7.4926-14.699 27.212-41.655 0.94209-1.2878 5.2433 1.4202 7.2735 4.5794 3.0207 4.7005 15.149 31.885 15.797 35.406 0.37475 2.0378-0.14687 3.0576-2.3628 4.6194-5.5527 3.9136-11.266 6.237-16.52 6.7176-18.189 1.6641-16.687 1.8316-24.618-2.7441zm51.693-18.33c-0.7402-0.89189-6.1123-10.004-11.938-20.25-10.511-18.486-10.575-18.638-8.3405-19.877 3.0414-1.6863 30.297-6.9733 33.168-6.4338 3.6193 0.68022 5.2111 5.0695 5.216 14.383 4e-3 7.4002-0.44173 9.4111-4.1122 18.555-5.2266 13.021-10.352 18.01-13.993 13.623zm-55.334-8.2688c2.236-1.0156 5.836-3.3414 8-5.1684 3.3167-2.8002 3.1553-2.5068-1.0278 1.8684-3.8724 4.0502-5.6296 5.1856-8 5.1684-3.0208-0.0218-3.0152-0.0322 1.0278-1.8684zm-10.501-36.462c-8.0655-1.0969-8.4687-1.2731-9.1964-4.0201-0.64658-2.4407 1.8739-20.736 3.6785-26.701 0.9788-3.2352 4.5116-5.9263 7.78-5.9263 4.2994 0 7.5572 2.9488 18.229 16.5 14.858 18.867 14.955 20.493 1.2254 20.514-5.1048 0.0075-10.181 0.18624-11.281 0.39718-1.1 0.21094-5.7959-0.13271-10.435-0.76366zm43.3-1.1394c-1.4256-3.7152 5.3716-28.19 10.765-38.762 4.5529-8.9244 10.221-6.8058 19.214 7.1816 3.2044 4.9841 6.3249 10.384 6.9345 11.999 1.5321 4.0591-0.084 9.8678-3.4379 12.357-2.2389 1.6614-27.622 8.6452-31.621 8.7002-0.70477 0.0097-1.5391-0.65388-1.854-1.4746zm-14.359-15c-3.8558-5.2207-9.4683-13.447-12.472-18.28-6.0325-9.7062-6.2292-11.608-1.7048-16.484 3.1998-3.4486 7.7191-4.732 16.671-4.7344 8.1892-0.0022 13.034 2.2852 14.135 6.674 1.1659 4.6454-2.8902 33.331-5.6655 40.067-0.50986 1.2375-1.608 2.25-2.4403 2.25s-4.668-4.2715-8.5239-9.4923z" fill="#c9ffa9"/>
<path d="m358.79 152.56c3.1383 2.6016 9.081 6.353 13.206 8.3362 6.4884 3.1196 8.6684 3.6526 16.163 3.9522 10.728 0.42879 17.096-1.2795 25.884-6.9432 14.99-9.6618 25.759-24.452 29.556-40.592 2.1384-9.0912 1.3904-28.477-1.5554-40.311-7.819-31.411-27.655-47.977-56.047-46.807-7.7139 0.31787-10.628 0.90991-15.5 3.1489-6.6118 3.0387-14.03 9.7218-18.492 16.658-4.2469 6.6034-9.6128 21.243-11.551 31.515-1.9566 10.368-1.5581 32.906 0.71312 40.336 1.2375 4.0481 1.3056 3.4838 0.98049-8.1237-0.46604-16.64-1.8578-15.727 23.949-15.727 23.575 0 23.927 0.15018 19.578 8.3494-3.663 6.9069-7.7807 11.154-18.048 18.613-4.737 3.4416-6.4139 6.5295-8.1451 7.4806-1.0127 0.55632-15.256 3.9706-19.25 2.2541-10.061-49.121-1.2731-40.784-3.8362-40.447 1.6906-26.183 10.854-50.116 23.597-61.628 4.2565-3.8455 15.135-9.6198 18.126-9.6212 0.89259-4.34e-4 3.8176-0.97598 6.5-2.1679 3.5918-1.596 7.5126-2.2829 14.877-2.6065 36.204-1.5909 59.557 24.276 64 70.893 1.3747 14.421-3.5125 34.065-11.515 46.282-5.1283 7.8296-15.462 18.009-23.503 23.153-7.9231 5.0684-29.553 12.446-36.49 12.446-5.4797 0-14.73-2.727-21.569-6.3586l-6.1764-3.2797c-18.951-7.7627-7.6434-13.345-5.4526-8.8039zm12.412 3.1503c-6.69-3.8599-7.2512-4.4328-6.7819-6.9237 0.85524-4.5388 7.4926-14.699 27.212-41.655 0.94209-1.2878 5.2433 1.4202 7.2735 4.5794 3.0207 4.7005 15.149 31.885 15.797 35.406 0.37475 2.0378-0.14687 3.0576-2.3628 4.6194-5.5527 3.9136-11.266 6.237-16.52 6.7176-18.189 1.6641-16.687 1.8316-24.618-2.7441zm51.693-18.33c-0.7402-0.89189-6.1123-10.004-11.938-20.25-10.511-18.486-10.575-18.638-8.3405-19.877 3.0414-1.6863 30.297-6.9733 33.168-6.4338 3.6193 0.68022 5.2111 5.0695 5.216 14.383 4e-3 7.4002-0.44173 9.4111-4.1122 18.555-5.2266 13.021-10.352 18.01-13.993 13.623zm-55.334-8.2688c2.236-1.0156 5.836-3.3414 8-5.1684 3.3167-2.8002 3.1553-2.5068-1.0278 1.8684-3.8724 4.0502-5.6296 5.1856-8 5.1684-3.0208-0.0218-3.0152-0.0322 1.0278-1.8684zm-10.501-36.462c-8.0655-1.0969-8.4687-1.2731-9.1964-4.0201-0.64658-2.4407 1.8739-20.736 3.6785-26.701 0.9788-3.2352 4.5116-5.9263 7.78-5.9263 4.2994 0 7.5572 2.9488 18.229 16.5 14.858 18.867 14.955 20.493 1.2254 20.514-5.1048 0.0075-10.181 0.18624-11.281 0.39718-1.1 0.21094-5.7959-0.13271-10.435-0.76366zm43.3-1.1394c-1.4256-3.7152 5.3716-28.19 10.765-38.762 4.5529-8.9244 10.221-6.8058 19.214 7.1816 3.2044 4.9841 6.3249 10.384 6.9345 11.999 1.5321 4.0591-0.084 9.8678-3.4379 12.357-2.2389 1.6614-27.622 8.6452-31.621 8.7002-0.70477 0.0097-1.5391-0.65388-1.854-1.4746zm-14.359-15c-3.8558-5.2207-9.4683-13.447-12.472-18.28-6.0325-9.7062-6.2292-11.608-1.7048-16.484 3.1998-3.4486 7.7191-4.732 16.671-4.7344 8.1892-0.0022 13.034 2.2852 14.135 6.674 1.1659 4.6454-2.8902 33.331-5.6655 40.067-0.50986 1.2375-1.608 2.25-2.4403 2.25s-4.668-4.2715-8.5239-9.4923z" fill="#9ee335"/>
<path d="m358.21 154.7c23.036 16.831 43.316 15.506 66.265-4.3061 7.0173-6.0583 12.02-13.264 18.387-26.487 9.056-18.805 9.9721-28.484 4.6732-49.372-3.0489-12.019-5.2337-16.118-12.947-24.288-14.241-15.085-36.187-23.434-53.701-20.431-8.2859 1.4209-14.769 4.5435-24.734 11.913-6.8569 5.0709-7.2386 5.2313-5.5181 2.3188 3.2224-5.4551 10.382-12.969 14.856-15.591 4.2508-2.4911 14.212-6.244 23.98-9.0348 6.5709-1.8773 19.25-1.8027 26.888 0.15817 22.313 5.7287 36.378 21.632 43.706 49.423 8.352 31.671 1.3165 60.409-19.552 79.863-3.7541 3.4998-9.1667 7.8608-12.028 9.6912-5.5794 3.5691-19.008 8.6823-29.342 11.172-8.6118 2.0752-17.055 0.67954-27.259-4.5058l-7.6182-3.8714c-7.912-5.3227-15.737-12.81-6.0559-6.6529z" fill="#d14933"/>
<path d="m372.13 162.42c27.487 7.6427 29.392 7.7869 52.34-12.025 7.0173-6.0583 12.02-13.264 18.387-26.487 9.056-18.805 9.9721-28.484 4.6732-49.372-3.0489-12.019-5.2337-16.118-12.947-24.288-14.241-15.085-36.187-23.434-53.701-20.431-8.2859 1.4209-14.769 4.5435-24.734 11.913-6.8569 5.0709-7.2386 5.2313-5.5181 2.3188 3.2224-5.4551 10.382-12.969 14.856-15.591 4.2508-2.4911 14.212-6.244 23.98-9.0348 6.5709-1.8773 19.25-1.8027 26.888 0.15817 22.313 5.7287 36.378 21.632 43.706 49.423 8.352 31.671 1.3165 60.409-19.552 79.863-9.0504 8.4374-15.4 12.369-26.12 16.175-20.809 7.3876-28.295 7.4062-42.658 0.10601l-7.7682-3.9481c-13.396-12.487-15.068-5.6751 8.1689 1.2196z" fill="#d03b24"/>
<path d="m384 169.93c-1.6357-0.93469-6.3816-1.8086-10.873-3.4134-5.1702-1.4372-26.696-11.384-24.958-14.505l5.1286-4.5853 9.1486 5.0039c28.551 15.663 37.997 14.293 61.573-5.2142 10.168-8.4128 13.727-12.201 18.387-26.487 6.4733-19.843 9.477-24.417 4.1782-45.305-3.0489-12.019-5.2337-16.118-12.947-24.288-14.241-15.085-29.007-19.149-49.751-20.919-8.2295-0.70217-18.7 4.3312-28.936 16.315-1.502 1.7585-5.8558-3.8446-6.5186-4.8846 5.0548-4.997 12.654-10.55 17.057-13.19 4.2258-2.5333 14.212-6.244 23.98-9.0348 6.5709-1.8773 19.25-1.8027 26.888 0.15817 3.5993 0.92408 6.9839 2.1129 10.16 3.5737 16.515 7.595 27.4 22.541 33.546 45.849 8.352 31.671 1.3165 60.409-19.552 79.863-9.056 8.4426-16.145 10.718-26.12 16.168-13.743 7.5083-29.833 5.2128-30.39 4.8946zm-29.319-123.02c0.88683-0.46574-26.69 30.888-7.3928 87.791 0 0-4.8552 0.0388-6.9639 0.0609-10.995-20.877-11.633-78.114 8.1537-93.054" fill="#6ac200"/>
<path d="m417.58 161.81c2.7068-1.7537 8.7501-7.0412 13.429-11.75 9.2962-9.3546 13.439-16.112 18.032-29.414 1.5472-4.481 3.8176-10.847 5.0453-14.147 2.7022-7.2632 3.6593-21.597 1.9818-29.677-2.612-12.582-9.4997-22.726-26.856-39.552-10.202-9.8903-23.216-15.209-37.566-15.353l-8.1447-0.081574 3.5-1.5489c1.925-0.85188 7.5584-1.771 12.519-2.0426 15.226-0.8335 29.828 4.2773 40.303 14.106 21.881 20.53 29.977 64.862 17.076 93.495-6.4715 14.362-20.173 28.651-34.205 35.671-8.7103 4.3576-11.647 4.5265-5.1142 0.29409z" fill="#c5341a"/>
<path d="m417.58 161.81c2.7068-1.7537 8.7501-7.0412 13.429-11.75 9.2962-9.3546 13.439-16.112 18.032-29.414 1.5472-4.481 3.8176-10.847 5.0453-14.147 2.7022-7.2632 3.6593-21.597 1.9818-29.677-2.612-12.582-9.4997-22.726-26.856-39.552-10.202-9.8903-23.216-15.209-37.566-15.353l-8.1447-0.081574 3.5-1.5489c1.925-0.85188 7.5584-1.771 12.519-2.0426 15.226-0.8335 29.828 4.2773 40.303 14.106 21.881 20.53 29.977 64.862 17.076 93.495-6.4715 14.362-20.173 28.651-34.205 35.671-8.7103 4.3576-11.647 4.5265-5.1142 0.29409z" fill="#bd3115"/>
<path d="m413.59 163.78c2.7068-1.7537 8.9602-6.2545 13.64-10.963 9.2962-9.3546 12.598-16.309 18.452-27.251 2.2527-4.2108 6.2012-13.832 6.7263-17.884 0.15457-1.1927 3.8526-17.881 1.6631-28.294-1.9333-9.1946-9.0891-27.642-28.009-44.082-11.295-9.8153-29.61-12.634-33.574-12.599l-13.188 0.1151 7.7024-2.5323c2.009-0.66048 7.5584-1.771 12.519-2.0426 2.9385-0.16086 5.8538-0.10031 8.7207 0.17285 9.7091 0.92508 18.863 4.2886 26.483 9.748 1.7883 1.2812 3.5058 2.6651 5.0989 4.1854 23.498 22.423 32.999 66.621 18.341 93.199-7.6387 13.851-18.287 27.964-32.319 34.984-8.7103 4.3576-18.791 7.4766-12.258 3.2443z" fill="#56b300"/>
</g>
</g>
</g>
</g>
</svg>
