<?xml version="1.0" encoding="UTF-8"?>
<svg version="1.0" viewBox="0 0 320 340" xmlns="http://www.w3.org/2000/svg" xmlnsCc="http://creativecommons.org/ns#" xmlnsDc="http://purl.org/dc/elements/1.1/" xmlnsRdf="http://www.w3.org/1999/02/22-rdf-syntax-ns#">
<defs>
<linearGradient id="c" x1="143.76" x2="578.95" y1="143.51" y2="386.93" gradientTransform="matrix(.49921 0 0 .44014 -22.397 30.587)" gradientUnits="userSpaceOnUse">
<stop stop-color="#b40909" stop-opacity="0" offset="0"/>
<stop stop-color="#690000" stop-opacity=".68041" offset="1"/>
</linearGradient>
<radialGradient id="a" cx="312.07" cy="87.594" r="175.27" gradientTransform="matrix(.62057 0 0 .35407 -22.397 30.587)" gradientUnits="userSpaceOnUse">
<stop stop-color="#4c8c35" offset="0"/>
<stop stop-color="#4c8c35" stop-opacity=".70103" offset="1"/>
</radialGradient>
<linearGradient id="b" x1="831.53" x2="855.17" y1="-20.899" y2="50.392" gradientTransform="matrix(.21712 0 0 1.012 -22.397 30.587)" gradientUnits="userSpaceOnUse">
<stop stop-color="#b0983a" offset="0"/>
<stop stop-color="#4c8c35" stop-opacity=".60784" offset="1"/>
</linearGradient>
</defs>
<path d="m153.97 28.651c-4.41 0.36-8.9 1.484-10.24 6.146-20.39-12.966-41.85-0.861-63.521 0.622-4.998 0.343-17.646-4.292-21.443-1.285-3.075 2.434 0.438 8.626 2.176 10.789 5.208 6.485 15.442 8.901 23.365 8.995 9.34 0.111 18.733-0.486 28.003 0.686-6.33 4.52-10.7 11.182-17.075 15.334-15.998 10.421-33.693 18.181-49.174 29.581-15.718 11.571-29.532 28.161-37.726 45.921-2.8887 6.26-4.8434 14.39-6.1185 21.17-1.6357 8.7-2.6971 20.69-0.6557 29.37 4.7446 20.18 19.386 33.11 33.456 46.64 13.907 13.37 28.091 27.03 40.976 41.46 16.87 18.9 28.217 45.68 54.077 53.71 14.02 4.35 31.06-0.47 43.71-6.96 5.83-3 10.51-7.21 17.07-8.99 5.42-1.46 9.71 0.89 15.03 1.14 14.74 0.72 28.64 0.84 41.66-6.9 15.96-9.48 21.62-27.85 29.83-43.61 9.6-18.42 16.92-36.97 24.96-56 10.17-24.07 19.34-49.92 16.8-76.49-2.73-28.61-15.12-47.318-40.86-60.386-15.14-7.687-38.02-9.423-45.07-26.356 12.73-0.549 23.66-10.077 30.18-20.489 1.42-2.267 8.4-9.583 4.92-12.265-1.87-1.437-5.28 0.167-7.1 0.946-6.41 2.743-11.71 2.632-18.44 3.516-19.81 2.6-48.4-13.455-58.74 13.266-1.64-3.507-2.63-7.287-6.16-9.405-2.46-1.48-7.11-0.663-8.74-3.105-3.82-5.718 2.1-14.536-1.68-20.926-3.04-5.1373-12.32-6.1159-14.83-0.0262-3.06 7.4152 0.71 16.47 1.36 23.901z"/>
<path d="m164.22 53.921l2.73-0.683c-2.85-11.012-3.55-23.493-3.42-34.832 0.05-3.656 1.84-10.218-2.79-12.07-5.09-2.0342-4.09 8.314-3.75 10.704 1.77 12.307 4.85 24.651 7.23 36.881z" fill="url(#b)"/>
<path d="m188.59 39.107c10.59-3.394 20.18-2.09 30.05 2.988 3.76 1.932 6.78 5.621 10.93 6.591 10.64 2.49 24.5-10.292 28.68-19.141-10.61 1.342-22.07 2.164-32.78 1.302-6.37-0.512-11.95-4.204-18.44-2.744-6.82 1.534-15.6 3.857-18.44 11.004m-19.81-6.83c0.27 3.337-0.85 15.808 1.78 17.725 3.1 2.262 6.5-4.041 7.49-6.114 2.9-6.077-3.85-11.45-9.27-11.611m-12.29 16.391l-2.73-15.025c-12.09 1.097-2.55 10.952 2.73 15.025m-92.884-8.195c4.994 9.324 18.863 9.561 28.002 9.561 6.041 0 12.442-0.601 18.442 0.126 3.31 0.402 6.24 2.221 9.56 2.535 5.83 0.551 12.01-0.595 17.76 0.296 5.61 0.871 10.56 3.778 15.71 5.922-0.92-12.421-14.7-21.425-25.96-23.98-10.98-2.493-22.8 2.469-33.463 4.662-10.087 2.074-19.904 1.314-30.051 0.878m120.2 23.904c4.35-1.412 7.51-3.86 12.29-4.071 3-0.133 6.68-0.487 9.56 0.45 18.59 6.034 19.34 26.424 33.47 36.404-5.22-14.587-4.09-38.176-18.5-47.57-7.01-4.571-15.18-8.881-23.84-7.544-11.98 1.851-20.78 11.594-12.98 22.331m10.24 74.443c0-6.08-0.47-12.38 0.12-18.44 0.47-4.88 2.3-10.1 1.72-15.02-1.25-10.527-8.23-22.702-12.93-32.105-2.9-5.803-7.77-20.047-16.21-17.311-6.79 2.2 0.66 14.443 0.67 20.043 0.01 10.349-0.93 22.106 2.2 32.103 3.46 11.05 15.6 23.6 24.43 30.73m-109.95-34.83c19.974-0.06 23.394-23.031 39.614-28.996 7.74-2.848 20.28-3.987 21.85 6.457l5.47 0.683c0.33-4.25 2.7-13.211 0.56-16.929-2.33-4.045-9.94-5.882-14.22-6.233-10.51-0.863-18.84-2.434-27.94 4.578-7.64 5.879-11.238 17.015-15.206 25.414-2.732 5.784-6.515 9.896-10.128 15.026m74.444-38.93l-3.42 17.074 7.52-0.683c0-5.819 0.35-11.987-4.1-16.391z" fill="url(#a)"/>
<path d="m190.85 73.727c2.66 9.735 9.99 18.734 11.38 28.683 0.97 7-2.41 14.72-2.5 21.86-0.09 7.44 1.86 16.91-4.1 22.54-9.33-12.21-23.65-21.46-29.42-36.2-2.87-7.36-2.68-16.793-2.68-24.589-11.23 0-23.94 1.488-31.41-8.879-16.92 5.41-21.9 24.158-38.934 30.078-3.07 1.06-18.537 2.26-17.811-3.44 0.428-3.37 6.435-5.534 8.674-7.773 4.162-4.162 6.417-10.025 8.454-15.45-9.487 2.033-17.818 9.064-25.953 13.947-29.143 17.486-52.628 41.486-57.575 76.206-1.3302 9.34-1.9583 21.27-0.7133 27.32 1.8513 12.56 11.26 22.38 19.563 30.51 4.276 4.18 10.738 9.67 14.969 13.9 12.621 12.62 24.206 22.61 36.538 35.61 17.655 18.62 30.178 51.55 58.928 54.96 19.1 2.26 32.4-12.44 49.29-17.19 7.03-1.98 12.25 0.69 19.01 1.02 16.87 0.82 31.18 1.5 44.17-10.47 4.68-4.32 8.44-13.48 11.44-18.87 7.61-13.66 14.37-27.54 21.08-41.66 4.69-9.88 8.31-19.96 12.21-30.05 10.16-26.28 19.87-50.65 16.4-79.23-1.6-13.24-4.98-26.22-14.49-36.19-14-14.669-38.81-23.554-58.03-28.692 0.14 6.854 1.76 14.375 4.91 20.489 1.53 2.992 6.09 7.893 4.86 11.513-2.14 6.31-15.12-5.106-17.06-7.418-7.29-8.712-10.26-20.994-20.03-27.59-2.43-1.644-7.02-4.874-10.12-4.252-3.61 0.727-7.84 7.112-11.05 9.307z" fill="#b40909"/>
<path d="m203.13 64.352c-0.43-0.032-0.84-5e-3 -1.23 0.073-3.61 0.727-7.83 7.107-11.04 9.302 2.33 8.552 8.27 16.532 10.62 25.092 2.9 5.461 9.47 13.711 13.56 4.971 4.24-6.912-2.43-14.136-1.73-21.304 2.34-2.056 6.1-0.944 9.42-1.201-2.82-4.836-5.96-9.402-10.71-12.612-2.13-1.439-5.91-4.098-8.89-4.321zm-71.01 12.788c-7.31 2.338-12.38 7.198-17.17 12.407 1.48 6.73 5.49 13.333 13.61 9.404 7.43-3.497 14.19 0.584 14.18 8.849 0.56 6.08 6.77 16.79 12.21 7.84 1.01-5.26 4.16-11.19 9.38-12.84-0.82-5.586-0.79-11.545-0.79-16.783-11.23 0-23.95 1.49-31.42-8.877z" fill="#926e09"/>
<path d="m265.68 99.266c2.5 3.674 2.87 7.784 0.83 9.174s-5.73-0.47-8.23-4.14c-2.5-3.68-2.87-7.786-0.83-9.175 2.04-1.388 5.73 0.467 8.23 4.141z" fill="#ffa100" fill-opacity=".75" fill-rule="evenodd"/>
<path d="m257.15 94.722c-1.27 0.865-1.71 2.507-1.55 4.301 0.16 1.797 0.92 3.817 2.22 5.737 1.3 1.91 2.92 3.37 4.53 4.18s3.29 0.99 4.56 0.12c1.27-0.86 1.74-2.5 1.58-4.3-0.17-1.79-0.94-3.82-2.24-5.735-1.31-1.915-2.9-3.369-4.51-4.179-1.61-0.811-3.31-0.99-4.59-0.124zm0.71 1.029c0.76-0.523 1.94-0.48 3.31 0.209s2.85 2.006 4.05 3.765c1.2 1.755 1.87 3.625 2.01 5.145 0.14 1.53-0.25 2.64-1.02 3.16-0.77 0.53-1.93 0.47-3.3-0.21-1.37-0.69-2.85-2.01-4.05-3.77s-1.88-3.62-2.02-5.148c-0.13-1.526 0.25-2.627 1.02-3.151z" fill-rule="evenodd"/>
<path d="m113.4 115.16c0.93 4.35-0.28 8.29-2.7 8.81-2.41 0.51-5.12-2.6-6.05-6.95-0.92-4.34 0.29-8.29 2.71-8.8 2.41-0.51 5.12 2.6 6.04 6.94z" fill="#ffa100" fill-opacity=".75" fill-rule="evenodd"/>
<path d="m107.28 107.72c-1.51 0.32-2.54 1.67-3.07 3.39s-0.6 3.88-0.11 6.15c0.48 2.26 1.42 4.23 2.6 5.59 1.19 1.35 2.68 2.15 4.18 1.83 1.51-0.32 2.56-1.66 3.09-3.38s0.58-3.89 0.1-6.16c-0.48-2.26-1.41-4.21-2.59-5.57-1.19-1.36-2.7-2.17-4.2-1.85zm0.26 1.22c0.91-0.2 1.98 0.29 2.99 1.44 1 1.16 1.88 2.94 2.32 5.02s0.37 4.06-0.08 5.53c-0.45 1.46-1.24 2.34-2.15 2.54-0.91 0.19-1.96-0.3-2.97-1.45-1-1.16-1.88-2.94-2.32-5.02s-0.37-4.07 0.08-5.53c0.45-1.47 1.22-2.34 2.13-2.53z" fill-rule="evenodd"/>
<path d="m72.343 124.69c0.34 4.44-1.382 8.18-3.843 8.37-2.462 0.19-4.735-3.25-5.075-7.68s1.381-8.18 3.843-8.37c2.461-0.19 4.735 3.25 5.075 7.68z" fill="#ec7b02" fill-rule="evenodd"/>
<path d="m67.274 116.5c-1.535 0.12-2.739 1.32-3.49 2.95-0.752 1.64-1.107 3.78-0.93 6.08 0.178 2.31 0.854 4.38 1.847 5.89 0.993 1.5 2.365 2.49 3.9 2.37 1.534-0.12 2.753-1.3 3.505-2.94s1.091-3.79 0.914-6.1c-0.177-2.3-0.839-4.36-1.831-5.86-0.993-1.51-2.381-2.51-3.915-2.39zm0.095 1.24c0.927-0.07 1.926 0.55 2.77 1.83s1.477 3.16 1.639 5.28c0.163 2.12-0.175 4.08-0.814 5.47s-1.531 2.16-2.459 2.23c-0.927 0.07-1.911-0.55-2.755-1.83-0.845-1.28-1.477-3.16-1.64-5.28-0.162-2.12 0.176-4.08 0.815-5.47s1.517-2.16 2.444-2.23z" fill-rule="evenodd"/>
<path d="m114.28 181.28c1 4.33-0.15 8.29-2.55 8.85-2.41 0.55-5.17-2.51-6.17-6.84-0.99-4.33 0.15-8.3 2.56-8.85 2.4-0.56 5.16 2.51 6.16 6.84z" fill="#ec7b02" fill-rule="evenodd"/>
<path d="m108.03 173.94c-1.5 0.34-2.51 1.71-3.01 3.44s-0.53 3.9-0.01 6.15c0.52 2.26 1.5 4.21 2.7 5.54 1.21 1.34 2.71 2.12 4.21 1.77 1.5-0.34 2.53-1.7 3.03-3.43s0.51-3.91-0.01-6.16c-0.52-2.26-1.48-4.19-2.68-5.53-1.21-1.34-2.73-2.13-4.23-1.78zm0.28 1.21c0.91-0.21 1.99 0.26 3.01 1.4 1.03 1.14 1.93 2.9 2.41 4.98 0.48 2.07 0.44 4.05 0.01 5.53-0.42 1.47-1.19 2.36-2.1 2.57-0.9 0.21-1.97-0.26-3-1.4-1.02-1.14-1.93-2.91-2.4-4.98-0.48-2.07-0.44-4.06-0.01-5.53 0.42-1.47 1.17-2.36 2.08-2.57z" fill-rule="evenodd"/>
<path d="m269.12 196.25c0.34 4.43-1.38 8.18-3.84 8.37s-4.74-3.25-5.08-7.68c-0.34-4.44 1.39-8.18 3.85-8.37s4.73 3.25 5.07 7.68z" fill="#ffa100" fill-opacity=".75" fill-rule="evenodd"/>
<path d="m264.05 188.05c-1.53 0.12-2.73 1.32-3.49 2.96-0.75 1.64-1.1 3.77-0.93 6.08 0.18 2.31 0.86 4.38 1.85 5.88 0.99 1.51 2.37 2.49 3.9 2.38 1.53-0.12 2.75-1.31 3.51-2.95 0.75-1.63 1.09-3.78 0.91-6.09s-0.84-4.36-1.83-5.87c-0.99-1.5-2.38-2.5-3.92-2.39zm0.1 1.25c0.93-0.08 1.92 0.55 2.77 1.83 0.84 1.27 1.48 3.15 1.64 5.28 0.16 2.12-0.18 4.07-0.82 5.46-0.64 1.4-1.53 2.16-2.45 2.24-0.93 0.07-1.92-0.56-2.76-1.84-0.84-1.27-1.48-3.15-1.64-5.28-0.16-2.12 0.18-4.07 0.81-5.46 0.64-1.4 1.52-2.16 2.45-2.23z" fill-rule="evenodd"/>
<path d="m117.07 232.03c0.34 4.43-1.39 8.18-3.85 8.37s-4.73-3.26-5.07-7.69 1.38-8.18 3.84-8.36c2.46-0.19 4.74 3.25 5.08 7.68z" fill="#ec7b02" fill-rule="evenodd"/>
<path d="m112 223.83c-1.54 0.12-2.74 1.32-3.49 2.96-0.76 1.64-1.11 3.77-0.93 6.08 0.17 2.31 0.85 4.38 1.84 5.88 1 1.5 2.37 2.49 3.9 2.38 1.54-0.12 2.76-1.31 3.51-2.95 0.75-1.63 1.09-3.78 0.91-6.09-0.17-2.31-0.84-4.37-1.83-5.87s-2.38-2.51-3.91-2.39zm0.09 1.24c0.93-0.07 1.93 0.55 2.77 1.83 0.85 1.28 1.48 3.16 1.64 5.28 0.16 2.13-0.17 4.08-0.81 5.47-0.64 1.4-1.53 2.16-2.46 2.23s-1.91-0.55-2.76-1.83c-0.84-1.28-1.47-3.16-1.64-5.28-0.16-2.12 0.18-4.07 0.82-5.47 0.64-1.39 1.51-2.16 2.44-2.23z" fill-rule="evenodd"/>
<path d="m87.562 211.81c-8e-3 4.44-2.019 8.04-4.487 8.04-2.469-0.01-4.466-3.62-4.458-8.06s2.018-8.05 4.487-8.04c2.469 0 4.466 3.61 4.458 8.06z" fill="#ec7b02" fill-rule="evenodd"/>
<path d="m83.159 203.23c-1.539 0-2.833 1.1-3.711 2.68-0.878 1.57-1.398 3.67-1.403 5.99-4e-3 2.31 0.509 4.43 1.381 6 0.872 1.58 2.163 2.67 3.701 2.68 1.539 0 2.848-1.09 3.726-2.66s1.383-3.69 1.388-6c4e-3 -2.32-0.494-4.42-1.366-6-0.873-1.58-2.178-2.68-3.716-2.69zm-2e-3 1.25c0.93 0 1.876 0.7 2.618 2.04 0.741 1.34 1.224 3.26 1.221 5.39-4e-3 2.13-0.494 4.05-1.241 5.39-0.746 1.34-1.695 2.03-2.625 2.03s-1.863-0.7-2.604-2.04c-0.742-1.34-1.225-3.26-1.221-5.39s0.494-4.05 1.24-5.39c0.747-1.34 1.682-2.03 2.612-2.03z" fill-rule="evenodd"/>
<path d="m68.626 238.37c1.15 4.29 0.149 8.29-2.236 8.93-2.384 0.64-5.253-2.32-6.404-6.61-1.151-4.3-0.149-8.3 2.235-8.94 2.385-0.64 5.254 2.33 6.405 6.62z" fill="#ec7b02" fill-rule="evenodd"/>
<path d="m62.113 231.26c-1.486 0.4-2.448 1.8-2.885 3.55-0.438 1.75-0.393 3.91 0.207 6.15 0.6 2.23 1.646 4.14 2.899 5.44 1.253 1.29 2.784 2.01 4.27 1.61 1.487-0.4 2.466-1.79 2.904-3.54 0.437-1.74 0.374-3.92-0.225-6.15-0.6-2.24-1.629-4.14-2.882-5.43-1.253-1.3-2.802-2.03-4.288-1.63zm0.323 1.2c0.898-0.24 1.994 0.19 3.059 1.29 1.066 1.1 2.034 2.83 2.585 4.89 0.551 2.05 0.579 4.04 0.207 5.52-0.372 1.49-1.107 2.41-2.005 2.65s-1.98-0.19-3.046-1.29c-1.065-1.1-2.033-2.84-2.584-4.89-0.551-2.06-0.579-4.04-0.208-5.53 0.372-1.48 1.093-2.4 1.992-2.64z" fill-rule="evenodd"/>
<path d="m100.85 266.18c1.07 4.31-0.01 8.29-2.405 8.89-2.396 0.59-5.209-2.42-6.279-6.74-1.071-4.31 5e-3 -8.29 2.401-8.89 2.397-0.59 5.21 2.43 6.283 6.74z" fill="#ec7b02" fill-rule="evenodd"/>
<path d="m94.471 258.95c-1.494 0.37-2.482 1.75-2.952 3.49s-0.465 3.9 0.093 6.15c0.557 2.25 1.568 4.18 2.797 5.5 1.228 1.31 2.745 2.06 4.239 1.69 1.492-0.37 2.502-1.74 2.972-3.48s0.44-3.92-0.11-6.16c-0.56-2.25-1.554-4.17-2.783-5.49-1.228-1.32-2.763-2.07-4.256-1.7zm0.3 1.21c0.902-0.23 1.99 0.22 3.035 1.34 1.044 1.12 1.98 2.87 2.494 4.94 0.51 2.06 0.5 4.05 0.1 5.52-0.4 1.48-1.15 2.39-2.052 2.61-0.903 0.23-1.977-0.23-3.021-1.35-1.045-1.12-1.98-2.87-2.493-4.93-0.512-2.07-0.503-4.05-0.104-5.53 0.4-1.48 1.138-2.38 2.041-2.6z" fill-rule="evenodd"/>
<path d="m126.9 297.32c0.34 4.44-1.38 8.18-3.84 8.37s-4.73-3.25-5.07-7.68 1.38-8.18 3.84-8.37 4.73 3.25 5.07 7.68z" fill="#ec7b02" fill-rule="evenodd"/>
<path d="m121.84 289.13c-1.54 0.12-2.74 1.32-3.49 2.95-0.76 1.64-1.11 3.77-0.93 6.08 0.17 2.31 0.85 4.38 1.84 5.89 1 1.5 2.37 2.49 3.9 2.37 1.54-0.12 2.76-1.31 3.51-2.94 0.75-1.64 1.09-3.79 0.91-6.1s-0.84-4.36-1.83-5.86c-0.99-1.51-2.38-2.51-3.91-2.39zm0.09 1.24c0.93-0.07 1.93 0.55 2.77 1.83 0.85 1.28 1.48 3.16 1.64 5.28s-0.18 4.08-0.81 5.47c-0.64 1.39-1.54 2.16-2.46 2.23-0.93 0.07-1.91-0.55-2.76-1.83-0.84-1.28-1.48-3.16-1.64-5.28s0.18-4.08 0.82-5.47 1.51-2.16 2.44-2.23z" fill-rule="evenodd"/>
<path d="m156.42 314.32c0.34 4.43-1.38 8.18-3.84 8.37s-4.74-3.26-5.08-7.69 1.39-8.18 3.85-8.37c2.46-0.18 4.73 3.26 5.07 7.69z" fill="#ffa100" fill-opacity=".75" fill-rule="evenodd"/>
<path d="m151.35 306.12c-1.53 0.12-2.74 1.32-3.49 2.96s-1.1 3.77-0.93 6.08c0.18 2.31 0.86 4.38 1.85 5.88s2.37 2.49 3.9 2.37c1.53-0.11 2.75-1.3 3.51-2.94 0.75-1.64 1.09-3.78 0.91-6.09s-0.84-4.37-1.83-5.87c-1-1.5-2.38-2.51-3.92-2.39zm0.1 1.24c0.92-0.07 1.92 0.55 2.77 1.83 0.84 1.28 1.47 3.16 1.64 5.28 0.16 2.13-0.18 4.08-0.82 5.47s-1.53 2.16-2.46 2.23c-0.92 0.07-1.91-0.55-2.75-1.83-0.85-1.28-1.48-3.16-1.64-5.28s0.17-4.07 0.81-5.47c0.64-1.39 1.52-2.16 2.45-2.23z" fill-rule="evenodd"/>
<path d="m171.63 130.06c0.34 4.43-1.38 8.18-3.85 8.37-2.46 0.19-4.73-3.25-5.07-7.68s1.38-8.18 3.84-8.37 4.74 3.25 5.08 7.68z" fill="#ffa100" fill-opacity=".75" fill-rule="evenodd"/>
<path d="m166.56 121.86c-1.54 0.12-2.74 1.32-3.49 2.96s-1.11 3.77-0.93 6.08 0.85 4.38 1.85 5.88c0.99 1.51 2.36 2.5 3.9 2.38 1.53-0.12 2.75-1.31 3.5-2.95 0.75-1.63 1.09-3.78 0.91-6.09-0.17-2.31-0.83-4.36-1.83-5.87-0.99-1.5-2.38-2.5-3.91-2.39zm0.09 1.25c0.93-0.08 1.93 0.55 2.77 1.83 0.85 1.27 1.48 3.15 1.64 5.28 0.17 2.12-0.17 4.07-0.81 5.47-0.64 1.39-1.53 2.15-2.46 2.23-0.93 0.07-1.91-0.56-2.76-1.83-0.84-1.28-1.47-3.16-1.64-5.29-0.16-2.12 0.18-4.07 0.82-5.46 0.64-1.4 1.52-2.16 2.44-2.23z" fill-rule="evenodd"/>
<path d="m219.03 158.68c0.34 4.43-1.38 8.18-3.84 8.37s-4.73-3.25-5.07-7.68 1.38-8.18 3.84-8.37 4.73 3.25 5.07 7.68z" fill="#ffa100" fill-opacity=".75" fill-rule="evenodd"/>
<path d="m213.96 150.49c-1.53 0.11-2.73 1.32-3.49 2.95-0.75 1.64-1.1 3.77-0.93 6.08 0.18 2.31 0.86 4.38 1.85 5.89 0.99 1.5 2.37 2.49 3.9 2.37 1.54-0.12 2.76-1.31 3.51-2.94 0.75-1.64 1.09-3.79 0.91-6.1s-0.84-4.36-1.83-5.86c-0.99-1.51-2.38-2.51-3.92-2.39zm0.1 1.24c0.93-0.07 1.93 0.55 2.77 1.83s1.48 3.16 1.64 5.28-0.18 4.08-0.82 5.47c-0.63 1.39-1.53 2.16-2.45 2.23-0.93 0.07-1.92-0.55-2.76-1.83s-1.48-3.16-1.64-5.28 0.18-4.08 0.82-5.47c0.63-1.39 1.51-2.16 2.44-2.23z" fill-rule="evenodd"/>
<path d="m61.609 193.57c0.34 4.43-1.381 8.18-3.843 8.37-2.461 0.19-4.735-3.26-5.075-7.69s1.382-8.18 3.843-8.37c2.462-0.19 4.735 3.26 5.075 7.69z" fill="#ec7b02" fill-rule="evenodd"/>
<path d="m56.54 185.37c-1.534 0.12-2.738 1.32-3.49 2.96-0.752 1.63-1.106 3.77-0.929 6.08s0.854 4.38 1.847 5.88 2.365 2.49 3.899 2.37c1.534-0.11 2.754-1.3 3.506-2.94s1.091-3.78 0.913-6.09c-0.177-2.31-0.838-4.37-1.831-5.87s-2.381-2.51-3.915-2.39zm0.095 1.24c0.928-0.07 1.926 0.55 2.771 1.83 0.844 1.28 1.476 3.16 1.639 5.28s-0.175 4.08-0.815 5.47c-0.639 1.39-1.531 2.16-2.458 2.23s-1.911-0.55-2.756-1.83c-0.844-1.28-1.476-3.16-1.639-5.28s0.175-4.08 0.814-5.47c0.64-1.39 1.517-2.16 2.444-2.23z" fill-rule="evenodd"/>
<path d="m296.86 178.77c-0.07 4.45-2.12 8.02-4.59 7.98-2.47-0.03-4.42-3.67-4.35-8.11 0.07-4.45 2.13-8.02 4.6-7.98 2.46 0.03 4.41 3.67 4.34 8.11z" fill="#ffa100" fill-opacity=".75" fill-rule="evenodd"/>
<path d="m292.58 170.14c-1.54-0.02-2.85 1.06-3.75 2.62s-1.45 3.66-1.48 5.97c-0.04 2.32 0.45 4.44 1.3 6.03s2.12 2.7 3.66 2.72c1.54 0.03 2.86-1.05 3.76-2.61s1.44-3.66 1.47-5.98c0.04-2.32-0.43-4.42-1.28-6.01s-2.14-2.72-3.68-2.74zm-0.02 1.25c0.93 0.01 1.87 0.72 2.59 2.07s1.18 3.28 1.15 5.41c-0.04 2.13-0.55 4.04-1.32 5.37-0.76 1.33-1.72 2.01-2.65 2-0.93-0.02-1.85-0.73-2.57-2.08-0.73-1.35-1.18-3.28-1.15-5.41s0.55-4.04 1.31-5.37c0.77-1.33 1.71-2.01 2.64-1.99z" fill-rule="evenodd"/>
<path d="m38.131 212.16c1.423 4.21 0.679 8.26-1.66 9.05s-5.391-1.98-6.814-6.19c-1.422-4.21-0.678-8.27 1.661-9.06 2.338-0.79 5.391 1.99 6.813 6.2z" fill="#ec7b02" fill-rule="evenodd"/>
<path d="m31.171 205.48c-1.457 0.49-2.328 1.95-2.653 3.73-0.324 1.77-0.141 3.92 0.6 6.12 0.741 2.19 1.907 4.03 3.241 5.24 1.333 1.21 2.906 1.83 4.364 1.34s2.347-1.94 2.672-3.71c0.324-1.78 0.123-3.94-0.618-6.13-0.742-2.2-1.89-4.03-3.223-5.24s-2.925-1.84-4.383-1.35zm0.399 1.18c0.881-0.3 2.002 0.06 3.136 1.09 1.133 1.03 2.21 2.7 2.891 4.71 0.681 2.02 0.836 4 0.56 5.5-0.276 1.51-0.951 2.48-1.833 2.77-0.881 0.3-1.988-0.06-3.122-1.09-1.133-1.03-2.21-2.7-2.891-4.71-0.681-2.02-0.836-4-0.56-5.51 0.277-1.5 0.938-2.46 1.819-2.76z" fill-rule="evenodd"/>
<path d="m33.763 173.15c1.07 4.32-6e-3 8.3-2.402 8.9-2.396 0.59-5.209-2.43-6.279-6.74-1.071-4.31 5e-3 -8.3 2.401-8.89 2.396-0.6 5.21 2.42 6.28 6.73z" fill="#ec7b02" fill-rule="evenodd"/>
<path d="m27.387 165.92c-1.494 0.37-2.482 1.76-2.952 3.5s-0.465 3.9 0.092 6.15c0.558 2.25 1.569 4.17 2.798 5.49 1.228 1.32 2.745 2.07 4.239 1.7 1.493-0.37 2.499-1.75 2.969-3.49s0.447-3.91-0.11-6.16c-0.558-2.25-1.551-4.16-2.78-5.48-1.228-1.32-2.763-2.08-4.256-1.71zm0.299 1.21c0.903-0.22 1.991 0.23 3.036 1.35 1.044 1.12 1.98 2.87 2.492 4.93 0.513 2.07 0.504 4.05 0.104 5.53-0.399 1.48-1.152 2.38-2.054 2.61-0.903 0.22-1.977-0.23-3.021-1.35-1.045-1.12-1.98-2.87-2.493-4.94-0.512-2.06-0.503-4.04-0.104-5.52 0.4-1.48 1.138-2.38 2.04-2.61z" fill-rule="evenodd"/>
<path d="m77.555 163.18c1.206 4.28 0.258 8.29-2.118 8.96s-5.284-2.26-6.491-6.53c-1.206-4.28-0.258-8.29 2.118-8.96 2.376-0.68 5.284 2.25 6.491 6.53z" fill="#ec7b02" fill-rule="evenodd"/>
<path d="m70.948 156.16c-1.481 0.41-2.424 1.83-2.838 3.58-0.415 1.76-0.342 3.92 0.287 6.15 0.629 2.22 1.701 4.12 2.971 5.4 1.269 1.28 2.81 1.98 4.29 1.56 1.481-0.42 2.443-1.83 2.857-3.58 0.415-1.75 0.323-3.92-0.306-6.15-0.628-2.23-1.682-4.12-2.952-5.4-1.27-1.27-2.828-1.98-4.309-1.56zm0.338 1.19c0.896-0.25 1.997 0.16 3.077 1.25s2.07 2.81 2.648 4.86c0.578 2.04 0.632 4.03 0.28 5.52-0.353 1.49-1.076 2.42-1.971 2.67s-1.982-0.17-3.062-1.25c-1.08-1.09-2.07-2.81-2.648-4.86-0.578-2.04-0.632-4.03-0.28-5.52s1.061-2.41 1.956-2.67z" fill-rule="evenodd"/>
<path d="m98.181 142.82c0.997 4.33-0.146 8.29-2.552 8.85-2.406 0.55-5.167-2.52-6.164-6.85s0.146-8.29 2.552-8.84c2.406-0.56 5.167 2.51 6.164 6.84z" fill="#ec7b02" fill-rule="evenodd"/>
<path d="m91.93 135.48c-1.499 0.34-2.51 1.71-3.01 3.44-0.499 1.73-0.531 3.9-0.012 6.15 0.52 2.26 1.498 4.2 2.704 5.54s2.71 2.11 4.209 1.77c1.5-0.35 2.529-1.7 3.028-3.43s0.514-3.91-5e-3 -6.16c-0.52-2.26-1.48-4.2-2.686-5.53-1.206-1.34-2.728-2.13-4.228-1.78zm0.28 1.21c0.906-0.21 1.986 0.26 3.012 1.4 1.025 1.14 1.931 2.9 2.408 4.97 0.478 2.08 0.435 4.06 0.011 5.53-0.425 1.48-1.193 2.37-2.099 2.58-0.906 0.2-1.972-0.26-2.998-1.4-1.025-1.14-1.931-2.91-2.408-4.98-0.478-2.07-0.435-4.06-0.01-5.53 0.424-1.47 1.177-2.36 2.084-2.57z" fill-rule="evenodd"/>
<path d="m48.193 142.58c0.34 4.43-1.382 8.18-3.844 8.37-2.461 0.19-4.735-3.25-5.075-7.68s1.382-8.18 3.844-8.37c2.461-0.19 4.735 3.25 5.075 7.68z" fill="#ec7b02" fill-rule="evenodd"/>
<path d="m43.123 134.39c-1.534 0.11-2.738 1.32-3.49 2.95-0.752 1.64-1.106 3.77-0.929 6.08s0.854 4.38 1.847 5.89c0.993 1.5 2.365 2.49 3.899 2.37s2.754-1.31 3.506-2.94c0.752-1.64 1.091-3.79 0.914-6.1-0.178-2.31-0.839-4.36-1.832-5.87-0.993-1.5-2.38-2.5-3.915-2.38zm0.096 1.24c0.927-0.07 1.926 0.55 2.77 1.83s1.476 3.16 1.639 5.28-0.175 4.08-0.814 5.47c-0.64 1.39-1.532 2.16-2.459 2.23s-1.911-0.55-2.756-1.83c-0.844-1.28-1.476-3.16-1.639-5.28s0.175-4.08 0.815-5.47c0.639-1.39 1.516-2.16 2.444-2.23z" fill-rule="evenodd"/>
<path d="m143 139.9c0.34 4.43-1.38 8.18-3.84 8.37s-4.73-3.25-5.07-7.69c-0.34-4.43 1.38-8.17 3.84-8.36s4.73 3.25 5.07 7.68z" fill="#ffa100" fill-opacity=".75" fill-rule="evenodd"/>
<path d="m137.94 131.7c-1.54 0.12-2.74 1.32-3.49 2.96-0.76 1.64-1.11 3.77-0.93 6.08 0.17 2.31 0.85 4.38 1.84 5.88 1 1.51 2.37 2.49 3.9 2.38 1.54-0.12 2.76-1.31 3.51-2.95 0.75-1.63 1.09-3.78 0.91-6.09s-0.84-4.36-1.83-5.87c-0.99-1.5-2.38-2.5-3.91-2.39zm0.09 1.24c0.93-0.07 1.93 0.56 2.77 1.83 0.85 1.28 1.48 3.16 1.64 5.29 0.16 2.12-0.17 4.07-0.81 5.46-0.64 1.4-1.54 2.16-2.46 2.23-0.93 0.08-1.91-0.55-2.76-1.83-0.84-1.27-1.47-3.15-1.64-5.28-0.16-2.12 0.18-4.07 0.82-5.47 0.64-1.39 1.51-2.15 2.44-2.23z" fill-rule="evenodd"/>
<path d="m262.87 159.31c-0.28 4.43-2.51 7.91-4.97 7.75-2.47-0.15-4.24-3.88-3.96-8.31 0.28-4.44 2.5-7.91 4.97-7.76 2.46 0.16 4.23 3.88 3.96 8.32z" fill="#ffa100" fill-opacity=".75" fill-rule="evenodd"/>
<path d="m259 150.48c-1.54-0.1-2.89 0.92-3.87 2.44-0.97 1.52-1.62 3.58-1.76 5.89-0.15 2.31 0.24 4.46 1.01 6.08 0.78 1.63 2 2.8 3.53 2.9 1.54 0.09 2.91-0.91 3.88-2.43s1.61-3.6 1.75-5.91c0.15-2.31-0.22-4.44-0.99-6.06-0.78-1.63-2.01-2.82-3.55-2.91zm-0.08 1.24c0.93 0.06 1.83 0.81 2.49 2.2 0.66 1.38 1.02 3.33 0.89 5.45-0.13 2.13-0.74 4.02-1.56 5.31-0.83 1.29-1.82 1.92-2.75 1.86-0.93-0.05-1.82-0.81-2.47-2.19-0.66-1.38-1.03-3.33-0.89-5.46 0.13-2.12 0.74-4.01 1.56-5.3 0.83-1.29 1.8-1.93 2.73-1.87z" fill-rule="evenodd"/>
<path d="m241.39 125.59c0.34 4.43-1.38 8.18-3.84 8.37s-4.73-3.26-5.07-7.69 1.38-8.18 3.84-8.37c2.46-0.18 4.73 3.26 5.07 7.69z" fill="#ffa100" fill-opacity=".75" fill-rule="evenodd"/>
<path d="m236.33 117.39c-1.54 0.12-2.74 1.32-3.49 2.96-0.76 1.64-1.11 3.77-0.93 6.08 0.17 2.31 0.85 4.38 1.84 5.88 1 1.5 2.37 2.49 3.9 2.38 1.54-0.12 2.76-1.31 3.51-2.95s1.09-3.78 0.91-6.09-0.84-4.37-1.83-5.87-2.38-2.51-3.91-2.39zm0.09 1.24c0.93-0.07 1.93 0.55 2.77 1.83 0.85 1.28 1.48 3.16 1.64 5.28 0.16 2.13-0.17 4.08-0.81 5.47-0.64 1.4-1.54 2.16-2.46 2.23-0.93 0.07-1.91-0.55-2.76-1.83-0.84-1.28-1.47-3.16-1.64-5.28-0.16-2.12 0.18-4.07 0.82-5.47 0.64-1.39 1.51-2.16 2.44-2.23z" fill-rule="evenodd"/>
<path d="m291.23 130.68c1.51 4.18 0.84 8.25-1.48 9.09-2.33 0.83-5.43-1.88-6.93-6.07-1.51-4.18-0.84-8.25 1.48-9.08 2.33-0.84 5.43 1.88 6.93 6.06z" fill="#ffa100" fill-opacity=".75" fill-rule="evenodd"/>
<path d="m284.15 124.14c-1.45 0.52-2.29 2-2.59 3.78-0.29 1.77-0.06 3.93 0.72 6.1 0.78 2.18 1.98 4 3.34 5.19 1.36 1.18 2.94 1.77 4.39 1.25s2.31-1.99 2.6-3.76c0.29-1.78 0.05-3.94-0.73-6.12-0.79-2.18-1.97-3.99-3.33-5.17-1.35-1.19-2.96-1.79-4.4-1.27zm0.42 1.17c0.87-0.31 2 0.02 3.15 1.03 1.16 1.01 2.26 2.66 2.98 4.66s0.92 3.98 0.67 5.49-0.91 2.49-1.78 2.8c-0.88 0.32-1.99-0.02-3.14-1.03-1.16-1.01-2.26-2.66-2.98-4.66s-0.92-3.98-0.67-5.49 0.89-2.48 1.77-2.8z" fill-rule="evenodd"/>
<path d="m274.43 233.16c-0.78 4.37-3.38 7.57-5.81 7.14-2.43-0.44-3.77-4.34-2.99-8.71 0.78-4.38 3.38-7.58 5.81-7.14 2.43 0.43 3.77 4.33 2.99 8.71z" fill="#ffa100" fill-opacity=".75" fill-rule="evenodd"/>
<path d="m271.61 223.94c-1.52-0.27-2.98 0.59-4.12 1.99s-2.02 3.37-2.42 5.65c-0.41 2.28-0.27 4.46 0.31 6.16 0.59 1.7 1.67 3 3.18 3.27 1.52 0.27 3-0.57 4.13-1.97 1.14-1.39 2.01-3.39 2.41-5.67 0.41-2.28 0.28-4.43-0.3-6.14-0.59-1.7-1.68-3.02-3.19-3.29zm-0.22 1.23c0.91 0.16 1.72 1.01 2.22 2.46s0.64 3.43 0.27 5.52c-0.38 2.1-1.19 3.91-2.16 5.09-0.97 1.19-2.02 1.71-2.94 1.55-0.91-0.16-1.71-1.01-2.21-2.46s-0.64-3.43-0.26-5.53c0.37-2.09 1.19-3.9 2.15-5.09 0.97-1.19 2.01-1.71 2.93-1.54z" fill-rule="evenodd"/>
<path d="m251.23 259.76c0.34 4.43-1.38 8.18-3.84 8.37-2.46 0.18-4.73-3.26-5.07-7.69s1.38-8.18 3.84-8.37 4.73 3.26 5.07 7.69z" fill="#ffa100" fill-opacity=".75" fill-rule="evenodd"/>
<path d="m246.16 251.56c-1.53 0.12-2.73 1.32-3.49 2.96-0.75 1.63-1.1 3.77-0.92 6.08 0.17 2.31 0.85 4.38 1.84 5.88 1 1.5 2.37 2.49 3.9 2.37 1.54-0.11 2.76-1.3 3.51-2.94s1.09-3.78 0.91-6.09-0.84-4.37-1.83-5.87-2.38-2.51-3.92-2.39zm0.1 1.24c0.93-0.07 1.93 0.55 2.77 1.83s1.48 3.16 1.64 5.28-0.18 4.08-0.82 5.47c-0.63 1.39-1.53 2.16-2.45 2.23-0.93 0.07-1.92-0.55-2.76-1.83s-1.48-3.16-1.64-5.28 0.18-4.08 0.82-5.47 1.51-2.16 2.44-2.23z" fill-rule="evenodd"/>
<path d="m214.56 264.23c0.34 4.43-1.38 8.18-3.84 8.37s-4.74-3.26-5.08-7.69 1.38-8.18 3.85-8.36c2.46-0.19 4.73 3.25 5.07 7.68z" fill="#ffa100" fill-opacity=".75" fill-rule="evenodd"/>
<path d="m209.49 256.03c-1.53 0.12-2.74 1.32-3.49 2.96s-1.1 3.77-0.93 6.08c0.18 2.31 0.86 4.38 1.85 5.88s2.36 2.49 3.9 2.38c1.53-0.12 2.75-1.31 3.5-2.95 0.76-1.63 1.1-3.78 0.92-6.09s-0.84-4.37-1.83-5.87c-1-1.5-2.38-2.51-3.92-2.39zm0.1 1.24c0.92-0.07 1.92 0.56 2.77 1.83 0.84 1.28 1.47 3.16 1.64 5.28 0.16 2.13-0.18 4.08-0.82 5.47-0.64 1.4-1.53 2.16-2.46 2.23-0.92 0.08-1.91-0.55-2.75-1.83-0.85-1.27-1.48-3.16-1.64-5.28s0.17-4.07 0.81-5.47c0.64-1.39 1.52-2.15 2.45-2.23z" fill-rule="evenodd"/>
<path d="m194.88 295.54c0.34 4.43-1.38 8.18-3.84 8.36-2.46 0.19-4.74-3.25-5.08-7.68s1.39-8.18 3.85-8.37 4.73 3.26 5.07 7.69z" fill="#ffa100" fill-opacity=".75" fill-rule="evenodd"/>
<path d="m189.81 287.34c-1.53 0.12-2.73 1.32-3.49 2.95-0.75 1.64-1.1 3.78-0.93 6.09 0.18 2.3 0.86 4.37 1.85 5.88 0.99 1.5 2.37 2.49 3.9 2.37 1.54-0.12 2.75-1.3 3.51-2.94 0.75-1.64 1.09-3.79 0.91-6.09-0.18-2.31-0.84-4.37-1.83-5.87-0.99-1.51-2.38-2.51-3.92-2.39zm0.1 1.24c0.93-0.07 1.93 0.55 2.77 1.83s1.48 3.16 1.64 5.28-0.18 4.08-0.82 5.47-1.53 2.16-2.45 2.23c-0.93 0.07-1.92-0.55-2.76-1.83s-1.48-3.16-1.64-5.28 0.18-4.08 0.82-5.47c0.63-1.39 1.51-2.16 2.44-2.23z" fill-rule="evenodd"/>
<path d="m167.12 281.79c0.66 4.4-0.78 8.26-3.22 8.63-2.45 0.37-4.96-2.9-5.63-7.29-0.66-4.4 0.78-8.26 3.23-8.63 2.44-0.37 4.96 2.9 5.62 7.29z" fill="#ffa100" fill-opacity=".75" fill-rule="evenodd"/>
<path d="m161.46 273.99c-1.53 0.23-2.64 1.52-3.27 3.21-0.63 1.68-0.83 3.84-0.48 6.13 0.34 2.29 1.17 4.3 2.27 5.73s2.54 2.31 4.06 2.08 2.65-1.5 3.28-3.19c0.63-1.68 0.81-3.85 0.47-6.14-0.35-2.29-1.16-4.29-2.26-5.72-1.09-1.43-2.55-2.33-4.07-2.1zm0.18 1.23c0.92-0.13 1.96 0.41 2.9 1.63 0.93 1.21 1.7 3.04 2.02 5.14 0.32 2.11 0.12 4.08-0.41 5.52-0.54 1.43-1.37 2.26-2.29 2.4s-1.95-0.41-2.89-1.62c-0.93-1.22-1.7-3.05-2.02-5.15-0.31-2.1-0.12-4.08 0.42-5.51 0.53-1.44 1.35-2.27 2.27-2.41z" fill-rule="evenodd"/>
<path d="m227.98 224.87c0.34 4.43-1.38 8.18-3.85 8.37-2.46 0.19-4.73-3.25-5.07-7.68s1.38-8.18 3.84-8.37 4.74 3.25 5.08 7.68z" fill="#ffa100" fill-opacity=".75" fill-rule="evenodd"/>
<path d="m222.91 216.68c-1.54 0.11-2.74 1.32-3.49 2.95-0.75 1.64-1.11 3.77-0.93 6.08s0.85 4.38 1.85 5.88c0.99 1.51 2.36 2.5 3.9 2.38 1.53-0.12 2.75-1.31 3.5-2.94 0.75-1.64 1.09-3.79 0.91-6.1-0.17-2.31-0.83-4.36-1.83-5.87-0.99-1.5-2.38-2.5-3.91-2.38zm0.09 1.24c0.93-0.07 1.93 0.55 2.77 1.83 0.85 1.28 1.48 3.16 1.64 5.28 0.17 2.12-0.17 4.08-0.81 5.47s-1.53 2.16-2.46 2.23-1.91-0.55-2.76-1.83c-0.84-1.28-1.47-3.16-1.63-5.28-0.17-2.12 0.17-4.08 0.81-5.47s1.52-2.16 2.44-2.23z" fill-rule="evenodd"/>
<path d="m185.02 247.23c-0.54 4.41-2.97 7.74-5.42 7.44s-4-4.12-3.45-8.53c0.54-4.41 2.97-7.75 5.42-7.45 2.45 0.31 4 4.13 3.45 8.54z" fill="#ffa100" fill-opacity=".75" fill-rule="evenodd"/>
<path d="m181.7 238.18c-1.53-0.19-2.94 0.75-4.01 2.21-1.06 1.45-1.83 3.48-2.11 5.77-0.28 2.3-0.03 4.47 0.65 6.14 0.67 1.67 1.82 2.91 3.35 3.1 1.52 0.18 2.96-0.74 4.02-2.19 1.06-1.46 1.81-3.5 2.1-5.8 0.28-2.3 0.04-4.44-0.63-6.11-0.68-1.67-1.84-2.93-3.37-3.12zm-0.15 1.24c0.92 0.11 1.78 0.92 2.35 2.34 0.58 1.42 0.82 3.39 0.56 5.5s-0.98 3.96-1.88 5.2-1.93 1.81-2.85 1.7-1.76-0.92-2.34-2.34c-0.57-1.42-0.82-3.39-0.56-5.5s0.98-3.96 1.88-5.2 1.92-1.82 2.84-1.7z" fill-rule="evenodd"/>
<path d="m242.29 294.64c0.34 4.43-1.38 8.18-3.84 8.37-2.47 0.19-4.74-3.25-5.08-7.68-0.34-4.44 1.38-8.18 3.84-8.37 2.47-0.19 4.74 3.25 5.08 7.68z" fill="#ffa100" fill-opacity=".75" fill-rule="evenodd"/>
<path d="m237.22 286.44c-1.53 0.12-2.74 1.32-3.49 2.96s-1.11 3.77-0.93 6.08 0.85 4.38 1.85 5.88c0.99 1.51 2.36 2.49 3.9 2.38 1.53-0.12 2.75-1.31 3.5-2.95 0.75-1.63 1.09-3.78 0.92-6.09-0.18-2.31-0.84-4.36-1.84-5.87-0.99-1.5-2.38-2.5-3.91-2.39zm0.1 1.25c0.92-0.08 1.92 0.55 2.77 1.83 0.84 1.27 1.47 3.15 1.63 5.28 0.17 2.12-0.17 4.07-0.81 5.46-0.64 1.4-1.53 2.16-2.46 2.24-0.93 0.07-1.91-0.56-2.75-1.84-0.85-1.27-1.48-3.15-1.64-5.28-0.17-2.12 0.17-4.07 0.81-5.46 0.64-1.4 1.52-2.16 2.45-2.23z" fill-rule="evenodd"/>
<path d="m140.32 261.33c-0.33 4.43-2.59 7.87-5.05 7.69-2.47-0.18-4.2-3.93-3.87-8.36s2.6-7.88 5.06-7.69c2.46 0.18 4.19 3.92 3.86 8.36z" fill="#ffa100" fill-opacity=".75" fill-rule="evenodd"/>
<path d="m136.56 252.45c-1.54-0.11-2.91 0.9-3.9 2.4-0.99 1.51-1.66 3.56-1.83 5.87s0.19 4.46 0.95 6.1c0.75 1.63 1.96 2.81 3.49 2.93 1.54 0.11 2.92-0.88 3.91-2.38 0.99-1.51 1.65-3.58 1.82-5.89s-0.17-4.44-0.93-6.08c-0.76-1.63-1.98-2.83-3.51-2.95zm-0.09 1.24c0.92 0.07 1.82 0.84 2.46 2.23s0.99 3.34 0.83 5.47c-0.16 2.12-0.79 4-1.63 5.28s-1.84 1.91-2.76 1.84c-0.93-0.07-1.81-0.84-2.45-2.23-0.65-1.39-0.99-3.34-0.83-5.46 0.16-2.13 0.78-4.01 1.63-5.29 0.84-1.28 1.82-1.9 2.75-1.84z" fill-rule="evenodd"/>
<path d="m185.04 211.46c0.34 4.43-1.38 8.18-3.84 8.37-2.46 0.18-4.73-3.26-5.07-7.69s1.38-8.18 3.84-8.37 4.73 3.26 5.07 7.69z" fill="#ffa100" fill-opacity=".75" fill-rule="evenodd"/>
<path d="m179.97 203.26c-1.53 0.12-2.73 1.32-3.49 2.96-0.75 1.63-1.1 3.77-0.92 6.08 0.17 2.31 0.85 4.37 1.84 5.88 1 1.5 2.37 2.49 3.9 2.37 1.54-0.11 2.76-1.3 3.51-2.94s1.09-3.78 0.91-6.09-0.84-4.37-1.83-5.87c-0.99-1.51-2.38-2.51-3.92-2.39zm0.1 1.24c0.93-0.07 1.93 0.55 2.77 1.83s1.48 3.16 1.64 5.28-0.18 4.08-0.81 5.47c-0.64 1.39-1.54 2.16-2.46 2.23-0.93 0.07-1.91-0.55-2.76-1.83-0.84-1.28-1.48-3.16-1.64-5.28s0.18-4.08 0.82-5.47 1.51-2.16 2.44-2.23z" fill-rule="evenodd"/>
<path d="m193.02 175.16c0.86 4.36-0.41 8.28-2.83 8.76s-5.09-2.68-5.94-7.04c-0.86-4.36 0.41-8.28 2.83-8.76 2.42-0.47 5.09 2.68 5.94 7.04z" fill="#ffa100" fill-opacity=".75" fill-rule="evenodd"/>
<path d="m187.02 167.62c-1.51 0.3-2.57 1.63-3.12 3.35-0.56 1.71-0.66 3.87-0.21 6.14 0.44 2.27 1.36 4.25 2.52 5.63 1.16 1.37 2.64 2.19 4.15 1.9 1.51-0.3 2.58-1.62 3.14-3.34 0.55-1.71 0.64-3.88 0.19-6.15-0.45-2.28-1.34-4.24-2.51-5.62-1.16-1.37-2.66-2.21-4.16-1.91zm0.24 1.22c0.91-0.18 1.97 0.32 2.96 1.49s1.84 2.97 2.25 5.06c0.41 2.08 0.3 4.06-0.17 5.52s-1.27 2.33-2.18 2.51-1.96-0.33-2.95-1.5-1.84-2.96-2.25-5.05-0.3-4.07 0.17-5.53c0.47-1.45 1.25-2.32 2.17-2.5z" fill-rule="evenodd"/>
<path d="m236.03 190.88c0.34 4.44-1.38 8.18-3.85 8.37-2.46 0.19-4.73-3.25-5.07-7.68s1.38-8.18 3.84-8.37 4.74 3.25 5.08 7.68z" fill="#ffa100" fill-opacity=".75" fill-rule="evenodd"/>
<path d="m230.96 182.69c-1.54 0.12-2.74 1.32-3.49 2.95-0.75 1.64-1.11 3.77-0.93 6.08s0.85 4.38 1.85 5.89c0.99 1.5 2.36 2.49 3.9 2.37 1.53-0.12 2.75-1.31 3.5-2.94 0.75-1.64 1.09-3.79 0.91-6.1-0.17-2.31-0.83-4.36-1.83-5.86-0.99-1.51-2.38-2.51-3.91-2.39zm0.09 1.24c0.93-0.07 1.93 0.55 2.77 1.83 0.85 1.28 1.48 3.16 1.64 5.28 0.17 2.12-0.17 4.08-0.81 5.47s-1.53 2.16-2.46 2.23-1.91-0.55-2.76-1.83c-0.84-1.28-1.47-3.16-1.63-5.28-0.17-2.12 0.17-4.08 0.81-5.47s1.52-2.16 2.44-2.23z" fill-rule="evenodd"/>
<path d="m147.48 218.61c0.34 4.43-1.38 8.18-3.85 8.37-2.46 0.19-4.73-3.25-5.07-7.68s1.38-8.18 3.84-8.37 4.74 3.25 5.08 7.68z" fill="#ffa100" fill-opacity=".75" fill-rule="evenodd"/>
<path d="m142.41 210.42c-1.54 0.11-2.74 1.31-3.49 2.95s-1.11 3.77-0.93 6.08 0.85 4.38 1.85 5.88c0.99 1.51 2.36 2.5 3.89 2.38 1.54-0.12 2.76-1.31 3.51-2.94 0.75-1.64 1.09-3.79 0.91-6.1-0.17-2.31-0.83-4.36-1.83-5.87-0.99-1.5-2.38-2.5-3.91-2.38zm0.09 1.24c0.93-0.07 1.93 0.55 2.77 1.83 0.85 1.27 1.48 3.16 1.64 5.28 0.17 2.12-0.17 4.07-0.81 5.47-0.64 1.39-1.53 2.16-2.46 2.23s-1.91-0.56-2.76-1.83c-0.84-1.28-1.47-3.16-1.64-5.28-0.16-2.13 0.18-4.08 0.82-5.47 0.64-1.4 1.52-2.16 2.44-2.23z" fill-rule="evenodd"/>
<path d="m153.74 179.26c0.34 4.43-1.38 8.18-3.85 8.37-2.46 0.18-4.73-3.26-5.07-7.69s1.38-8.18 3.84-8.37 4.74 3.26 5.08 7.69z" fill="#ffa100" fill-opacity=".75" fill-rule="evenodd"/>
<path d="m148.67 171.06c-1.54 0.12-2.74 1.32-3.49 2.96-0.75 1.63-1.11 3.77-0.93 6.08 0.18 2.3 0.85 4.37 1.85 5.88 0.99 1.5 2.36 2.49 3.9 2.37 1.53-0.12 2.75-1.3 3.5-2.94s1.09-3.79 0.92-6.09c-0.18-2.31-0.84-4.37-1.84-5.87-0.99-1.51-2.38-2.51-3.91-2.39zm0.09 1.24c0.93-0.07 1.93 0.55 2.77 1.83 0.85 1.28 1.48 3.16 1.64 5.28 0.17 2.12-0.17 4.08-0.81 5.47s-1.53 2.16-2.46 2.23-1.91-0.55-2.75-1.83c-0.85-1.28-1.48-3.16-1.64-5.28-0.17-2.12 0.17-4.08 0.81-5.47s1.52-2.16 2.44-2.23z" fill-rule="evenodd"/>
<path d="m190.85 73.727c2.66 9.735 9.99 18.734 11.38 28.683 0.97 7-2.41 14.72-2.5 21.86-0.09 7.44 1.86 16.91-4.1 22.54-9.33-12.21-23.65-21.46-29.42-36.2-2.87-7.36-2.68-16.793-2.68-24.589-11.23 0-23.94 1.488-31.41-8.879-16.92 5.41-21.9 24.158-38.934 30.078-3.07 1.06-18.537 2.26-17.811-3.44 0.428-3.37 6.435-5.534 8.674-7.773 4.162-4.162 6.417-10.025 8.454-15.45-9.487 2.033-17.818 9.064-25.953 13.947-29.143 17.486-52.628 41.486-57.575 76.206-1.3302 9.34-1.9583 21.27-0.7133 27.32 1.8513 12.56 11.26 22.38 19.563 30.51 4.276 4.18 10.738 9.67 14.969 13.9 12.621 12.62 24.206 22.61 36.538 35.61 17.655 18.62 30.178 51.55 58.928 54.96 19.1 2.26 32.4-12.44 49.29-17.19 7.03-1.98 12.25 0.69 19.01 1.02 16.87 0.82 31.18 1.5 44.17-10.47 4.68-4.32 8.44-13.48 11.44-18.87 7.61-13.66 14.37-27.54 21.08-41.66 4.69-9.88 8.31-19.96 12.21-30.05 10.16-26.28 19.87-50.65 16.4-79.23-1.6-13.24-4.98-26.22-14.49-36.19-14-14.669-38.81-23.554-58.03-28.692 0.14 6.854 1.76 14.375 4.91 20.489 1.53 2.992 6.09 7.893 4.86 11.513-2.14 6.31-15.12-5.106-17.06-7.418-7.29-8.712-10.26-20.994-20.03-27.59-2.43-1.644-7.02-4.874-10.12-4.252-3.61 0.727-7.84 7.112-11.05 9.307z" fill="url(#c)"/>

</svg>
