<?xml version="1.0" encoding="utf-8"?>
<svg
	version="1.1"
	xmlns="http://www.w3.org/2000/svg"
	xmlns:xlink="http://www.w3.org/1999/xlink"
	x="0%" y="0%"
	width="100%" height="100%"
	viewBox="0 0 240.0 240.0"
	enable-background="new 0 0 240.0 240.0"
	xml:space="preserve">
	<path
		fill="#145400"
		stroke="#000000"
		fill-opacity="0.992"
		stroke-opacity="1.000"
		fill-rule="nonzero"
		stroke-width="0.72"
		stroke-linejoin="round"
		stroke-linecap="square"
		d="M66.15,3.12L74.84,2.65L84.78,3.33L86.19,3.72L86.87,4.02L86.69,6.44L85.94,7.60L86.63,8.58L86.61,9.44L86.13,9.89L86.18,10.74L86.90,11.34L86.66,16.70L86.90,17.45L87.19,17.91L87.15,18.38L86.69,18.53L86.68,18.90L87.06,19.32L87.08,19.77L86.68,20.17L86.65,21.84L85.65,22.89L85.65,23.61L86.52,24.36L86.80,24.70L86.75,37.65L88.71,68.41L88.97,74.11L89.18,75.72L90.41,77.45L92.64,79.85L95.37,81.89L96.54,82.57L98.05,83.66L99.64,85.02L100.74,86.11L101.94,87.69L102.94,89.35L103.79,91.50L104.58,93.59L105.04,96.32L105.13,100.27L103.60,178.85L103.12,212.05L104.44,213.79L105.04,215.07L105.22,217.41L105.21,226.41L104.81,228.95L103.93,231.72L102.71,233.22L101.02,233.99L98.97,234.54L96.43,234.82L93.63,235.24L90.99,235.51L59.51,235.32L56.93,235.12L53.72,234.64L50.43,233.97L48.30,232.70L46.94,230.77L46.48,228.62L46.17,226.30L46.10,216.18L46.55,214.44L47.84,212.32L47.94,211.45L45.88,100.44L45.86,98.49L45.96,95.96L46.66,93.00L47.78,90.45L49.40,87.54L51.36,85.47L53.24,83.72L55.15,82.28L57.40,80.71L59.18,79.30L60.29,78.07L61.33,76.49L61.86,75.31L62.14,74.28L62.13,73.51L62.09,72.79L62.22,70.31L64.31,38.28L64.31,37.67L64.39,24.78L64.70,24.35L65.19,23.96L65.41,23.71L65.46,23.25L65.42,22.84L64.97,22.39L64.57,22.01L64.53,21.56L64.48,21.01L64.43,20.59L64.43,20.18L64.16,19.88L64.08,19.36L64.06,19.01L64.39,18.82L64.65,18.68L64.69,18.53L64.41,18.45L64.15,18.12L64.11,17.85L64.26,17.50L64.51,17.04L64.50,16.72L64.53,16.31L64.52,15.45L64.51,14.40L64.43,13.49L64.31,12.82L64.51,12.42L64.87,12.04L65.06,11.75L64.97,11.29L64.52,10.83L64.40,10.32L64.45,9.73L64.81,9.41L65.13,9.15L65.13,8.41L65.13,7.58L65.16,7.13L64.79,6.83L64.52,6.36L64.53,5.87L64.50,4.24L64.75,3.71L66.15,3.12z"/>
	<path
		fill="#FFDDD8"
		stroke="#000000"
		fill-opacity="1.000"
		stroke-opacity="1.000"
		fill-rule="nonzero"
		stroke-width="0.72"
		stroke-linejoin="miter"
		stroke-linecap="square"
		d="M46.10,112.52L104.87,112.55L104.20,152.54L46.86,152.26L46.10,112.52z"/>
	<path
		fill="#FFDDD8"
		stroke="#000000"
		fill-opacity="0.000"
		stroke-opacity="1.000"
		fill-rule="nonzero"
		stroke-width="0.72"
		stroke-linejoin="miter"
		stroke-linecap="square"
		d="M64.69,20.10Q76.91,21.72,86.48,20.25M86.69,17.39Q77.12,18.85,64.91,17.24M86.58,14.64Q77.01,16.10,64.80,14.49M86.83,12.00Q77.26,13.46,65.05,11.85"/>
</svg>